<?xml version="1.0" encoding="utf-8"?>
<svg xmlns="http://www.w3.org/2000/svg" xmlns:xlink="http://www.w3.org/1999/xlink" width="600" height="400" viewBox="0 0 2400 1600">
<defs>
  <clipPath id="clip910">
    <rect x="0" y="0" width="2400" height="1600"/>
  </clipPath>
</defs>
<path clip-path="url(#clip910)" d="M0 1600 L2400 1600 L2400 0 L0 0  Z" fill="#ffffff" fill-rule="evenodd" fill-opacity="1"/>
<defs>
  <clipPath id="clip911">
    <rect x="480" y="0" width="1681" height="1600"/>
  </clipPath>
</defs>
<path clip-path="url(#clip910)" d="M249.542 1423.18 L2352.76 1423.18 L2352.76 123.472 L249.542 123.472  Z" fill="#ffffff" fill-rule="evenodd" fill-opacity="1"/>
<defs>
  <clipPath id="clip912">
    <rect x="249" y="123" width="2104" height="1301"/>
  </clipPath>
</defs>
<polyline clip-path="url(#clip910)" style="stroke:#000000; stroke-linecap:round; stroke-linejoin:round; stroke-width:4; stroke-opacity:1; fill:none" points="249.542,1423.18 2352.76,1423.18 "/>
<polyline clip-path="url(#clip910)" style="stroke:#000000; stroke-linecap:round; stroke-linejoin:round; stroke-width:4; stroke-opacity:1; fill:none" points="249.542,1423.18 249.542,1404.28 "/>
<polyline clip-path="url(#clip910)" style="stroke:#000000; stroke-linecap:round; stroke-linejoin:round; stroke-width:4; stroke-opacity:1; fill:none" points="868.134,1423.18 868.134,1404.28 "/>
<polyline clip-path="url(#clip910)" style="stroke:#000000; stroke-linecap:round; stroke-linejoin:round; stroke-width:4; stroke-opacity:1; fill:none" points="1486.73,1423.18 1486.73,1404.28 "/>
<polyline clip-path="url(#clip910)" style="stroke:#000000; stroke-linecap:round; stroke-linejoin:round; stroke-width:4; stroke-opacity:1; fill:none" points="2105.32,1423.18 2105.32,1404.28 "/>
<path clip-path="url(#clip910)" d="M249.542 1454.1 Q245.931 1454.1 244.102 1457.66 Q242.297 1461.2 242.297 1468.33 Q242.297 1475.44 244.102 1479.01 Q245.931 1482.55 249.542 1482.55 Q253.176 1482.55 254.982 1479.01 Q256.811 1475.44 256.811 1468.33 Q256.811 1461.2 254.982 1457.66 Q253.176 1454.1 249.542 1454.1 M249.542 1450.39 Q255.352 1450.39 258.408 1455 Q261.486 1459.58 261.486 1468.33 Q261.486 1477.06 258.408 1481.67 Q255.352 1486.25 249.542 1486.25 Q243.732 1486.25 240.653 1481.67 Q237.598 1477.06 237.598 1468.33 Q237.598 1459.58 240.653 1455 Q243.732 1450.39 249.542 1450.39 Z" fill="#000000" fill-rule="evenodd" fill-opacity="1" /><path clip-path="url(#clip910)" d="M842.834 1451.02 L861.19 1451.02 L861.19 1454.96 L847.116 1454.96 L847.116 1463.43 Q848.134 1463.08 849.153 1462.92 Q850.171 1462.73 851.19 1462.73 Q856.977 1462.73 860.357 1465.9 Q863.736 1469.08 863.736 1474.49 Q863.736 1480.07 860.264 1483.17 Q856.792 1486.25 850.472 1486.25 Q848.296 1486.25 846.028 1485.88 Q843.783 1485.51 841.375 1484.77 L841.375 1480.07 Q843.459 1481.2 845.681 1481.76 Q847.903 1482.32 850.38 1482.32 Q854.384 1482.32 856.722 1480.21 Q859.06 1478.1 859.06 1474.49 Q859.06 1470.88 856.722 1468.77 Q854.384 1466.67 850.38 1466.67 Q848.505 1466.67 846.63 1467.08 Q844.778 1467.5 842.834 1468.38 L842.834 1451.02 Z" fill="#000000" fill-rule="evenodd" fill-opacity="1" /><path clip-path="url(#clip910)" d="M882.949 1454.1 Q879.338 1454.1 877.509 1457.66 Q875.704 1461.2 875.704 1468.33 Q875.704 1475.44 877.509 1479.01 Q879.338 1482.55 882.949 1482.55 Q886.583 1482.55 888.389 1479.01 Q890.218 1475.44 890.218 1468.33 Q890.218 1461.2 888.389 1457.66 Q886.583 1454.1 882.949 1454.1 M882.949 1450.39 Q888.759 1450.39 891.815 1455 Q894.893 1459.58 894.893 1468.33 Q894.893 1477.06 891.815 1481.67 Q888.759 1486.25 882.949 1486.25 Q877.139 1486.25 874.06 1481.67 Q871.005 1477.06 871.005 1468.33 Q871.005 1459.58 874.06 1455 Q877.139 1450.39 882.949 1450.39 Z" fill="#000000" fill-rule="evenodd" fill-opacity="1" /><path clip-path="url(#clip910)" d="M1446.33 1481.64 L1453.97 1481.64 L1453.97 1455.28 L1445.66 1456.95 L1445.66 1452.69 L1453.93 1451.02 L1458.6 1451.02 L1458.6 1481.64 L1466.24 1481.64 L1466.24 1485.58 L1446.33 1485.58 L1446.33 1481.64 Z" fill="#000000" fill-rule="evenodd" fill-opacity="1" /><path clip-path="url(#clip910)" d="M1485.69 1454.1 Q1482.07 1454.1 1480.25 1457.66 Q1478.44 1461.2 1478.44 1468.33 Q1478.44 1475.44 1480.25 1479.01 Q1482.07 1482.55 1485.69 1482.55 Q1489.32 1482.55 1491.12 1479.01 Q1492.95 1475.44 1492.95 1468.33 Q1492.95 1461.2 1491.12 1457.66 Q1489.32 1454.1 1485.69 1454.1 M1485.69 1450.39 Q1491.5 1450.39 1494.55 1455 Q1497.63 1459.58 1497.63 1468.33 Q1497.63 1477.06 1494.55 1481.67 Q1491.5 1486.25 1485.69 1486.25 Q1479.87 1486.25 1476.8 1481.67 Q1473.74 1477.06 1473.74 1468.33 Q1473.74 1459.58 1476.8 1455 Q1479.87 1450.39 1485.69 1450.39 Z" fill="#000000" fill-rule="evenodd" fill-opacity="1" /><path clip-path="url(#clip910)" d="M1515.85 1454.1 Q1512.24 1454.1 1510.41 1457.66 Q1508.6 1461.2 1508.6 1468.33 Q1508.6 1475.44 1510.41 1479.01 Q1512.24 1482.55 1515.85 1482.55 Q1519.48 1482.55 1521.29 1479.01 Q1523.12 1475.44 1523.12 1468.33 Q1523.12 1461.2 1521.29 1457.66 Q1519.48 1454.1 1515.85 1454.1 M1515.85 1450.39 Q1521.66 1450.39 1524.71 1455 Q1527.79 1459.58 1527.79 1468.33 Q1527.79 1477.06 1524.71 1481.67 Q1521.66 1486.25 1515.85 1486.25 Q1510.04 1486.25 1506.96 1481.67 Q1503.9 1477.06 1503.9 1468.33 Q1503.9 1459.58 1506.96 1455 Q1510.04 1450.39 1515.85 1450.39 Z" fill="#000000" fill-rule="evenodd" fill-opacity="1" /><path clip-path="url(#clip910)" d="M2064.93 1481.64 L2072.56 1481.64 L2072.56 1455.28 L2064.25 1456.95 L2064.25 1452.69 L2072.52 1451.02 L2077.19 1451.02 L2077.19 1481.64 L2084.83 1481.64 L2084.83 1485.58 L2064.93 1485.58 L2064.93 1481.64 Z" fill="#000000" fill-rule="evenodd" fill-opacity="1" /><path clip-path="url(#clip910)" d="M2094.32 1451.02 L2112.68 1451.02 L2112.68 1454.96 L2098.61 1454.96 L2098.61 1463.43 Q2099.62 1463.08 2100.64 1462.92 Q2101.66 1462.73 2102.68 1462.73 Q2108.47 1462.73 2111.85 1465.9 Q2115.23 1469.08 2115.23 1474.49 Q2115.23 1480.07 2111.75 1483.17 Q2108.28 1486.25 2101.96 1486.25 Q2099.79 1486.25 2097.52 1485.88 Q2095.27 1485.51 2092.87 1484.77 L2092.87 1480.07 Q2094.95 1481.2 2097.17 1481.76 Q2099.39 1482.32 2101.87 1482.32 Q2105.87 1482.32 2108.21 1480.21 Q2110.55 1478.1 2110.55 1474.49 Q2110.55 1470.88 2108.21 1468.77 Q2105.87 1466.67 2101.87 1466.67 Q2099.99 1466.67 2098.12 1467.08 Q2096.27 1467.5 2094.32 1468.38 L2094.32 1451.02 Z" fill="#000000" fill-rule="evenodd" fill-opacity="1" /><path clip-path="url(#clip910)" d="M2134.44 1454.1 Q2130.83 1454.1 2129 1457.66 Q2127.19 1461.2 2127.19 1468.33 Q2127.19 1475.44 2129 1479.01 Q2130.83 1482.55 2134.44 1482.55 Q2138.07 1482.55 2139.88 1479.01 Q2141.71 1475.44 2141.71 1468.33 Q2141.71 1461.2 2139.88 1457.66 Q2138.07 1454.1 2134.44 1454.1 M2134.44 1450.39 Q2140.25 1450.39 2143.3 1455 Q2146.38 1459.58 2146.38 1468.33 Q2146.38 1477.06 2143.3 1481.67 Q2140.25 1486.25 2134.44 1486.25 Q2128.63 1486.25 2125.55 1481.67 Q2122.49 1477.06 2122.49 1468.33 Q2122.49 1459.58 2125.55 1455 Q2128.63 1450.39 2134.44 1450.39 Z" fill="#000000" fill-rule="evenodd" fill-opacity="1" /><path clip-path="url(#clip910)" d="M1066.49 1526.86 L1057.77 1550.51 L1075.25 1550.51 L1066.49 1526.86 M1062.86 1520.52 L1070.15 1520.52 L1088.26 1568.04 L1081.58 1568.04 L1077.25 1555.85 L1055.83 1555.85 L1051.5 1568.04 L1044.72 1568.04 L1062.86 1520.52 Z" fill="#000000" fill-rule="evenodd" fill-opacity="1" /><path clip-path="url(#clip910)" d="M1086.93 1532.4 L1093.13 1532.4 L1104.27 1562.31 L1115.41 1532.4 L1121.62 1532.4 L1108.25 1568.04 L1100.3 1568.04 L1086.93 1532.4 Z" fill="#000000" fill-rule="evenodd" fill-opacity="1" /><path clip-path="url(#clip910)" d="M1160.2 1548.76 L1160.2 1551.62 L1133.27 1551.62 Q1133.65 1557.67 1136.9 1560.85 Q1140.18 1564 1146 1564 Q1149.37 1564 1152.53 1563.17 Q1155.71 1562.35 1158.83 1560.69 L1158.83 1566.23 Q1155.68 1567.57 1152.37 1568.27 Q1149.06 1568.97 1145.65 1568.97 Q1137.12 1568.97 1132.12 1564 Q1127.16 1559.04 1127.16 1550.57 Q1127.16 1541.82 1131.87 1536.69 Q1136.61 1531.54 1144.63 1531.54 Q1151.83 1531.54 1155.99 1536.18 Q1160.2 1540.8 1160.2 1548.76 M1154.34 1547.04 Q1154.28 1542.23 1151.63 1539.37 Q1149.02 1536.5 1144.7 1536.5 Q1139.79 1536.5 1136.83 1539.27 Q1133.91 1542.04 1133.46 1547.07 L1154.34 1547.04 Z" fill="#000000" fill-rule="evenodd" fill-opacity="1" /><path clip-path="url(#clip910)" d="M1190.47 1537.87 Q1189.48 1537.3 1188.3 1537.04 Q1187.16 1536.76 1185.75 1536.76 Q1180.79 1536.76 1178.12 1540 Q1175.47 1543.22 1175.47 1549.27 L1175.47 1568.04 L1169.59 1568.04 L1169.59 1532.4 L1175.47 1532.4 L1175.47 1537.93 Q1177.32 1534.69 1180.28 1533.13 Q1183.24 1531.54 1187.47 1531.54 Q1188.08 1531.54 1188.81 1531.63 Q1189.54 1531.7 1190.43 1531.85 L1190.47 1537.87 Z" fill="#000000" fill-rule="evenodd" fill-opacity="1" /><path clip-path="url(#clip910)" d="M1212.81 1550.12 Q1205.71 1550.12 1202.97 1551.75 Q1200.24 1553.37 1200.24 1557.29 Q1200.24 1560.4 1202.27 1562.25 Q1204.34 1564.07 1207.88 1564.07 Q1212.75 1564.07 1215.67 1560.63 Q1218.63 1557.16 1218.63 1551.43 L1218.63 1550.12 L1212.81 1550.12 M1224.49 1547.71 L1224.49 1568.04 L1218.63 1568.04 L1218.63 1562.63 Q1216.63 1565.88 1213.64 1567.44 Q1210.64 1568.97 1206.32 1568.97 Q1200.84 1568.97 1197.59 1565.91 Q1194.38 1562.82 1194.38 1557.67 Q1194.38 1551.65 1198.39 1548.6 Q1202.43 1545.54 1210.42 1545.54 L1218.63 1545.54 L1218.63 1544.97 Q1218.63 1540.93 1215.96 1538.73 Q1213.32 1536.5 1208.51 1536.5 Q1205.46 1536.5 1202.56 1537.23 Q1199.66 1537.97 1196.99 1539.43 L1196.99 1534.02 Q1200.2 1532.78 1203.23 1532.17 Q1206.25 1531.54 1209.12 1531.54 Q1216.85 1531.54 1220.67 1535.55 Q1224.49 1539.56 1224.49 1547.71 Z" fill="#000000" fill-rule="evenodd" fill-opacity="1" /><path clip-path="url(#clip910)" d="M1260.01 1549.81 Q1260.01 1543.44 1257.37 1539.94 Q1254.76 1536.44 1250.02 1536.44 Q1245.31 1536.44 1242.66 1539.94 Q1240.05 1543.44 1240.05 1549.81 Q1240.05 1556.14 1242.66 1559.64 Q1245.31 1563.14 1250.02 1563.14 Q1254.76 1563.14 1257.37 1559.64 Q1260.01 1556.14 1260.01 1549.81 M1265.87 1563.62 Q1265.87 1572.72 1261.82 1577.15 Q1257.78 1581.6 1249.44 1581.6 Q1246.36 1581.6 1243.62 1581.13 Q1240.88 1580.68 1238.3 1579.72 L1238.3 1574.03 Q1240.88 1575.43 1243.4 1576.1 Q1245.91 1576.76 1248.52 1576.76 Q1254.28 1576.76 1257.15 1573.74 Q1260.01 1570.75 1260.01 1564.67 L1260.01 1561.77 Q1258.2 1564.92 1255.36 1566.48 Q1252.53 1568.04 1248.58 1568.04 Q1242.03 1568.04 1238.02 1563.05 Q1234.01 1558.05 1234.01 1549.81 Q1234.01 1541.53 1238.02 1536.53 Q1242.03 1531.54 1248.58 1531.54 Q1252.53 1531.54 1255.36 1533.1 Q1258.2 1534.66 1260.01 1537.81 L1260.01 1532.4 L1265.87 1532.4 L1265.87 1563.62 Z" fill="#000000" fill-rule="evenodd" fill-opacity="1" /><path clip-path="url(#clip910)" d="M1308.42 1548.76 L1308.42 1551.62 L1281.49 1551.62 Q1281.88 1557.67 1285.12 1560.85 Q1288.4 1564 1294.23 1564 Q1297.6 1564 1300.75 1563.17 Q1303.93 1562.35 1307.05 1560.69 L1307.05 1566.23 Q1303.9 1567.57 1300.59 1568.27 Q1297.28 1568.97 1293.88 1568.97 Q1285.35 1568.97 1280.35 1564 Q1275.38 1559.04 1275.38 1550.57 Q1275.38 1541.82 1280.09 1536.69 Q1284.84 1531.54 1292.86 1531.54 Q1300.05 1531.54 1304.22 1536.18 Q1308.42 1540.8 1308.42 1548.76 M1302.57 1547.04 Q1302.5 1542.23 1299.86 1539.37 Q1297.25 1536.5 1292.92 1536.5 Q1288.02 1536.5 1285.06 1539.27 Q1282.13 1542.04 1281.69 1547.07 L1302.57 1547.04 Z" fill="#000000" fill-rule="evenodd" fill-opacity="1" /><path clip-path="url(#clip910)" d="M1362.21 1537.81 L1362.21 1518.52 L1368.07 1518.52 L1368.07 1568.04 L1362.21 1568.04 L1362.21 1562.7 Q1360.37 1565.88 1357.53 1567.44 Q1354.73 1568.97 1350.79 1568.97 Q1344.32 1568.97 1340.25 1563.81 Q1336.21 1558.65 1336.21 1550.25 Q1336.21 1541.85 1340.25 1536.69 Q1344.32 1531.54 1350.79 1531.54 Q1354.73 1531.54 1357.53 1533.1 Q1360.37 1534.62 1362.21 1537.81 M1342.26 1550.25 Q1342.26 1556.71 1344.9 1560.4 Q1347.57 1564.07 1352.22 1564.07 Q1356.86 1564.07 1359.54 1560.4 Q1362.21 1556.71 1362.21 1550.25 Q1362.21 1543.79 1359.54 1540.13 Q1356.86 1536.44 1352.22 1536.44 Q1347.57 1536.44 1344.9 1540.13 Q1342.26 1543.79 1342.26 1550.25 Z" fill="#000000" fill-rule="evenodd" fill-opacity="1" /><path clip-path="url(#clip910)" d="M1410.62 1548.76 L1410.62 1551.62 L1383.7 1551.62 Q1384.08 1557.67 1387.32 1560.85 Q1390.6 1564 1396.43 1564 Q1399.8 1564 1402.95 1563.17 Q1406.14 1562.35 1409.25 1560.69 L1409.25 1566.23 Q1406.1 1567.57 1402.79 1568.27 Q1399.48 1568.97 1396.08 1568.97 Q1387.55 1568.97 1382.55 1564 Q1377.59 1559.04 1377.59 1550.57 Q1377.59 1541.82 1382.3 1536.69 Q1387.04 1531.54 1395.06 1531.54 Q1402.25 1531.54 1406.42 1536.18 Q1410.62 1540.8 1410.62 1548.76 M1404.77 1547.04 Q1404.7 1542.23 1402.06 1539.37 Q1399.45 1536.5 1395.12 1536.5 Q1390.22 1536.5 1387.26 1539.27 Q1384.33 1542.04 1383.89 1547.07 L1404.77 1547.04 Z" fill="#000000" fill-rule="evenodd" fill-opacity="1" /><path clip-path="url(#clip910)" d="M1443.69 1549.81 Q1443.69 1543.44 1441.05 1539.94 Q1438.44 1536.44 1433.7 1536.44 Q1428.99 1536.44 1426.35 1539.94 Q1423.74 1543.44 1423.74 1549.81 Q1423.74 1556.14 1426.35 1559.64 Q1428.99 1563.14 1433.7 1563.14 Q1438.44 1563.14 1441.05 1559.64 Q1443.69 1556.14 1443.69 1549.81 M1449.55 1563.62 Q1449.55 1572.72 1445.51 1577.15 Q1441.47 1581.6 1433.13 1581.6 Q1430.04 1581.6 1427.3 1581.13 Q1424.56 1580.68 1421.99 1579.72 L1421.99 1574.03 Q1424.56 1575.43 1427.08 1576.1 Q1429.59 1576.76 1432.2 1576.76 Q1437.96 1576.76 1440.83 1573.74 Q1443.69 1570.75 1443.69 1564.67 L1443.69 1561.77 Q1441.88 1564.92 1439.05 1566.48 Q1436.21 1568.04 1432.27 1568.04 Q1425.71 1568.04 1421.7 1563.05 Q1417.69 1558.05 1417.69 1549.81 Q1417.69 1541.53 1421.7 1536.53 Q1425.71 1531.54 1432.27 1531.54 Q1436.21 1531.54 1439.05 1533.1 Q1441.88 1534.66 1443.69 1537.81 L1443.69 1532.4 L1449.55 1532.4 L1449.55 1563.62 Z" fill="#000000" fill-rule="evenodd" fill-opacity="1" /><path clip-path="url(#clip910)" d="M1482.27 1537.87 Q1481.28 1537.3 1480.1 1537.04 Q1478.96 1536.76 1477.56 1536.76 Q1472.59 1536.76 1469.92 1540 Q1467.28 1543.22 1467.28 1549.27 L1467.28 1568.04 L1461.39 1568.04 L1461.39 1532.4 L1467.28 1532.4 L1467.28 1537.93 Q1469.12 1534.69 1472.08 1533.13 Q1475.04 1531.54 1479.28 1531.54 Q1479.88 1531.54 1480.61 1531.63 Q1481.35 1531.7 1482.24 1531.85 L1482.27 1537.87 Z" fill="#000000" fill-rule="evenodd" fill-opacity="1" /><path clip-path="url(#clip910)" d="M1517.47 1548.76 L1517.47 1551.62 L1490.54 1551.62 Q1490.93 1557.67 1494.17 1560.85 Q1497.45 1564 1503.28 1564 Q1506.65 1564 1509.8 1563.17 Q1512.98 1562.35 1516.1 1560.69 L1516.1 1566.23 Q1512.95 1567.57 1509.64 1568.27 Q1506.33 1568.97 1502.93 1568.97 Q1494.4 1568.97 1489.4 1564 Q1484.43 1559.04 1484.43 1550.57 Q1484.43 1541.82 1489.14 1536.69 Q1493.89 1531.54 1501.91 1531.54 Q1509.1 1531.54 1513.27 1536.18 Q1517.47 1540.8 1517.47 1548.76 M1511.62 1547.04 Q1511.55 1542.23 1508.91 1539.37 Q1506.3 1536.5 1501.97 1536.5 Q1497.07 1536.5 1494.11 1539.27 Q1491.18 1542.04 1490.74 1547.07 L1511.62 1547.04 Z" fill="#000000" fill-rule="evenodd" fill-opacity="1" /><path clip-path="url(#clip910)" d="M1557.58 1548.76 L1557.58 1551.62 L1530.65 1551.62 Q1531.03 1557.67 1534.28 1560.85 Q1537.56 1564 1543.38 1564 Q1546.75 1564 1549.9 1563.17 Q1553.09 1562.35 1556.21 1560.69 L1556.21 1566.23 Q1553.06 1567.57 1549.75 1568.27 Q1546.44 1568.97 1543.03 1568.97 Q1534.5 1568.97 1529.5 1564 Q1524.54 1559.04 1524.54 1550.57 Q1524.54 1541.82 1529.25 1536.69 Q1533.99 1531.54 1542.01 1531.54 Q1549.2 1531.54 1553.37 1536.18 Q1557.58 1540.8 1557.58 1548.76 M1551.72 1547.04 Q1551.66 1542.23 1549.01 1539.37 Q1546.4 1536.5 1542.08 1536.5 Q1537.17 1536.5 1534.21 1539.27 Q1531.29 1542.04 1530.84 1547.07 L1551.72 1547.04 Z" fill="#000000" fill-rule="evenodd" fill-opacity="1" /><polyline clip-path="url(#clip910)" style="stroke:#000000; stroke-linecap:round; stroke-linejoin:round; stroke-width:4; stroke-opacity:1; fill:none" points="249.542,1423.18 249.542,123.472 "/>
<polyline clip-path="url(#clip910)" style="stroke:#000000; stroke-linecap:round; stroke-linejoin:round; stroke-width:4; stroke-opacity:1; fill:none" points="249.542,1390.87 268.44,1390.87 "/>
<polyline clip-path="url(#clip910)" style="stroke:#000000; stroke-linecap:round; stroke-linejoin:round; stroke-width:4; stroke-opacity:1; fill:none" points="249.542,1083.21 268.44,1083.21 "/>
<polyline clip-path="url(#clip910)" style="stroke:#000000; stroke-linecap:round; stroke-linejoin:round; stroke-width:4; stroke-opacity:1; fill:none" points="249.542,775.562 268.44,775.562 "/>
<polyline clip-path="url(#clip910)" style="stroke:#000000; stroke-linecap:round; stroke-linejoin:round; stroke-width:4; stroke-opacity:1; fill:none" points="249.542,467.909 268.44,467.909 "/>
<polyline clip-path="url(#clip910)" style="stroke:#000000; stroke-linecap:round; stroke-linejoin:round; stroke-width:4; stroke-opacity:1; fill:none" points="249.542,160.256 268.44,160.256 "/>
<path clip-path="url(#clip910)" d="M126.205 1376.67 Q122.593 1376.67 120.765 1380.23 Q118.959 1383.77 118.959 1390.9 Q118.959 1398.01 120.765 1401.57 Q122.593 1405.12 126.205 1405.12 Q129.839 1405.12 131.644 1401.57 Q133.473 1398.01 133.473 1390.9 Q133.473 1383.77 131.644 1380.23 Q129.839 1376.67 126.205 1376.67 M126.205 1372.96 Q132.015 1372.96 135.07 1377.57 Q138.149 1382.15 138.149 1390.9 Q138.149 1399.63 135.07 1404.24 Q132.015 1408.82 126.205 1408.82 Q120.394 1408.82 117.316 1404.24 Q114.26 1399.63 114.26 1390.9 Q114.26 1382.15 117.316 1377.57 Q120.394 1372.96 126.205 1372.96 Z" fill="#000000" fill-rule="evenodd" fill-opacity="1" /><path clip-path="url(#clip910)" d="M146.366 1402.27 L151.251 1402.27 L151.251 1408.15 L146.366 1408.15 L146.366 1402.27 Z" fill="#000000" fill-rule="evenodd" fill-opacity="1" /><path clip-path="url(#clip910)" d="M171.436 1376.67 Q167.825 1376.67 165.996 1380.23 Q164.19 1383.77 164.19 1390.9 Q164.19 1398.01 165.996 1401.57 Q167.825 1405.12 171.436 1405.12 Q175.07 1405.12 176.876 1401.57 Q178.704 1398.01 178.704 1390.9 Q178.704 1383.77 176.876 1380.23 Q175.07 1376.67 171.436 1376.67 M171.436 1372.96 Q177.246 1372.96 180.301 1377.57 Q183.38 1382.15 183.38 1390.9 Q183.38 1399.63 180.301 1404.24 Q177.246 1408.82 171.436 1408.82 Q165.626 1408.82 162.547 1404.24 Q159.491 1399.63 159.491 1390.9 Q159.491 1382.15 162.547 1377.57 Q165.626 1372.96 171.436 1372.96 Z" fill="#000000" fill-rule="evenodd" fill-opacity="1" /><path clip-path="url(#clip910)" d="M201.598 1376.67 Q197.987 1376.67 196.158 1380.23 Q194.352 1383.77 194.352 1390.9 Q194.352 1398.01 196.158 1401.57 Q197.987 1405.12 201.598 1405.12 Q205.232 1405.12 207.037 1401.57 Q208.866 1398.01 208.866 1390.9 Q208.866 1383.77 207.037 1380.23 Q205.232 1376.67 201.598 1376.67 M201.598 1372.96 Q207.408 1372.96 210.463 1377.57 Q213.542 1382.15 213.542 1390.9 Q213.542 1399.63 210.463 1404.24 Q207.408 1408.82 201.598 1408.82 Q195.787 1408.82 192.709 1404.24 Q189.653 1399.63 189.653 1390.9 Q189.653 1382.15 192.709 1377.57 Q195.787 1372.96 201.598 1372.96 Z" fill="#000000" fill-rule="evenodd" fill-opacity="1" /><path clip-path="url(#clip910)" d="M127.2 1069.01 Q123.589 1069.01 121.76 1072.58 Q119.955 1076.12 119.955 1083.25 Q119.955 1090.36 121.76 1093.92 Q123.589 1097.46 127.2 1097.46 Q130.834 1097.46 132.64 1093.92 Q134.468 1090.36 134.468 1083.25 Q134.468 1076.12 132.64 1072.58 Q130.834 1069.01 127.2 1069.01 M127.2 1065.31 Q133.01 1065.31 136.066 1069.92 Q139.144 1074.5 139.144 1083.25 Q139.144 1091.98 136.066 1096.58 Q133.01 1101.17 127.2 1101.17 Q121.39 1101.17 118.311 1096.58 Q115.256 1091.98 115.256 1083.25 Q115.256 1074.5 118.311 1069.92 Q121.39 1065.31 127.2 1065.31 Z" fill="#000000" fill-rule="evenodd" fill-opacity="1" /><path clip-path="url(#clip910)" d="M147.362 1094.62 L152.246 1094.62 L152.246 1100.49 L147.362 1100.49 L147.362 1094.62 Z" fill="#000000" fill-rule="evenodd" fill-opacity="1" /><path clip-path="url(#clip910)" d="M166.459 1096.56 L182.778 1096.56 L182.778 1100.49 L160.834 1100.49 L160.834 1096.56 Q163.496 1093.81 168.079 1089.18 Q172.686 1084.52 173.866 1083.18 Q176.112 1080.66 176.991 1078.92 Q177.894 1077.16 177.894 1075.47 Q177.894 1072.72 175.95 1070.98 Q174.028 1069.25 170.927 1069.25 Q168.727 1069.25 166.274 1070.01 Q163.843 1070.77 161.065 1072.32 L161.065 1067.6 Q163.89 1066.47 166.343 1065.89 Q168.797 1065.31 170.834 1065.31 Q176.204 1065.31 179.399 1068 Q182.593 1070.68 182.593 1075.17 Q182.593 1077.3 181.783 1079.22 Q180.996 1081.12 178.889 1083.71 Q178.311 1084.38 175.209 1087.6 Q172.107 1090.8 166.459 1096.56 Z" fill="#000000" fill-rule="evenodd" fill-opacity="1" /><path clip-path="url(#clip910)" d="M192.639 1065.93 L210.996 1065.93 L210.996 1069.87 L196.922 1069.87 L196.922 1078.34 Q197.94 1077.99 198.959 1077.83 Q199.977 1077.65 200.996 1077.65 Q206.783 1077.65 210.162 1080.82 Q213.542 1083.99 213.542 1089.41 Q213.542 1094.99 210.07 1098.09 Q206.598 1101.17 200.278 1101.17 Q198.102 1101.17 195.834 1100.8 Q193.588 1100.43 191.181 1099.68 L191.181 1094.99 Q193.264 1096.12 195.487 1096.68 Q197.709 1097.23 200.186 1097.23 Q204.19 1097.23 206.528 1095.12 Q208.866 1093.02 208.866 1089.41 Q208.866 1085.8 206.528 1083.69 Q204.19 1081.58 200.186 1081.58 Q198.311 1081.58 196.436 1082 Q194.584 1082.42 192.639 1083.3 L192.639 1065.93 Z" fill="#000000" fill-rule="evenodd" fill-opacity="1" /><path clip-path="url(#clip910)" d="M126.205 761.361 Q122.593 761.361 120.765 764.925 Q118.959 768.467 118.959 775.597 Q118.959 782.703 120.765 786.268 Q122.593 789.81 126.205 789.81 Q129.839 789.81 131.644 786.268 Q133.473 782.703 133.473 775.597 Q133.473 768.467 131.644 764.925 Q129.839 761.361 126.205 761.361 M126.205 757.657 Q132.015 757.657 135.07 762.263 Q138.149 766.847 138.149 775.597 Q138.149 784.324 135.07 788.93 Q132.015 793.513 126.205 793.513 Q120.394 793.513 117.316 788.93 Q114.26 784.324 114.26 775.597 Q114.26 766.847 117.316 762.263 Q120.394 757.657 126.205 757.657 Z" fill="#000000" fill-rule="evenodd" fill-opacity="1" /><path clip-path="url(#clip910)" d="M146.366 786.962 L151.251 786.962 L151.251 792.842 L146.366 792.842 L146.366 786.962 Z" fill="#000000" fill-rule="evenodd" fill-opacity="1" /><path clip-path="url(#clip910)" d="M161.482 758.282 L179.839 758.282 L179.839 762.217 L165.765 762.217 L165.765 770.689 Q166.783 770.342 167.802 770.18 Q168.82 769.995 169.839 769.995 Q175.626 769.995 179.005 773.166 Q182.385 776.337 182.385 781.754 Q182.385 787.333 178.913 790.435 Q175.44 793.513 169.121 793.513 Q166.945 793.513 164.677 793.143 Q162.431 792.773 160.024 792.032 L160.024 787.333 Q162.107 788.467 164.329 789.023 Q166.552 789.578 169.028 789.578 Q173.033 789.578 175.371 787.472 Q177.709 785.365 177.709 781.754 Q177.709 778.143 175.371 776.037 Q173.033 773.93 169.028 773.93 Q167.153 773.93 165.278 774.347 Q163.427 774.763 161.482 775.643 L161.482 758.282 Z" fill="#000000" fill-rule="evenodd" fill-opacity="1" /><path clip-path="url(#clip910)" d="M201.598 761.361 Q197.987 761.361 196.158 764.925 Q194.352 768.467 194.352 775.597 Q194.352 782.703 196.158 786.268 Q197.987 789.81 201.598 789.81 Q205.232 789.81 207.037 786.268 Q208.866 782.703 208.866 775.597 Q208.866 768.467 207.037 764.925 Q205.232 761.361 201.598 761.361 M201.598 757.657 Q207.408 757.657 210.463 762.263 Q213.542 766.847 213.542 775.597 Q213.542 784.324 210.463 788.93 Q207.408 793.513 201.598 793.513 Q195.787 793.513 192.709 788.93 Q189.653 784.324 189.653 775.597 Q189.653 766.847 192.709 762.263 Q195.787 757.657 201.598 757.657 Z" fill="#000000" fill-rule="evenodd" fill-opacity="1" /><path clip-path="url(#clip910)" d="M127.2 453.708 Q123.589 453.708 121.76 457.273 Q119.955 460.814 119.955 467.944 Q119.955 475.05 121.76 478.615 Q123.589 482.157 127.2 482.157 Q130.834 482.157 132.64 478.615 Q134.468 475.05 134.468 467.944 Q134.468 460.814 132.64 457.273 Q130.834 453.708 127.2 453.708 M127.2 450.004 Q133.01 450.004 136.066 454.611 Q139.144 459.194 139.144 467.944 Q139.144 476.671 136.066 481.277 Q133.01 485.86 127.2 485.86 Q121.39 485.86 118.311 481.277 Q115.256 476.671 115.256 467.944 Q115.256 459.194 118.311 454.611 Q121.39 450.004 127.2 450.004 Z" fill="#000000" fill-rule="evenodd" fill-opacity="1" /><path clip-path="url(#clip910)" d="M147.362 479.31 L152.246 479.31 L152.246 485.189 L147.362 485.189 L147.362 479.31 Z" fill="#000000" fill-rule="evenodd" fill-opacity="1" /><path clip-path="url(#clip910)" d="M161.251 450.629 L183.473 450.629 L183.473 452.62 L170.927 485.189 L166.042 485.189 L177.848 454.564 L161.251 454.564 L161.251 450.629 Z" fill="#000000" fill-rule="evenodd" fill-opacity="1" /><path clip-path="url(#clip910)" d="M192.639 450.629 L210.996 450.629 L210.996 454.564 L196.922 454.564 L196.922 463.036 Q197.94 462.689 198.959 462.527 Q199.977 462.342 200.996 462.342 Q206.783 462.342 210.162 465.513 Q213.542 468.685 213.542 474.101 Q213.542 479.68 210.07 482.782 Q206.598 485.86 200.278 485.86 Q198.102 485.86 195.834 485.49 Q193.588 485.12 191.181 484.379 L191.181 479.68 Q193.264 480.814 195.487 481.37 Q197.709 481.925 200.186 481.925 Q204.19 481.925 206.528 479.819 Q208.866 477.712 208.866 474.101 Q208.866 470.49 206.528 468.384 Q204.19 466.277 200.186 466.277 Q198.311 466.277 196.436 466.694 Q194.584 467.111 192.639 467.99 L192.639 450.629 Z" fill="#000000" fill-rule="evenodd" fill-opacity="1" /><path clip-path="url(#clip910)" d="M117.015 173.601 L124.654 173.601 L124.654 147.236 L116.343 148.902 L116.343 144.643 L124.607 142.976 L129.283 142.976 L129.283 173.601 L136.922 173.601 L136.922 177.536 L117.015 177.536 L117.015 173.601 Z" fill="#000000" fill-rule="evenodd" fill-opacity="1" /><path clip-path="url(#clip910)" d="M146.366 171.657 L151.251 171.657 L151.251 177.536 L146.366 177.536 L146.366 171.657 Z" fill="#000000" fill-rule="evenodd" fill-opacity="1" /><path clip-path="url(#clip910)" d="M171.436 146.055 Q167.825 146.055 165.996 149.62 Q164.19 153.161 164.19 160.291 Q164.19 167.397 165.996 170.962 Q167.825 174.504 171.436 174.504 Q175.07 174.504 176.876 170.962 Q178.704 167.397 178.704 160.291 Q178.704 153.161 176.876 149.62 Q175.07 146.055 171.436 146.055 M171.436 142.351 Q177.246 142.351 180.301 146.958 Q183.38 151.541 183.38 160.291 Q183.38 169.018 180.301 173.624 Q177.246 178.208 171.436 178.208 Q165.626 178.208 162.547 173.624 Q159.491 169.018 159.491 160.291 Q159.491 151.541 162.547 146.958 Q165.626 142.351 171.436 142.351 Z" fill="#000000" fill-rule="evenodd" fill-opacity="1" /><path clip-path="url(#clip910)" d="M201.598 146.055 Q197.987 146.055 196.158 149.62 Q194.352 153.161 194.352 160.291 Q194.352 167.397 196.158 170.962 Q197.987 174.504 201.598 174.504 Q205.232 174.504 207.037 170.962 Q208.866 167.397 208.866 160.291 Q208.866 153.161 207.037 149.62 Q205.232 146.055 201.598 146.055 M201.598 142.351 Q207.408 142.351 210.463 146.958 Q213.542 151.541 213.542 160.291 Q213.542 169.018 210.463 173.624 Q207.408 178.208 201.598 178.208 Q195.787 178.208 192.709 173.624 Q189.653 169.018 189.653 160.291 Q189.653 151.541 192.709 146.958 Q195.787 142.351 201.598 142.351 Z" fill="#000000" fill-rule="evenodd" fill-opacity="1" /><path clip-path="url(#clip910)" d="M16.4842 1297.53 L16.4842 1257.33 L21.895 1257.33 L21.895 1274.2 L64.0042 1274.2 L64.0042 1280.66 L21.895 1280.66 L21.895 1297.53 L16.4842 1297.53 Z" fill="#000000" fill-rule="evenodd" fill-opacity="1" /><path clip-path="url(#clip910)" d="M44.7161 1231.96 L47.5806 1231.96 L47.5806 1258.89 Q53.6281 1258.5 56.8109 1255.26 Q59.9619 1251.98 59.9619 1246.15 Q59.9619 1242.78 59.1344 1239.63 Q58.3069 1236.45 56.6518 1233.33 L62.1899 1233.33 Q63.5267 1236.48 64.227 1239.79 Q64.9272 1243.1 64.9272 1246.5 Q64.9272 1255.03 59.9619 1260.03 Q54.9967 1265 46.5303 1265 Q37.7774 1265 32.6531 1260.29 Q27.4968 1255.54 27.4968 1247.52 Q27.4968 1240.33 32.1438 1236.16 Q36.7589 1231.96 44.7161 1231.96 M42.9973 1237.82 Q38.1912 1237.88 35.3266 1240.52 Q32.4621 1243.13 32.4621 1247.46 Q32.4621 1252.36 35.2312 1255.32 Q38.0002 1258.25 43.0292 1258.7 L42.9973 1237.82 Z" fill="#000000" fill-rule="evenodd" fill-opacity="1" /><path clip-path="url(#clip910)" d="M35.1993 1194.59 Q31.2526 1192.4 29.3747 1189.34 Q27.4968 1186.29 27.4968 1182.15 Q27.4968 1176.58 31.4117 1173.55 Q35.2948 1170.53 42.4881 1170.53 L64.0042 1170.53 L64.0042 1176.42 L42.679 1176.42 Q37.5546 1176.42 35.072 1178.23 Q32.5894 1180.05 32.5894 1183.77 Q32.5894 1188.32 35.6131 1190.96 Q38.6368 1193.61 43.8567 1193.61 L64.0042 1193.61 L64.0042 1199.49 L42.679 1199.49 Q37.5228 1199.49 35.072 1201.31 Q32.5894 1203.12 32.5894 1206.91 Q32.5894 1211.4 35.6449 1214.04 Q38.6686 1216.68 43.8567 1216.68 L64.0042 1216.68 L64.0042 1222.57 L28.3562 1222.57 L28.3562 1216.68 L33.8944 1216.68 Q30.616 1214.68 29.0564 1211.88 Q27.4968 1209.07 27.4968 1205.22 Q27.4968 1201.34 29.4702 1198.63 Q31.4436 1195.9 35.1993 1194.59 Z" fill="#000000" fill-rule="evenodd" fill-opacity="1" /><path clip-path="url(#clip910)" d="M58.657 1153.18 L77.5631 1153.18 L77.5631 1159.07 L28.3562 1159.07 L28.3562 1153.18 L33.7671 1153.18 Q30.5842 1151.34 29.0564 1148.54 Q27.4968 1145.7 27.4968 1141.79 Q27.4968 1135.3 32.6531 1131.25 Q37.8093 1127.18 46.212 1127.18 Q54.6147 1127.18 59.771 1131.25 Q64.9272 1135.3 64.9272 1141.79 Q64.9272 1145.7 63.3994 1148.54 Q61.8398 1151.34 58.657 1153.18 M46.212 1133.26 Q39.7508 1133.26 36.0905 1135.93 Q32.3984 1138.57 32.3984 1143.22 Q32.3984 1147.87 36.0905 1150.54 Q39.7508 1153.18 46.212 1153.18 Q52.6732 1153.18 56.3653 1150.54 Q60.0256 1147.87 60.0256 1143.22 Q60.0256 1138.57 56.3653 1135.93 Q52.6732 1133.26 46.212 1133.26 Z" fill="#000000" fill-rule="evenodd" fill-opacity="1" /><path clip-path="url(#clip910)" d="M32.4621 1103.66 Q32.4621 1108.37 36.1542 1111.11 Q39.8145 1113.84 46.212 1113.84 Q52.6095 1113.84 56.3017 1111.14 Q59.9619 1108.4 59.9619 1103.66 Q59.9619 1098.98 56.2698 1096.24 Q52.5777 1093.51 46.212 1093.51 Q39.8781 1093.51 36.186 1096.24 Q32.4621 1098.98 32.4621 1103.66 M27.4968 1103.66 Q27.4968 1096.02 32.4621 1091.66 Q37.4273 1087.3 46.212 1087.3 Q54.9649 1087.3 59.9619 1091.66 Q64.9272 1096.02 64.9272 1103.66 Q64.9272 1111.33 59.9619 1115.69 Q54.9649 1120.02 46.212 1120.02 Q37.4273 1120.02 32.4621 1115.69 Q27.4968 1111.33 27.4968 1103.66 Z" fill="#000000" fill-rule="evenodd" fill-opacity="1" /><path clip-path="url(#clip910)" d="M33.8307 1056.93 Q33.2578 1057.92 33.0032 1059.1 Q32.7167 1060.24 32.7167 1061.64 Q32.7167 1066.61 35.9632 1069.28 Q39.1779 1071.93 45.2253 1071.93 L64.0042 1071.93 L64.0042 1077.81 L28.3562 1077.81 L28.3562 1071.93 L33.8944 1071.93 Q30.6479 1070.08 29.0883 1067.12 Q27.4968 1064.16 27.4968 1059.93 Q27.4968 1059.32 27.5923 1058.59 Q27.656 1057.86 27.8151 1056.97 L33.8307 1056.93 Z" fill="#000000" fill-rule="evenodd" fill-opacity="1" /><path clip-path="url(#clip910)" d="M46.0847 1034.59 Q46.0847 1041.69 47.7079 1044.43 Q49.3312 1047.16 53.2461 1047.16 Q56.3653 1047.16 58.2114 1045.13 Q60.0256 1043.06 60.0256 1039.52 Q60.0256 1034.65 56.5881 1031.73 Q53.1188 1028.77 47.3897 1028.77 L46.0847 1028.77 L46.0847 1034.59 M43.6657 1022.91 L64.0042 1022.91 L64.0042 1028.77 L58.5933 1028.77 Q61.8398 1030.77 63.3994 1033.76 Q64.9272 1036.75 64.9272 1041.08 Q64.9272 1046.56 61.8716 1049.8 Q58.7843 1053.02 53.6281 1053.02 Q47.6125 1053.02 44.5569 1049.01 Q41.5014 1044.97 41.5014 1036.98 L41.5014 1028.77 L40.9285 1028.77 Q36.8862 1028.77 34.6901 1031.44 Q32.4621 1034.08 32.4621 1038.89 Q32.4621 1041.94 33.1941 1044.84 Q33.9262 1047.74 35.3903 1050.41 L29.9795 1050.41 Q28.7381 1047.19 28.1334 1044.17 Q27.4968 1041.15 27.4968 1038.28 Q27.4968 1030.55 31.5072 1026.73 Q35.5176 1022.91 43.6657 1022.91 Z" fill="#000000" fill-rule="evenodd" fill-opacity="1" /><path clip-path="url(#clip910)" d="M14.479 1010.85 L14.479 1004.99 L64.0042 1004.99 L64.0042 1010.85 L14.479 1010.85 Z" fill="#000000" fill-rule="evenodd" fill-opacity="1" /><path clip-path="url(#clip910)" d="M20.1444 936.177 L26.9239 936.177 Q23.9002 939.423 22.4043 943.115 Q20.9083 946.776 20.9083 950.913 Q20.9083 959.061 25.9054 963.39 Q30.8707 967.719 40.2919 967.719 Q49.6813 967.719 54.6784 963.39 Q59.6436 959.061 59.6436 950.913 Q59.6436 946.776 58.1477 943.115 Q56.6518 939.423 53.6281 936.177 L60.3439 936.177 Q62.6355 939.55 63.7814 943.338 Q64.9272 947.094 64.9272 951.295 Q64.9272 962.085 58.3387 968.292 Q51.7183 974.498 40.2919 974.498 Q28.8336 974.498 22.2451 968.292 Q15.6248 962.085 15.6248 951.295 Q15.6248 947.03 16.7706 943.274 Q17.8846 939.487 20.1444 936.177 Z" fill="#000000" fill-rule="evenodd" fill-opacity="1" /><path clip-path="url(#clip910)" d="M32.4621 912.687 Q32.4621 917.398 36.1542 920.135 Q39.8145 922.872 46.212 922.872 Q52.6095 922.872 56.3017 920.167 Q59.9619 917.43 59.9619 912.687 Q59.9619 908.008 56.2698 905.271 Q52.5777 902.534 46.212 902.534 Q39.8781 902.534 36.186 905.271 Q32.4621 908.008 32.4621 912.687 M27.4968 912.687 Q27.4968 905.048 32.4621 900.688 Q37.4273 896.327 46.212 896.327 Q54.9649 896.327 59.9619 900.688 Q64.9272 905.048 64.9272 912.687 Q64.9272 920.358 59.9619 924.718 Q54.9649 929.047 46.212 929.047 Q37.4273 929.047 32.4621 924.718 Q27.4968 920.358 27.4968 912.687 Z" fill="#000000" fill-rule="evenodd" fill-opacity="1" /><path clip-path="url(#clip910)" d="M33.8307 865.963 Q33.2578 866.95 33.0032 868.127 Q32.7167 869.273 32.7167 870.674 Q32.7167 875.639 35.9632 878.312 Q39.1779 880.954 45.2253 880.954 L64.0042 880.954 L64.0042 886.842 L28.3562 886.842 L28.3562 880.954 L33.8944 880.954 Q30.6479 879.108 29.0883 876.148 Q27.4968 873.188 27.4968 868.955 Q27.4968 868.35 27.5923 867.618 Q27.656 866.886 27.8151 865.995 L33.8307 865.963 Z" fill="#000000" fill-rule="evenodd" fill-opacity="1" /><path clip-path="url(#clip910)" d="M33.8307 840.309 Q33.2578 841.296 33.0032 842.473 Q32.7167 843.619 32.7167 845.02 Q32.7167 849.985 35.9632 852.659 Q39.1779 855.3 45.2253 855.3 L64.0042 855.3 L64.0042 861.189 L28.3562 861.189 L28.3562 855.3 L33.8944 855.3 Q30.6479 853.454 29.0883 850.494 Q27.4968 847.534 27.4968 843.301 Q27.4968 842.696 27.5923 841.964 Q27.656 841.232 27.8151 840.341 L33.8307 840.309 Z" fill="#000000" fill-rule="evenodd" fill-opacity="1" /><path clip-path="url(#clip910)" d="M44.7161 805.107 L47.5806 805.107 L47.5806 832.034 Q53.6281 831.652 56.8109 828.405 Q59.9619 825.127 59.9619 819.302 Q59.9619 815.928 59.1344 812.777 Q58.3069 809.595 56.6518 806.475 L62.1899 806.475 Q63.5267 809.626 64.227 812.937 Q64.9272 816.247 64.9272 819.652 Q64.9272 828.182 59.9619 833.18 Q54.9967 838.145 46.5303 838.145 Q37.7774 838.145 32.6531 833.434 Q27.4968 828.692 27.4968 820.671 Q27.4968 813.478 32.1438 809.308 Q36.7589 805.107 44.7161 805.107 M42.9973 810.963 Q38.1912 811.027 35.3266 813.669 Q32.4621 816.279 32.4621 820.607 Q32.4621 825.509 35.2312 828.469 Q38.0002 831.397 43.0292 831.843 L42.9973 810.963 Z" fill="#000000" fill-rule="evenodd" fill-opacity="1" /><path clip-path="url(#clip910)" d="M14.479 795.495 L14.479 789.638 L64.0042 789.638 L64.0042 795.495 L14.479 795.495 Z" fill="#000000" fill-rule="evenodd" fill-opacity="1" /><path clip-path="url(#clip910)" d="M46.0847 761.183 Q46.0847 768.281 47.7079 771.018 Q49.3312 773.756 53.2461 773.756 Q56.3653 773.756 58.2114 771.719 Q60.0256 769.65 60.0256 766.117 Q60.0256 761.247 56.5881 758.319 Q53.1188 755.359 47.3897 755.359 L46.0847 755.359 L46.0847 761.183 M43.6657 749.502 L64.0042 749.502 L64.0042 755.359 L58.5933 755.359 Q61.8398 757.364 63.3994 760.356 Q64.9272 763.348 64.9272 767.676 Q64.9272 773.151 61.8716 776.397 Q58.7843 779.612 53.6281 779.612 Q47.6125 779.612 44.5569 775.602 Q41.5014 771.56 41.5014 763.571 L41.5014 755.359 L40.9285 755.359 Q36.8862 755.359 34.6901 758.032 Q32.4621 760.674 32.4621 765.48 Q32.4621 768.536 33.1941 771.432 Q33.9262 774.329 35.3903 777.002 L29.9795 777.002 Q28.7381 773.787 28.1334 770.764 Q27.4968 767.74 27.4968 764.876 Q27.4968 757.141 31.5072 753.322 Q35.5176 749.502 43.6657 749.502 Z" fill="#000000" fill-rule="evenodd" fill-opacity="1" /><path clip-path="url(#clip910)" d="M18.2347 731.647 L28.3562 731.647 L28.3562 719.584 L32.9077 719.584 L32.9077 731.647 L52.2594 731.647 Q56.6199 731.647 57.8613 730.469 Q59.1026 729.259 59.1026 725.599 L59.1026 719.584 L64.0042 719.584 L64.0042 725.599 Q64.0042 732.379 61.4897 734.957 Q58.9434 737.535 52.2594 737.535 L32.9077 737.535 L32.9077 741.832 L28.3562 741.832 L28.3562 737.535 L18.2347 737.535 L18.2347 731.647 Z" fill="#000000" fill-rule="evenodd" fill-opacity="1" /><path clip-path="url(#clip910)" d="M28.3562 711.881 L28.3562 706.025 L64.0042 706.025 L64.0042 711.881 L28.3562 711.881 M14.479 711.881 L14.479 706.025 L21.895 706.025 L21.895 711.881 L14.479 711.881 Z" fill="#000000" fill-rule="evenodd" fill-opacity="1" /><path clip-path="url(#clip910)" d="M32.4621 679.957 Q32.4621 684.668 36.1542 687.405 Q39.8145 690.142 46.212 690.142 Q52.6095 690.142 56.3017 687.437 Q59.9619 684.699 59.9619 679.957 Q59.9619 675.278 56.2698 672.541 Q52.5777 669.804 46.212 669.804 Q39.8781 669.804 36.186 672.541 Q32.4621 675.278 32.4621 679.957 M27.4968 679.957 Q27.4968 672.318 32.4621 667.958 Q37.4273 663.597 46.212 663.597 Q54.9649 663.597 59.9619 667.958 Q64.9272 672.318 64.9272 679.957 Q64.9272 687.628 59.9619 691.988 Q54.9649 696.317 46.212 696.317 Q37.4273 696.317 32.4621 691.988 Q27.4968 687.628 27.4968 679.957 Z" fill="#000000" fill-rule="evenodd" fill-opacity="1" /><path clip-path="url(#clip910)" d="M42.4881 624.257 L64.0042 624.257 L64.0042 630.113 L42.679 630.113 Q37.6183 630.113 35.1038 632.087 Q32.5894 634.06 32.5894 638.007 Q32.5894 642.749 35.6131 645.487 Q38.6368 648.224 43.8567 648.224 L64.0042 648.224 L64.0042 654.112 L28.3562 654.112 L28.3562 648.224 L33.8944 648.224 Q30.6797 646.123 29.0883 643.291 Q27.4968 640.426 27.4968 636.702 Q27.4968 630.559 31.3163 627.408 Q35.1038 624.257 42.4881 624.257 Z" fill="#000000" fill-rule="evenodd" fill-opacity="1" /><path clip-path="url(#clip910)" d="M20.1444 556.017 L26.9239 556.017 Q23.9002 559.263 22.4043 562.955 Q20.9083 566.616 20.9083 570.753 Q20.9083 578.901 25.9054 583.23 Q30.8707 587.559 40.2919 587.559 Q49.6813 587.559 54.6784 583.23 Q59.6436 578.901 59.6436 570.753 Q59.6436 566.616 58.1477 562.955 Q56.6518 559.263 53.6281 556.017 L60.3439 556.017 Q62.6355 559.39 63.7814 563.178 Q64.9272 566.934 64.9272 571.135 Q64.9272 581.925 58.3387 588.132 Q51.7183 594.338 40.2919 594.338 Q28.8336 594.338 22.2451 588.132 Q15.6248 581.925 15.6248 571.135 Q15.6248 566.87 16.7706 563.114 Q17.8846 559.327 20.1444 556.017 Z" fill="#000000" fill-rule="evenodd" fill-opacity="1" /><path clip-path="url(#clip910)" d="M32.4621 532.527 Q32.4621 537.238 36.1542 539.975 Q39.8145 542.712 46.212 542.712 Q52.6095 542.712 56.3017 540.007 Q59.9619 537.27 59.9619 532.527 Q59.9619 527.848 56.2698 525.111 Q52.5777 522.374 46.212 522.374 Q39.8781 522.374 36.186 525.111 Q32.4621 527.848 32.4621 532.527 M27.4968 532.527 Q27.4968 524.888 32.4621 520.528 Q37.4273 516.167 46.212 516.167 Q54.9649 516.167 59.9619 520.528 Q64.9272 524.888 64.9272 532.527 Q64.9272 540.198 59.9619 544.558 Q54.9649 548.887 46.212 548.887 Q37.4273 548.887 32.4621 544.558 Q27.4968 540.198 27.4968 532.527 Z" fill="#000000" fill-rule="evenodd" fill-opacity="1" /><path clip-path="url(#clip910)" d="M44.7161 475.968 L47.5806 475.968 L47.5806 502.895 Q53.6281 502.513 56.8109 499.266 Q59.9619 495.988 59.9619 490.163 Q59.9619 486.79 59.1344 483.639 Q58.3069 480.456 56.6518 477.337 L62.1899 477.337 Q63.5267 480.488 64.227 483.798 Q64.9272 487.108 64.9272 490.514 Q64.9272 499.044 59.9619 504.041 Q54.9967 509.006 46.5303 509.006 Q37.7774 509.006 32.6531 504.295 Q27.4968 499.553 27.4968 491.532 Q27.4968 484.339 32.1438 480.169 Q36.7589 475.968 44.7161 475.968 M42.9973 481.824 Q38.1912 481.888 35.3266 484.53 Q32.4621 487.14 32.4621 491.468 Q32.4621 496.37 35.2312 499.33 Q38.0002 502.258 43.0292 502.704 L42.9973 481.824 Z" fill="#000000" fill-rule="evenodd" fill-opacity="1" /><path clip-path="url(#clip910)" d="M14.479 448.309 L19.3487 448.309 L19.3487 453.911 Q19.3487 457.062 20.6219 458.303 Q21.895 459.513 25.2052 459.513 L28.3562 459.513 L28.3562 449.869 L32.9077 449.869 L32.9077 459.513 L64.0042 459.513 L64.0042 465.401 L32.9077 465.401 L32.9077 471.003 L28.3562 471.003 L28.3562 465.401 L25.8736 465.401 Q19.9216 465.401 17.2162 462.632 Q14.479 459.863 14.479 453.847 L14.479 448.309 Z" fill="#000000" fill-rule="evenodd" fill-opacity="1" /><path clip-path="url(#clip910)" d="M14.479 425.361 L19.3487 425.361 L19.3487 430.962 Q19.3487 434.113 20.6219 435.355 Q21.895 436.564 25.2052 436.564 L28.3562 436.564 L28.3562 426.92 L32.9077 426.92 L32.9077 436.564 L64.0042 436.564 L64.0042 442.452 L32.9077 442.452 L32.9077 448.054 L28.3562 448.054 L28.3562 442.452 L25.8736 442.452 Q19.9216 442.452 17.2162 439.683 Q14.479 436.914 14.479 430.899 L14.479 425.361 Z" fill="#000000" fill-rule="evenodd" fill-opacity="1" /><path clip-path="url(#clip910)" d="M28.3562 420.459 L28.3562 414.603 L64.0042 414.603 L64.0042 420.459 L28.3562 420.459 M14.479 420.459 L14.479 414.603 L21.895 414.603 L21.895 420.459 L14.479 420.459 Z" fill="#000000" fill-rule="evenodd" fill-opacity="1" /><path clip-path="url(#clip910)" d="M29.7248 376.695 L35.1993 376.695 Q33.8307 379.177 33.1623 381.692 Q32.4621 384.174 32.4621 386.721 Q32.4621 392.418 36.0905 395.569 Q39.6872 398.72 46.212 398.72 Q52.7369 398.72 56.3653 395.569 Q59.9619 392.418 59.9619 386.721 Q59.9619 384.174 59.2935 381.692 Q58.5933 379.177 57.2247 376.695 L62.6355 376.695 Q63.7814 379.146 64.3543 381.787 Q64.9272 384.397 64.9272 387.357 Q64.9272 395.41 59.8664 400.152 Q54.8057 404.895 46.212 404.895 Q37.491 404.895 32.4939 400.121 Q27.4968 395.314 27.4968 386.975 Q27.4968 384.27 28.0697 381.692 Q28.6108 379.114 29.7248 376.695 Z" fill="#000000" fill-rule="evenodd" fill-opacity="1" /><path clip-path="url(#clip910)" d="M28.3562 366.51 L28.3562 360.653 L64.0042 360.653 L64.0042 366.51 L28.3562 366.51 M14.479 366.51 L14.479 360.653 L21.895 360.653 L21.895 366.51 L14.479 366.51 Z" fill="#000000" fill-rule="evenodd" fill-opacity="1" /><path clip-path="url(#clip910)" d="M44.7161 317.907 L47.5806 317.907 L47.5806 344.834 Q53.6281 344.452 56.8109 341.206 Q59.9619 337.928 59.9619 332.103 Q59.9619 328.729 59.1344 325.578 Q58.3069 322.395 56.6518 319.276 L62.1899 319.276 Q63.5267 322.427 64.227 325.737 Q64.9272 329.047 64.9272 332.453 Q64.9272 340.983 59.9619 345.98 Q54.9967 350.945 46.5303 350.945 Q37.7774 350.945 32.6531 346.235 Q27.4968 341.492 27.4968 333.472 Q27.4968 326.278 32.1438 322.109 Q36.7589 317.907 44.7161 317.907 M42.9973 323.764 Q38.1912 323.828 35.3266 326.469 Q32.4621 329.079 32.4621 333.408 Q32.4621 338.31 35.2312 341.27 Q38.0002 344.198 43.0292 344.643 L42.9973 323.764 Z" fill="#000000" fill-rule="evenodd" fill-opacity="1" /><path clip-path="url(#clip910)" d="M42.4881 278.663 L64.0042 278.663 L64.0042 284.519 L42.679 284.519 Q37.6183 284.519 35.1038 286.493 Q32.5894 288.466 32.5894 292.413 Q32.5894 297.155 35.6131 299.892 Q38.6368 302.63 43.8567 302.63 L64.0042 302.63 L64.0042 308.518 L28.3562 308.518 L28.3562 302.63 L33.8944 302.63 Q30.6797 300.529 29.0883 297.696 Q27.4968 294.832 27.4968 291.108 Q27.4968 284.965 31.3163 281.814 Q35.1038 278.663 42.4881 278.663 Z" fill="#000000" fill-rule="evenodd" fill-opacity="1" /><path clip-path="url(#clip910)" d="M18.2347 261.189 L28.3562 261.189 L28.3562 249.126 L32.9077 249.126 L32.9077 261.189 L52.2594 261.189 Q56.6199 261.189 57.8613 260.011 Q59.1026 258.802 59.1026 255.142 L59.1026 249.126 L64.0042 249.126 L64.0042 255.142 Q64.0042 261.921 61.4897 264.499 Q58.9434 267.077 52.2594 267.077 L32.9077 267.077 L32.9077 271.374 L28.3562 271.374 L28.3562 267.077 L18.2347 267.077 L18.2347 261.189 Z" fill="#000000" fill-rule="evenodd" fill-opacity="1" /><path clip-path="url(#clip910)" d="M1116.18 39.9662 Q1122.06 41.222 1125.34 45.1919 Q1128.66 49.1618 1128.66 54.9951 Q1128.66 63.9476 1122.5 68.8492 Q1116.35 73.7508 1105 73.7508 Q1101.2 73.7508 1097.15 72.9811 Q1093.14 72.2519 1088.84 70.7531 L1088.84 62.8538 Q1092.24 64.8388 1096.29 65.8515 Q1100.35 66.8642 1104.76 66.8642 Q1112.46 66.8642 1116.47 63.826 Q1120.52 60.7879 1120.52 54.9951 Q1120.52 49.6479 1116.75 46.6502 Q1113.02 43.612 1106.34 43.612 L1099.29 43.612 L1099.29 36.8875 L1106.67 36.8875 Q1112.7 36.8875 1115.9 34.4975 Q1119.1 32.067 1119.1 27.5299 Q1119.1 22.8714 1115.78 20.4004 Q1112.5 17.8888 1106.34 17.8888 Q1102.98 17.8888 1099.13 18.618 Q1095.28 19.3471 1090.66 20.8865 L1090.66 13.5948 Q1095.32 12.2985 1099.37 11.6504 Q1103.46 11.0023 1107.07 11.0023 Q1116.39 11.0023 1121.82 15.2557 Q1127.24 19.4686 1127.24 26.6793 Q1127.24 31.7024 1124.37 35.1862 Q1121.49 38.6294 1116.18 39.9662 Z" fill="#000000" fill-rule="evenodd" fill-opacity="1" /><path clip-path="url(#clip910)" d="M1161.68 17.4837 Q1155.36 17.4837 1152.16 23.7221 Q1149 29.92 1149 42.3968 Q1149 54.833 1152.16 61.0714 Q1155.36 67.2693 1161.68 67.2693 Q1168.04 67.2693 1171.2 61.0714 Q1174.4 54.833 1174.4 42.3968 Q1174.4 29.92 1171.2 23.7221 Q1168.04 17.4837 1161.68 17.4837 M1161.68 11.0023 Q1171.84 11.0023 1177.19 19.0636 Q1182.58 27.0843 1182.58 42.3968 Q1182.58 57.6687 1177.19 65.73 Q1171.84 73.7508 1161.68 73.7508 Q1151.51 73.7508 1146.12 65.73 Q1140.77 57.6687 1140.77 42.3968 Q1140.77 27.0843 1146.12 19.0636 Q1151.51 11.0023 1161.68 11.0023 Z" fill="#000000" fill-rule="evenodd" fill-opacity="1" /><path clip-path="url(#clip910)" d="M1204.01 65.6895 L1232.57 65.6895 L1232.57 72.576 L1194.16 72.576 L1194.16 65.6895 Q1198.82 60.8689 1206.84 52.7671 Q1214.91 44.6248 1216.97 42.2752 Q1220.9 37.8598 1222.44 34.8216 Q1224.02 31.7429 1224.02 28.7857 Q1224.02 23.9651 1220.62 20.927 Q1217.25 17.8888 1211.83 17.8888 Q1207.98 17.8888 1203.68 19.2256 Q1199.43 20.5624 1194.57 23.2765 L1194.57 15.0127 Q1199.51 13.0277 1203.81 12.015 Q1208.1 11.0023 1211.66 11.0023 Q1221.06 11.0023 1226.65 15.7013 Q1232.24 20.4004 1232.24 28.2591 Q1232.24 31.9859 1230.83 35.3482 Q1229.45 38.6699 1225.76 43.2069 Q1224.75 44.3817 1219.32 50.0125 Q1213.89 55.6027 1204.01 65.6895 Z" fill="#000000" fill-rule="evenodd" fill-opacity="1" /><path clip-path="url(#clip910)" d="M1312.78 45.1919 L1312.78 72.576 L1305.32 72.576 L1305.32 45.4349 Q1305.32 38.994 1302.81 35.7938 Q1300.3 32.5936 1295.28 32.5936 Q1289.24 32.5936 1285.76 36.4419 Q1282.27 40.2903 1282.27 46.9338 L1282.27 72.576 L1274.78 72.576 L1274.78 27.2059 L1282.27 27.2059 L1282.27 34.2544 Q1284.95 30.163 1288.55 28.1376 Q1292.2 26.1121 1296.94 26.1121 Q1304.75 26.1121 1308.76 30.9732 Q1312.78 35.7938 1312.78 45.1919 Z" fill="#000000" fill-rule="evenodd" fill-opacity="1" /><path clip-path="url(#clip910)" d="M1345.22 32.4315 Q1339.23 32.4315 1335.74 37.1306 Q1332.26 41.7891 1332.26 49.9314 Q1332.26 58.0738 1335.7 62.7728 Q1339.19 67.4314 1345.22 67.4314 Q1351.18 67.4314 1354.66 62.7323 Q1358.15 58.0333 1358.15 49.9314 Q1358.15 41.8701 1354.66 37.1711 Q1351.18 32.4315 1345.22 32.4315 M1345.22 26.1121 Q1354.94 26.1121 1360.49 32.4315 Q1366.04 38.7509 1366.04 49.9314 Q1366.04 61.0714 1360.49 67.4314 Q1354.94 73.7508 1345.22 73.7508 Q1335.46 73.7508 1329.91 67.4314 Q1324.4 61.0714 1324.4 49.9314 Q1324.4 38.7509 1329.91 32.4315 Q1335.46 26.1121 1345.22 26.1121 Z" fill="#000000" fill-rule="evenodd" fill-opacity="1" /><path clip-path="url(#clip910)" d="M1408.25 34.0924 L1408.25 9.54393 L1415.71 9.54393 L1415.71 72.576 L1408.25 72.576 L1408.25 65.7705 Q1405.91 69.8214 1402.3 71.8063 Q1398.74 73.7508 1393.71 73.7508 Q1385.49 73.7508 1380.3 67.1883 Q1375.16 60.6258 1375.16 49.9314 Q1375.16 39.2371 1380.3 32.6746 Q1385.49 26.1121 1393.71 26.1121 Q1398.74 26.1121 1402.3 28.0971 Q1405.91 30.0415 1408.25 34.0924 M1382.86 49.9314 Q1382.86 58.1548 1386.22 62.8538 Q1389.62 67.5124 1395.54 67.5124 Q1401.45 67.5124 1404.85 62.8538 Q1408.25 58.1548 1408.25 49.9314 Q1408.25 41.7081 1404.85 37.0496 Q1401.45 32.3505 1395.54 32.3505 Q1389.62 32.3505 1386.22 37.0496 Q1382.86 41.7081 1382.86 49.9314 Z" fill="#000000" fill-rule="evenodd" fill-opacity="1" /><path clip-path="url(#clip910)" d="M1469.87 48.0275 L1469.87 51.6733 L1435.6 51.6733 Q1436.08 59.3701 1440.22 63.421 Q1444.39 67.4314 1451.8 67.4314 Q1456.1 67.4314 1460.11 66.3781 Q1464.16 65.3249 1468.13 63.2184 L1468.13 70.267 Q1464.12 71.9684 1459.9 72.8596 Q1455.69 73.7508 1451.36 73.7508 Q1440.5 73.7508 1434.14 67.4314 Q1427.82 61.1119 1427.82 50.3365 Q1427.82 39.1965 1433.82 32.6746 Q1439.85 26.1121 1450.06 26.1121 Q1459.22 26.1121 1464.52 32.0264 Q1469.87 37.9003 1469.87 48.0275 M1462.42 45.84 Q1462.33 39.7232 1458.97 36.0774 Q1455.65 32.4315 1450.14 32.4315 Q1443.9 32.4315 1440.14 35.9558 Q1436.41 39.4801 1435.84 45.8805 L1462.42 45.84 Z" fill="#000000" fill-rule="evenodd" fill-opacity="1" /><path clip-path="url(#clip910)" d="M1511.03 28.5427 L1511.03 35.5912 Q1507.87 33.9709 1504.46 33.1607 Q1501.06 32.3505 1497.42 32.3505 Q1491.87 32.3505 1489.07 34.0519 Q1486.32 35.7533 1486.32 39.156 Q1486.32 41.7486 1488.3 43.2475 Q1490.29 44.7058 1496.28 46.0426 L1498.83 46.6097 Q1506.77 48.3111 1510.09 51.4303 Q1513.46 54.509 1513.46 60.0587 Q1513.46 66.3781 1508.43 70.0644 Q1503.45 73.7508 1494.7 73.7508 Q1491.06 73.7508 1487.09 73.0216 Q1483.16 72.3329 1478.78 70.9151 L1478.78 63.2184 Q1482.91 65.3654 1486.92 66.4591 Q1490.93 67.5124 1494.86 67.5124 Q1500.13 67.5124 1502.97 65.73 Q1505.8 63.9071 1505.8 60.6258 Q1505.8 57.5877 1503.73 55.9673 Q1501.71 54.3469 1494.78 52.8481 L1492.19 52.2405 Q1485.26 50.7821 1482.18 47.7845 Q1479.11 44.7463 1479.11 39.4801 Q1479.11 33.0797 1483.64 29.5959 Q1488.18 26.1121 1496.52 26.1121 Q1500.66 26.1121 1504.3 26.7198 Q1507.95 27.3274 1511.03 28.5427 Z" fill="#000000" fill-rule="evenodd" fill-opacity="1" /><path clip-path="url(#clip912)" d="M2880.57 455.937 L2768.44 482.979 L2648.93 510.858 L2521.62 540.597 L2386 571.476 L2241.53 603.755 L2087.71 638.882 L1923.93 677.073 L1749.69 716.836 L1564.53 758.412 L1368.21 798.967 L1161.07 835.055 L944.651 857.904 L723.232 845.223 L507.423 814.151 L427.783 790.43 L356.289 731.183 L297.903 600.666 L260.07 351.084 L260.07 214.797 L297.903 375.662 L356.289 538.066 L427.783 655.988 L507.423 735.111 L723.232 794.413 L944.651 759.912 L1161.07 706.327 L1368.21 654.21 L1564.53 606.002 L1749.69 562.907 L1923.93 521.334 L2087.71 485.084 L2241.53 452.421 L2386 423.245 L2521.62 396.787 L2648.93 374.239 L2768.44 351.708 L2880.57 331.929  Z" fill="#377db8" fill-rule="evenodd" fill-opacity="0.35"/>
<polyline clip-path="url(#clip912)" style="stroke:#377db8; stroke-linecap:round; stroke-linejoin:round; stroke-width:0; stroke-opacity:1; fill:none" points="2880.57,455.937 2768.44,482.979 2648.93,510.858 2521.62,540.597 2386,571.476 2241.53,603.755 2087.71,638.882 1923.93,677.073 1749.69,716.836 1564.53,758.412 1368.21,798.967 1161.07,835.055 944.651,857.904 723.232,845.223 507.423,814.151 427.783,790.43 356.289,731.183 297.903,600.666 260.07,351.084 "/>
<path clip-path="url(#clip912)" d="M2880.57 634.718 L2768.44 681.258 L2648.93 726.03 L2521.62 774.706 L2386 824.306 L2241.53 877.456 L2087.71 932.918 L1923.93 989.496 L1749.69 1045.85 L1564.53 1104.27 L1368.21 1163.07 L1161.07 1219.13 L944.651 1272.61 L723.232 1319.51 L507.423 1357.34 L427.783 1369.01 L356.289 1378 L297.903 1383.63 L260.07 1386.4 L260.07 1383.73 L297.903 1370.23 L356.289 1347.21 L427.783 1317.81 L507.423 1284.3 L723.232 1194.06 L944.651 1100.72 L1161.07 1012.52 L1368.21 931.857 L1564.53 853.471 L1749.69 784.281 L1923.93 723.022 L2087.71 664.642 L2241.53 613.499 L2386 564.537 L2521.62 520.505 L2648.93 482.2 L2768.44 448.132 L2880.57 415.051  Z" fill="#f781be" fill-rule="evenodd" fill-opacity="0.35"/>
<polyline clip-path="url(#clip912)" style="stroke:#f781be; stroke-linecap:round; stroke-linejoin:round; stroke-width:0; stroke-opacity:1; fill:none" points="2880.57,634.718 2768.44,681.258 2648.93,726.03 2521.62,774.706 2386,824.306 2241.53,877.456 2087.71,932.918 1923.93,989.496 1749.69,1045.85 1564.53,1104.27 1368.21,1163.07 1161.07,1219.13 944.651,1272.61 723.232,1319.51 507.423,1357.34 427.783,1369.01 356.289,1378 297.903,1383.63 260.07,1386.4 "/>
<polyline clip-path="url(#clip912)" style="stroke:#f781be; stroke-linecap:round; stroke-linejoin:round; stroke-width:12; stroke-opacity:1; fill:none" points="2880.57,516.066 2768.44,554.127 2648.93,595.26 2521.62,642.023 2386,690.66 2241.53,742.326 2087.71,799.089 1923.93,857.521 1749.69,918.997 1564.53,983.847 1368.21,1050.9 1161.07,1122.67 944.651,1194.62 723.232,1264.28 507.423,1328.14 427.783,1349.11 356.289,1366.45 297.903,1379.08 260.07,1385.33 "/>
<path clip-path="url(#clip912)" d="M2880.56 561.009 L2768.45 595.462 L2648.91 631.746 L2521.6 667.864 L2385.99 706.572 L2241.5 749.068 L2087.7 791.228 L1923.93 836.307 L1749.68 883.212 L1564.47 930.721 L1368.17 977.711 L1161.05 1023.71 L944.611 1063.76 L723.227 1083.76 L507.456 1084.05 L427.768 1077.16 L356.309 1045.32 L297.912 910.765 L260.068 501.638 L260.068 236.916 L297.912 527.449 L356.309 797.537 L427.768 949.113 L507.456 1004.86 L723.227 1007.72 L944.611 937.257 L1161.05 864.142 L1368.17 800.2 L1564.47 739.495 L1749.68 681.606 L1923.93 631.845 L2087.7 585.506 L2241.5 542.941 L2385.99 504.267 L2521.6 469.04 L2648.91 437.546 L2768.45 407.782 L2880.56 381.204  Z" fill="#999999" fill-rule="evenodd" fill-opacity="0.35"/>
<polyline clip-path="url(#clip912)" style="stroke:#999999; stroke-linecap:round; stroke-linejoin:round; stroke-width:0; stroke-opacity:1; fill:none" points="2880.56,561.009 2768.45,595.462 2648.91,631.746 2521.6,667.864 2385.99,706.572 2241.5,749.068 2087.7,791.228 1923.93,836.307 1749.68,883.212 1564.47,930.721 1368.17,977.711 1161.05,1023.71 944.611,1063.76 723.227,1083.76 507.456,1084.05 427.768,1077.16 356.309,1045.32 297.912,910.765 260.068,501.638 "/>
<polyline clip-path="url(#clip912)" style="stroke:#999999; stroke-linecap:round; stroke-linejoin:round; stroke-width:12; stroke-opacity:1; fill:none" points="2880.56,466.912 2768.45,498.022 2648.91,531.563 2521.6,568.017 2385.99,606.089 2241.5,646.405 2087.7,691.627 1923.93,738.83 1749.68,787.958 1564.47,841.834 1368.17,895.48 1161.05,953.653 944.611,1011.1 723.227,1055.28 507.456,1050.63 427.768,1030.98 356.309,956.562 297.912,737.339 260.068,342.9 "/>
<path clip-path="url(#clip912)" d="M2901.62 269.972 L2787.22 276.17 L2670.33 280.794 L2543.9 285.643 L2400.96 289.029 L2256.92 293.504 L2110.55 299.028 L1934.16 307.063 L1766.26 313.494 L1579.2 323.042 L1384.89 337.995 L1193.69 353.772 L959.397 381.89 L740.527 424.379 L528.988 505.969 L438.617 573.951 L373.004 646.588 L305.421 754.45 L263.886 614.984 L263.886 612.238 L305.421 749.079 L373.004 642.978 L438.617 567.582 L528.988 503.902 L740.527 422.03 L959.397 377.584 L1193.69 350.753 L1384.89 333.817 L1579.2 322.335 L1766.26 311.003 L1934.16 304.863 L2110.55 297.788 L2256.92 292.813 L2400.96 287.58 L2543.9 283.973 L2670.33 279.587 L2787.22 274.544 L2901.62 267.842  Z" fill="#ff7e00" fill-rule="evenodd" fill-opacity="0.35"/>
<polyline clip-path="url(#clip912)" style="stroke:#ff7e00; stroke-linecap:round; stroke-linejoin:round; stroke-width:0; stroke-opacity:1; fill:none" points="2901.62,269.972 2787.22,276.17 2670.33,280.794 2543.9,285.643 2400.96,289.029 2256.92,293.504 2110.55,299.028 1934.16,307.063 1766.26,313.494 1579.2,323.042 1384.89,337.995 1193.69,353.772 959.397,381.89 740.527,424.379 528.988,505.969 438.617,573.951 373.004,646.588 305.421,754.45 263.886,614.984 "/>
<polyline clip-path="url(#clip912)" style="stroke:#ff7e00; stroke-linecap:round; stroke-linejoin:round; stroke-width:12; stroke-opacity:1; fill:none" points="2901.62,269.06 2787.22,275.843 2670.33,280.231 2543.9,284.995 2400.96,288.583 2256.92,293.148 2110.55,298.519 1934.16,306.022 1766.26,312.976 1579.2,322.682 1384.89,334.609 1193.69,351.334 959.397,380.279 740.527,422.941 528.988,504.453 438.617,569.703 373.004,645.151 305.421,751.442 263.886,614.022 "/>
<path clip-path="url(#clip912)" d="M249.542 160.256 L277.318 723.097 L356.429 618.958 L478.812 479.5 L641.062 401.298 L827.907 351.115 L1060.09 313.284 L1275.6 288.65 L1543 268.121 L1807.93 253.142 L2030.85 239.984 L2321.94 230.226 L2570.59 221.583 L2790.99 213.738 L2998.32 207.525 L3228.11 199.637 L3415.68 193.483 L3415.68 190.043 L3228.11 197.327 L2998.32 205.742 L2790.99 212.671 L2570.59 220.598 L2321.94 229.641 L2030.85 239.058 L1807.93 251.685 L1543 266.602 L1275.6 285.702 L1060.09 311.874 L827.907 346.228 L641.062 398.844 L478.812 475.828 L356.429 614.023 L277.318 715.611 L249.542 160.256  Z" fill="#4dae49" fill-rule="evenodd" fill-opacity="0.35"/>
<polyline clip-path="url(#clip912)" style="stroke:#4dae49; stroke-linecap:round; stroke-linejoin:round; stroke-width:0; stroke-opacity:1; fill:none" points="249.542,160.256 277.318,723.097 356.429,618.958 478.812,479.5 641.062,401.298 827.907,351.115 1060.09,313.284 1275.6,288.65 1543,268.121 1807.93,253.142 2030.85,239.984 2321.94,230.226 2570.59,221.583 2790.99,213.738 2998.32,207.525 3228.11,199.637 3415.68,193.483 "/>
<polyline clip-path="url(#clip912)" style="stroke:#4dae49; stroke-linecap:round; stroke-linejoin:round; stroke-width:12; stroke-opacity:1; fill:none" points="249.542,160.256 277.318,716.258 356.429,616.118 478.812,477.205 641.062,399.771 827.907,348.215 1060.09,312.232 1275.6,287.093 1543,267.081 1807.93,252.226 2030.85,239.667 2321.94,230.012 2570.59,221.032 2790.99,213.382 2998.32,206.676 3228.11,199.169 3415.68,191.512 "/>
<path clip-path="url(#clip912)" d="M3973.47 160.256 L2392.75 208 L2363.24 211.552 L2258.02 216.133 L2111.95 221.869 L2009.93 229.865 L1890.9 240.895 L1708.5 252.982 L1628.62 264.42 L1471.78 279.515 L1330.14 299.239 L1251.67 318.288 L1102.63 341.745 L1030.94 369.265 L923.945 400.066 L865.859 430.443 L759.316 470.301 L696.852 511.124 L636.233 544.692 L585.971 591.212 L538.604 626.104 L481.901 651.551 L456.434 692.997 L417.227 711.541 L392.817 734.749 L373.416 751.577 L355.164 747.796 L336.927 745.053 L320.214 733.862 L312.038 719.905 L298.066 694.167 L290.979 659.299 L282.036 629.915 L277.571 596.298 L270.011 526.982 L265.581 480.697 L265.723 483.994 L265.723 448.461 L265.581 448.88 L270.011 505.794 L277.571 565.293 L282.036 573.244 L290.979 626.955 L298.066 641.628 L312.038 694.207 L320.214 714.994 L336.927 729.721 L355.164 723.656 L373.416 731.745 L392.817 723.517 L417.227 702.936 L456.434 674.744 L481.901 646.264 L538.604 619.029 L585.971 579.344 L636.233 537.166 L696.852 504.636 L759.316 466.456 L865.859 425.856 L923.945 394.679 L1030.94 362.679 L1102.63 337.245 L1251.67 315.5 L1330.14 296.831 L1471.78 277.148 L1628.62 263.245 L1708.5 249.248 L1890.9 239.312 L2009.93 228.886 L2111.95 220.975 L2258.02 215.662 L2363.24 210.564 L2392.75 207.296 L3973.47 160.256  Z" fill="#974ea2" fill-rule="evenodd" fill-opacity="0.35"/>
<polyline clip-path="url(#clip912)" style="stroke:#974ea2; stroke-linecap:round; stroke-linejoin:round; stroke-width:0; stroke-opacity:1; fill:none" points="3973.47,160.256 2392.75,208 2363.24,211.552 2258.02,216.133 2111.95,221.869 2009.93,229.865 1890.9,240.895 1708.5,252.982 1628.62,264.42 1471.78,279.515 1330.14,299.239 1251.67,318.288 1102.63,341.745 1030.94,369.265 923.945,400.066 865.859,430.443 759.316,470.301 696.852,511.124 636.233,544.692 585.971,591.212 538.604,626.104 481.901,651.551 456.434,692.997 417.227,711.541 392.817,734.749 373.416,751.577 355.164,747.796 336.927,745.053 320.214,733.862 312.038,719.905 298.066,694.167 290.979,659.299 282.036,629.915 277.571,596.298 270.011,526.982 265.581,480.697 265.723,483.994 "/>
<polyline clip-path="url(#clip912)" style="stroke:#974ea2; stroke-linecap:round; stroke-linejoin:round; stroke-width:12; stroke-opacity:1; fill:none" points="3973.47,160.256 2392.75,207.58 2363.24,211.1 2258.02,215.909 2111.95,221.368 2009.93,229.201 1890.9,239.827 1708.5,251.869 1628.62,264.228 1471.78,278.622 1330.14,298.091 1251.67,317.06 1102.63,339.584 1030.94,365.414 923.945,396.864 865.859,427.423 759.316,468.467 696.852,506.051 636.233,541.424 585.971,581.719 538.604,621.53 481.901,649.316 456.434,679.913 417.227,708.963 392.817,725.751 373.416,741.778 355.164,733.513 336.927,741.554 320.214,722.263 312.038,699.589 298.066,668.338 290.979,646.519 282.036,592.609 277.571,568.112 270.011,522.339 265.581,473.757 265.723,465.709 "/>
<path clip-path="url(#clip912)" d="M3973.47 160.256 L2402.75 438.233 L2300.45 456.264 L2151.63 482.821 L1975.37 519.637 L1781.28 564.023 L1567.94 620.282 L1364.58 680.618 L1171.44 749.825 L1010.39 818.27 L868.358 888.825 L746.832 949.033 L646.133 1007.64 L562.722 1053.36 L502.059 1090.22 L445.844 1114.8 L403.963 1128.42 L370.843 1128.31 L343.674 1114.46 L322.811 1086.51 L307.669 1047.57 L294.702 997.596 L284.919 931.07 L277.238 861.337 L271.404 788.951 L266.255 702.764 L262.417 623.935 L259.639 558.6 L257.636 497.394 L255.596 433.757 L254.285 385.353 L253.291 346.555 L252.423 308.443 L251.782 278.659 L251.295 254.874 L250.881 235.092 L250.592 219.244 L250.592 214.965 L250.881 230.127 L251.295 250.698 L251.782 272.21 L252.423 301.28 L253.291 338.72 L254.285 375.828 L255.596 425.614 L257.636 491.148 L259.639 547.565 L262.417 619.919 L266.255 694.033 L271.404 774.387 L277.238 854.083 L284.919 922.472 L294.702 988.177 L307.669 1042.29 L322.811 1082.66 L343.674 1113.29 L370.843 1126.57 L403.963 1126.27 L445.844 1112.64 L502.059 1087.09 L562.722 1051.07 L646.133 1002.4 L746.832 946.764 L868.358 885.34 L1010.39 812.841 L1171.44 746.279 L1364.58 678.128 L1567.94 617.244 L1781.28 561.05 L1975.37 517.704 L2151.63 481.035 L2300.45 453.706 L2402.75 436.726 L3973.47 160.256  Z" fill="#e31a1c" fill-rule="evenodd" fill-opacity="0.35"/>
<polyline clip-path="url(#clip912)" style="stroke:#e31a1c; stroke-linecap:round; stroke-linejoin:round; stroke-width:0; stroke-opacity:1; fill:none" points="3973.47,160.256 2402.75,438.233 2300.45,456.264 2151.63,482.821 1975.37,519.637 1781.28,564.023 1567.94,620.282 1364.58,680.618 1171.44,749.825 1010.39,818.27 868.358,888.825 746.832,949.033 646.133,1007.64 562.722,1053.36 502.059,1090.22 445.844,1114.8 403.963,1128.42 370.843,1128.31 343.674,1114.46 322.811,1086.51 307.669,1047.57 294.702,997.596 284.919,931.07 277.238,861.337 271.404,788.951 266.255,702.764 262.417,623.935 259.639,558.6 257.636,497.394 255.596,433.757 254.285,385.353 253.291,346.555 252.423,308.443 251.782,278.659 251.295,254.874 250.881,235.092 250.592,219.244 "/>
<polyline clip-path="url(#clip912)" style="stroke:#e31a1c; stroke-linecap:round; stroke-linejoin:round; stroke-width:12; stroke-opacity:1; fill:none" points="3973.47,160.256 2402.75,437.566 2300.45,455.124 2151.63,481.55 1975.37,519.268 1781.28,562.554 1567.94,618.919 1364.58,679.017 1171.44,749.411 1010.39,815.06 868.358,886.53 746.832,947.637 646.133,1006.57 562.722,1052.49 502.059,1088.09 445.844,1113.76 403.963,1126.89 370.843,1127.69 343.674,1113.9 322.811,1084.88 307.669,1046.88 294.702,993.375 284.919,925.349 277.238,858.367 271.404,784.822 266.255,699.154 262.417,623.012 259.639,552.538 257.636,494.314 255.596,428.352 254.285,383.596 253.291,339.897 252.423,303.865 251.782,275.099 251.295,252.415 250.881,230.723 250.592,217.966 "/>
<polyline clip-path="url(#clip912)" style="stroke:#377db8; stroke-linecap:round; stroke-linejoin:round; stroke-width:12; stroke-opacity:1; fill:none" points="2880.57,390.863 2768.44,414.881 2648.93,439.492 2521.62,467.554 2386,496.022 2241.53,528.513 2087.71,562.115 1923.93,599.739 1749.69,641.002 1564.53,684.463 1368.21,730.132 1161.07,775.656 944.651,815.137 723.232,824.046 507.423,779.882 427.783,732.294 356.289,638.399 297.903,482.507 260.07,271.75 "/>
</svg>
