<?xml version="1.0" encoding="utf-8"?>
<svg xmlns="http://www.w3.org/2000/svg" xmlns:xlink="http://www.w3.org/1999/xlink" width="600" height="400" viewBox="0 0 2400 1600">
<defs>
  <clipPath id="clip950">
    <rect x="0" y="0" width="2400" height="1600"/>
  </clipPath>
</defs>
<path clip-path="url(#clip950)" d="M0 1600 L2400 1600 L2400 0 L0 0  Z" fill="#ffffff" fill-rule="evenodd" fill-opacity="1"/>
<defs>
  <clipPath id="clip951">
    <rect x="480" y="0" width="1681" height="1600"/>
  </clipPath>
</defs>
<path clip-path="url(#clip950)" d="M249.542 1423.18 L2352.76 1423.18 L2352.76 123.472 L249.542 123.472  Z" fill="#ffffff" fill-rule="evenodd" fill-opacity="1"/>
<defs>
  <clipPath id="clip952">
    <rect x="249" y="123" width="2104" height="1301"/>
  </clipPath>
</defs>
<polyline clip-path="url(#clip950)" style="stroke:#000000; stroke-linecap:round; stroke-linejoin:round; stroke-width:4; stroke-opacity:1; fill:none" points="249.542,1423.18 2352.76,1423.18 "/>
<polyline clip-path="url(#clip950)" style="stroke:#000000; stroke-linecap:round; stroke-linejoin:round; stroke-width:4; stroke-opacity:1; fill:none" points="249.542,1423.18 249.542,1404.28 "/>
<polyline clip-path="url(#clip950)" style="stroke:#000000; stroke-linecap:round; stroke-linejoin:round; stroke-width:4; stroke-opacity:1; fill:none" points="868.134,1423.18 868.134,1404.28 "/>
<polyline clip-path="url(#clip950)" style="stroke:#000000; stroke-linecap:round; stroke-linejoin:round; stroke-width:4; stroke-opacity:1; fill:none" points="1486.73,1423.18 1486.73,1404.28 "/>
<polyline clip-path="url(#clip950)" style="stroke:#000000; stroke-linecap:round; stroke-linejoin:round; stroke-width:4; stroke-opacity:1; fill:none" points="2105.32,1423.18 2105.32,1404.28 "/>
<path clip-path="url(#clip950)" d="M249.542 1454.1 Q245.931 1454.1 244.102 1457.66 Q242.297 1461.2 242.297 1468.33 Q242.297 1475.44 244.102 1479.01 Q245.931 1482.55 249.542 1482.55 Q253.176 1482.55 254.982 1479.01 Q256.811 1475.44 256.811 1468.33 Q256.811 1461.2 254.982 1457.66 Q253.176 1454.1 249.542 1454.1 M249.542 1450.39 Q255.352 1450.39 258.408 1455 Q261.486 1459.58 261.486 1468.33 Q261.486 1477.06 258.408 1481.67 Q255.352 1486.25 249.542 1486.25 Q243.732 1486.25 240.653 1481.67 Q237.598 1477.06 237.598 1468.33 Q237.598 1459.58 240.653 1455 Q243.732 1450.39 249.542 1450.39 Z" fill="#000000" fill-rule="evenodd" fill-opacity="1" /><path clip-path="url(#clip950)" d="M842.834 1451.02 L861.19 1451.02 L861.19 1454.96 L847.116 1454.96 L847.116 1463.43 Q848.134 1463.08 849.153 1462.92 Q850.171 1462.73 851.19 1462.73 Q856.977 1462.73 860.357 1465.9 Q863.736 1469.08 863.736 1474.49 Q863.736 1480.07 860.264 1483.17 Q856.792 1486.25 850.472 1486.25 Q848.296 1486.25 846.028 1485.88 Q843.783 1485.51 841.375 1484.77 L841.375 1480.07 Q843.459 1481.2 845.681 1481.76 Q847.903 1482.32 850.38 1482.32 Q854.384 1482.32 856.722 1480.21 Q859.06 1478.1 859.06 1474.49 Q859.06 1470.88 856.722 1468.77 Q854.384 1466.67 850.38 1466.67 Q848.505 1466.67 846.63 1467.08 Q844.778 1467.5 842.834 1468.38 L842.834 1451.02 Z" fill="#000000" fill-rule="evenodd" fill-opacity="1" /><path clip-path="url(#clip950)" d="M882.949 1454.1 Q879.338 1454.1 877.509 1457.66 Q875.704 1461.2 875.704 1468.33 Q875.704 1475.44 877.509 1479.01 Q879.338 1482.55 882.949 1482.55 Q886.583 1482.55 888.389 1479.01 Q890.218 1475.44 890.218 1468.33 Q890.218 1461.2 888.389 1457.66 Q886.583 1454.1 882.949 1454.1 M882.949 1450.39 Q888.759 1450.39 891.815 1455 Q894.893 1459.58 894.893 1468.33 Q894.893 1477.06 891.815 1481.67 Q888.759 1486.25 882.949 1486.25 Q877.139 1486.25 874.06 1481.67 Q871.005 1477.06 871.005 1468.33 Q871.005 1459.58 874.06 1455 Q877.139 1450.39 882.949 1450.39 Z" fill="#000000" fill-rule="evenodd" fill-opacity="1" /><path clip-path="url(#clip950)" d="M1446.33 1481.64 L1453.97 1481.64 L1453.97 1455.28 L1445.66 1456.95 L1445.66 1452.69 L1453.93 1451.02 L1458.6 1451.02 L1458.6 1481.64 L1466.24 1481.64 L1466.24 1485.58 L1446.33 1485.58 L1446.33 1481.64 Z" fill="#000000" fill-rule="evenodd" fill-opacity="1" /><path clip-path="url(#clip950)" d="M1485.69 1454.1 Q1482.07 1454.1 1480.25 1457.66 Q1478.44 1461.2 1478.44 1468.33 Q1478.44 1475.44 1480.25 1479.01 Q1482.07 1482.55 1485.69 1482.55 Q1489.32 1482.55 1491.12 1479.01 Q1492.95 1475.44 1492.95 1468.33 Q1492.95 1461.2 1491.12 1457.66 Q1489.32 1454.1 1485.69 1454.1 M1485.69 1450.39 Q1491.5 1450.39 1494.55 1455 Q1497.63 1459.58 1497.63 1468.33 Q1497.63 1477.06 1494.55 1481.67 Q1491.5 1486.25 1485.69 1486.25 Q1479.87 1486.25 1476.8 1481.67 Q1473.74 1477.06 1473.74 1468.33 Q1473.74 1459.58 1476.8 1455 Q1479.87 1450.39 1485.69 1450.39 Z" fill="#000000" fill-rule="evenodd" fill-opacity="1" /><path clip-path="url(#clip950)" d="M1515.85 1454.1 Q1512.24 1454.1 1510.41 1457.66 Q1508.6 1461.2 1508.6 1468.33 Q1508.6 1475.44 1510.41 1479.01 Q1512.24 1482.55 1515.85 1482.55 Q1519.48 1482.55 1521.29 1479.01 Q1523.12 1475.44 1523.12 1468.33 Q1523.12 1461.2 1521.29 1457.66 Q1519.48 1454.1 1515.85 1454.1 M1515.85 1450.39 Q1521.66 1450.39 1524.71 1455 Q1527.79 1459.58 1527.79 1468.33 Q1527.79 1477.06 1524.71 1481.67 Q1521.66 1486.25 1515.85 1486.25 Q1510.04 1486.25 1506.96 1481.67 Q1503.9 1477.06 1503.9 1468.33 Q1503.9 1459.58 1506.96 1455 Q1510.04 1450.39 1515.85 1450.39 Z" fill="#000000" fill-rule="evenodd" fill-opacity="1" /><path clip-path="url(#clip950)" d="M2064.93 1481.64 L2072.56 1481.64 L2072.56 1455.28 L2064.25 1456.95 L2064.25 1452.69 L2072.52 1451.02 L2077.19 1451.02 L2077.19 1481.64 L2084.83 1481.64 L2084.83 1485.58 L2064.93 1485.58 L2064.93 1481.64 Z" fill="#000000" fill-rule="evenodd" fill-opacity="1" /><path clip-path="url(#clip950)" d="M2094.32 1451.02 L2112.68 1451.02 L2112.68 1454.96 L2098.61 1454.96 L2098.61 1463.43 Q2099.62 1463.08 2100.64 1462.92 Q2101.66 1462.73 2102.68 1462.73 Q2108.47 1462.73 2111.85 1465.9 Q2115.23 1469.08 2115.23 1474.49 Q2115.23 1480.07 2111.75 1483.17 Q2108.28 1486.25 2101.96 1486.25 Q2099.79 1486.25 2097.52 1485.88 Q2095.27 1485.51 2092.87 1484.77 L2092.87 1480.07 Q2094.95 1481.2 2097.17 1481.76 Q2099.39 1482.32 2101.87 1482.32 Q2105.87 1482.32 2108.21 1480.21 Q2110.55 1478.1 2110.55 1474.49 Q2110.55 1470.88 2108.21 1468.77 Q2105.87 1466.67 2101.87 1466.67 Q2099.99 1466.67 2098.12 1467.08 Q2096.27 1467.5 2094.32 1468.38 L2094.32 1451.02 Z" fill="#000000" fill-rule="evenodd" fill-opacity="1" /><path clip-path="url(#clip950)" d="M2134.44 1454.1 Q2130.83 1454.1 2129 1457.66 Q2127.19 1461.2 2127.19 1468.33 Q2127.19 1475.44 2129 1479.01 Q2130.83 1482.55 2134.44 1482.55 Q2138.07 1482.55 2139.88 1479.01 Q2141.71 1475.44 2141.71 1468.33 Q2141.71 1461.2 2139.88 1457.66 Q2138.07 1454.1 2134.44 1454.1 M2134.44 1450.39 Q2140.25 1450.39 2143.3 1455 Q2146.38 1459.58 2146.38 1468.33 Q2146.38 1477.06 2143.3 1481.67 Q2140.25 1486.25 2134.44 1486.25 Q2128.63 1486.25 2125.55 1481.67 Q2122.49 1477.06 2122.49 1468.33 Q2122.49 1459.58 2125.55 1455 Q2128.63 1450.39 2134.44 1450.39 Z" fill="#000000" fill-rule="evenodd" fill-opacity="1" /><path clip-path="url(#clip950)" d="M1066.49 1526.86 L1057.77 1550.51 L1075.25 1550.51 L1066.49 1526.86 M1062.86 1520.52 L1070.15 1520.52 L1088.26 1568.04 L1081.58 1568.04 L1077.25 1555.85 L1055.83 1555.85 L1051.5 1568.04 L1044.72 1568.04 L1062.86 1520.52 Z" fill="#000000" fill-rule="evenodd" fill-opacity="1" /><path clip-path="url(#clip950)" d="M1086.93 1532.4 L1093.13 1532.4 L1104.27 1562.31 L1115.41 1532.4 L1121.62 1532.4 L1108.25 1568.04 L1100.3 1568.04 L1086.93 1532.4 Z" fill="#000000" fill-rule="evenodd" fill-opacity="1" /><path clip-path="url(#clip950)" d="M1160.2 1548.76 L1160.2 1551.62 L1133.27 1551.62 Q1133.65 1557.67 1136.9 1560.85 Q1140.18 1564 1146 1564 Q1149.37 1564 1152.53 1563.17 Q1155.71 1562.35 1158.83 1560.69 L1158.83 1566.23 Q1155.68 1567.57 1152.37 1568.27 Q1149.06 1568.97 1145.65 1568.97 Q1137.12 1568.97 1132.12 1564 Q1127.16 1559.04 1127.16 1550.57 Q1127.16 1541.82 1131.87 1536.69 Q1136.61 1531.54 1144.63 1531.54 Q1151.83 1531.54 1155.99 1536.18 Q1160.2 1540.8 1160.2 1548.76 M1154.34 1547.04 Q1154.28 1542.23 1151.63 1539.37 Q1149.02 1536.5 1144.7 1536.5 Q1139.79 1536.5 1136.83 1539.27 Q1133.91 1542.04 1133.46 1547.07 L1154.34 1547.04 Z" fill="#000000" fill-rule="evenodd" fill-opacity="1" /><path clip-path="url(#clip950)" d="M1190.47 1537.87 Q1189.48 1537.3 1188.3 1537.04 Q1187.16 1536.76 1185.75 1536.76 Q1180.79 1536.76 1178.12 1540 Q1175.47 1543.22 1175.47 1549.27 L1175.47 1568.04 L1169.59 1568.04 L1169.59 1532.4 L1175.47 1532.4 L1175.47 1537.93 Q1177.32 1534.69 1180.28 1533.13 Q1183.24 1531.54 1187.47 1531.54 Q1188.08 1531.54 1188.81 1531.63 Q1189.54 1531.7 1190.43 1531.85 L1190.47 1537.87 Z" fill="#000000" fill-rule="evenodd" fill-opacity="1" /><path clip-path="url(#clip950)" d="M1212.81 1550.12 Q1205.71 1550.12 1202.97 1551.75 Q1200.24 1553.37 1200.24 1557.29 Q1200.24 1560.4 1202.27 1562.25 Q1204.34 1564.07 1207.88 1564.07 Q1212.75 1564.07 1215.67 1560.63 Q1218.63 1557.16 1218.63 1551.43 L1218.63 1550.12 L1212.81 1550.12 M1224.49 1547.71 L1224.49 1568.04 L1218.63 1568.04 L1218.63 1562.63 Q1216.63 1565.88 1213.64 1567.44 Q1210.64 1568.97 1206.32 1568.97 Q1200.84 1568.97 1197.59 1565.91 Q1194.38 1562.82 1194.38 1557.67 Q1194.38 1551.65 1198.39 1548.6 Q1202.43 1545.54 1210.42 1545.54 L1218.63 1545.54 L1218.63 1544.97 Q1218.63 1540.93 1215.96 1538.73 Q1213.32 1536.5 1208.51 1536.5 Q1205.46 1536.5 1202.56 1537.23 Q1199.66 1537.97 1196.99 1539.43 L1196.99 1534.02 Q1200.2 1532.78 1203.23 1532.17 Q1206.25 1531.54 1209.12 1531.54 Q1216.85 1531.54 1220.67 1535.55 Q1224.49 1539.56 1224.49 1547.71 Z" fill="#000000" fill-rule="evenodd" fill-opacity="1" /><path clip-path="url(#clip950)" d="M1260.01 1549.81 Q1260.01 1543.44 1257.37 1539.94 Q1254.76 1536.44 1250.02 1536.44 Q1245.31 1536.44 1242.66 1539.94 Q1240.05 1543.44 1240.05 1549.81 Q1240.05 1556.14 1242.66 1559.64 Q1245.31 1563.14 1250.02 1563.14 Q1254.76 1563.14 1257.37 1559.64 Q1260.01 1556.14 1260.01 1549.81 M1265.87 1563.62 Q1265.87 1572.72 1261.82 1577.15 Q1257.78 1581.6 1249.44 1581.6 Q1246.36 1581.6 1243.62 1581.13 Q1240.88 1580.68 1238.3 1579.72 L1238.3 1574.03 Q1240.88 1575.43 1243.4 1576.1 Q1245.91 1576.76 1248.52 1576.76 Q1254.28 1576.76 1257.15 1573.74 Q1260.01 1570.75 1260.01 1564.67 L1260.01 1561.77 Q1258.2 1564.92 1255.36 1566.48 Q1252.53 1568.04 1248.58 1568.04 Q1242.03 1568.04 1238.02 1563.05 Q1234.01 1558.05 1234.01 1549.81 Q1234.01 1541.53 1238.02 1536.53 Q1242.03 1531.54 1248.58 1531.54 Q1252.53 1531.54 1255.36 1533.1 Q1258.2 1534.66 1260.01 1537.81 L1260.01 1532.4 L1265.87 1532.4 L1265.87 1563.62 Z" fill="#000000" fill-rule="evenodd" fill-opacity="1" /><path clip-path="url(#clip950)" d="M1308.42 1548.76 L1308.42 1551.62 L1281.49 1551.62 Q1281.88 1557.67 1285.12 1560.85 Q1288.4 1564 1294.23 1564 Q1297.6 1564 1300.75 1563.17 Q1303.93 1562.35 1307.05 1560.69 L1307.05 1566.23 Q1303.9 1567.57 1300.59 1568.27 Q1297.28 1568.97 1293.88 1568.97 Q1285.35 1568.97 1280.35 1564 Q1275.38 1559.04 1275.38 1550.57 Q1275.38 1541.82 1280.09 1536.69 Q1284.84 1531.54 1292.86 1531.54 Q1300.05 1531.54 1304.22 1536.18 Q1308.42 1540.8 1308.42 1548.76 M1302.57 1547.04 Q1302.5 1542.23 1299.86 1539.37 Q1297.25 1536.5 1292.92 1536.5 Q1288.02 1536.5 1285.06 1539.27 Q1282.13 1542.04 1281.69 1547.07 L1302.57 1547.04 Z" fill="#000000" fill-rule="evenodd" fill-opacity="1" /><path clip-path="url(#clip950)" d="M1362.21 1537.81 L1362.21 1518.52 L1368.07 1518.52 L1368.07 1568.04 L1362.21 1568.04 L1362.21 1562.7 Q1360.37 1565.88 1357.53 1567.44 Q1354.73 1568.97 1350.79 1568.97 Q1344.32 1568.97 1340.25 1563.81 Q1336.21 1558.65 1336.21 1550.25 Q1336.21 1541.85 1340.25 1536.69 Q1344.32 1531.54 1350.79 1531.54 Q1354.73 1531.54 1357.53 1533.1 Q1360.37 1534.62 1362.21 1537.81 M1342.26 1550.25 Q1342.26 1556.71 1344.9 1560.4 Q1347.57 1564.07 1352.22 1564.07 Q1356.86 1564.07 1359.54 1560.4 Q1362.21 1556.71 1362.21 1550.25 Q1362.21 1543.79 1359.54 1540.13 Q1356.86 1536.44 1352.22 1536.44 Q1347.57 1536.44 1344.9 1540.13 Q1342.26 1543.79 1342.26 1550.25 Z" fill="#000000" fill-rule="evenodd" fill-opacity="1" /><path clip-path="url(#clip950)" d="M1410.62 1548.76 L1410.62 1551.62 L1383.7 1551.62 Q1384.08 1557.67 1387.32 1560.85 Q1390.6 1564 1396.43 1564 Q1399.8 1564 1402.95 1563.17 Q1406.14 1562.35 1409.25 1560.69 L1409.25 1566.23 Q1406.1 1567.57 1402.79 1568.27 Q1399.48 1568.97 1396.08 1568.97 Q1387.55 1568.97 1382.55 1564 Q1377.59 1559.04 1377.59 1550.57 Q1377.59 1541.82 1382.3 1536.69 Q1387.04 1531.54 1395.06 1531.54 Q1402.25 1531.54 1406.42 1536.18 Q1410.62 1540.8 1410.62 1548.76 M1404.77 1547.04 Q1404.7 1542.23 1402.06 1539.37 Q1399.45 1536.5 1395.12 1536.5 Q1390.22 1536.5 1387.26 1539.27 Q1384.33 1542.04 1383.89 1547.07 L1404.77 1547.04 Z" fill="#000000" fill-rule="evenodd" fill-opacity="1" /><path clip-path="url(#clip950)" d="M1443.69 1549.81 Q1443.69 1543.44 1441.05 1539.94 Q1438.44 1536.44 1433.7 1536.44 Q1428.99 1536.44 1426.35 1539.94 Q1423.74 1543.44 1423.74 1549.81 Q1423.74 1556.14 1426.35 1559.64 Q1428.99 1563.14 1433.7 1563.14 Q1438.44 1563.14 1441.05 1559.64 Q1443.69 1556.14 1443.69 1549.81 M1449.55 1563.62 Q1449.55 1572.72 1445.51 1577.15 Q1441.47 1581.6 1433.13 1581.6 Q1430.04 1581.6 1427.3 1581.13 Q1424.56 1580.68 1421.99 1579.72 L1421.99 1574.03 Q1424.56 1575.43 1427.08 1576.1 Q1429.59 1576.76 1432.2 1576.76 Q1437.96 1576.76 1440.83 1573.74 Q1443.69 1570.75 1443.69 1564.67 L1443.69 1561.77 Q1441.88 1564.92 1439.05 1566.48 Q1436.21 1568.04 1432.27 1568.04 Q1425.71 1568.04 1421.7 1563.05 Q1417.69 1558.05 1417.69 1549.81 Q1417.69 1541.53 1421.7 1536.53 Q1425.71 1531.54 1432.27 1531.54 Q1436.21 1531.54 1439.05 1533.1 Q1441.88 1534.66 1443.69 1537.81 L1443.69 1532.4 L1449.55 1532.4 L1449.55 1563.62 Z" fill="#000000" fill-rule="evenodd" fill-opacity="1" /><path clip-path="url(#clip950)" d="M1482.27 1537.87 Q1481.28 1537.3 1480.1 1537.04 Q1478.96 1536.76 1477.56 1536.76 Q1472.59 1536.76 1469.92 1540 Q1467.28 1543.22 1467.28 1549.27 L1467.28 1568.04 L1461.39 1568.04 L1461.39 1532.4 L1467.28 1532.4 L1467.28 1537.93 Q1469.12 1534.69 1472.08 1533.13 Q1475.04 1531.54 1479.28 1531.54 Q1479.88 1531.54 1480.61 1531.63 Q1481.35 1531.7 1482.24 1531.85 L1482.27 1537.87 Z" fill="#000000" fill-rule="evenodd" fill-opacity="1" /><path clip-path="url(#clip950)" d="M1517.47 1548.76 L1517.47 1551.62 L1490.54 1551.62 Q1490.93 1557.67 1494.17 1560.85 Q1497.45 1564 1503.28 1564 Q1506.65 1564 1509.8 1563.17 Q1512.98 1562.35 1516.1 1560.69 L1516.1 1566.23 Q1512.95 1567.57 1509.64 1568.27 Q1506.33 1568.97 1502.93 1568.97 Q1494.4 1568.97 1489.4 1564 Q1484.43 1559.04 1484.43 1550.57 Q1484.43 1541.82 1489.14 1536.69 Q1493.89 1531.54 1501.91 1531.54 Q1509.1 1531.54 1513.27 1536.18 Q1517.47 1540.8 1517.47 1548.76 M1511.62 1547.04 Q1511.55 1542.23 1508.91 1539.37 Q1506.3 1536.5 1501.97 1536.5 Q1497.07 1536.5 1494.11 1539.27 Q1491.18 1542.04 1490.74 1547.07 L1511.62 1547.04 Z" fill="#000000" fill-rule="evenodd" fill-opacity="1" /><path clip-path="url(#clip950)" d="M1557.58 1548.76 L1557.58 1551.62 L1530.65 1551.62 Q1531.03 1557.67 1534.28 1560.85 Q1537.56 1564 1543.38 1564 Q1546.75 1564 1549.9 1563.17 Q1553.09 1562.35 1556.21 1560.69 L1556.21 1566.23 Q1553.06 1567.57 1549.75 1568.27 Q1546.44 1568.97 1543.03 1568.97 Q1534.5 1568.97 1529.5 1564 Q1524.54 1559.04 1524.54 1550.57 Q1524.54 1541.82 1529.25 1536.69 Q1533.99 1531.54 1542.01 1531.54 Q1549.2 1531.54 1553.37 1536.18 Q1557.58 1540.8 1557.58 1548.76 M1551.72 1547.04 Q1551.66 1542.23 1549.01 1539.37 Q1546.4 1536.5 1542.08 1536.5 Q1537.17 1536.5 1534.21 1539.27 Q1531.29 1542.04 1530.84 1547.07 L1551.72 1547.04 Z" fill="#000000" fill-rule="evenodd" fill-opacity="1" /><polyline clip-path="url(#clip950)" style="stroke:#000000; stroke-linecap:round; stroke-linejoin:round; stroke-width:4; stroke-opacity:1; fill:none" points="249.542,1423.18 249.542,123.472 "/>
<polyline clip-path="url(#clip950)" style="stroke:#000000; stroke-linecap:round; stroke-linejoin:round; stroke-width:4; stroke-opacity:1; fill:none" points="249.542,1386.4 268.44,1386.4 "/>
<polyline clip-path="url(#clip950)" style="stroke:#000000; stroke-linecap:round; stroke-linejoin:round; stroke-width:4; stroke-opacity:1; fill:none" points="249.542,1079.86 268.44,1079.86 "/>
<polyline clip-path="url(#clip950)" style="stroke:#000000; stroke-linecap:round; stroke-linejoin:round; stroke-width:4; stroke-opacity:1; fill:none" points="249.542,773.326 268.44,773.326 "/>
<polyline clip-path="url(#clip950)" style="stroke:#000000; stroke-linecap:round; stroke-linejoin:round; stroke-width:4; stroke-opacity:1; fill:none" points="249.542,466.791 268.44,466.791 "/>
<polyline clip-path="url(#clip950)" style="stroke:#000000; stroke-linecap:round; stroke-linejoin:round; stroke-width:4; stroke-opacity:1; fill:none" points="249.542,160.256 268.44,160.256 "/>
<path clip-path="url(#clip950)" d="M126.205 1372.19 Q122.593 1372.19 120.765 1375.76 Q118.959 1379.3 118.959 1386.43 Q118.959 1393.54 120.765 1397.1 Q122.593 1400.64 126.205 1400.64 Q129.839 1400.64 131.644 1397.1 Q133.473 1393.54 133.473 1386.43 Q133.473 1379.3 131.644 1375.76 Q129.839 1372.19 126.205 1372.19 M126.205 1368.49 Q132.015 1368.49 135.07 1373.1 Q138.149 1377.68 138.149 1386.43 Q138.149 1395.16 135.07 1399.76 Q132.015 1404.35 126.205 1404.35 Q120.394 1404.35 117.316 1399.76 Q114.26 1395.16 114.26 1386.43 Q114.26 1377.68 117.316 1373.1 Q120.394 1368.49 126.205 1368.49 Z" fill="#000000" fill-rule="evenodd" fill-opacity="1" /><path clip-path="url(#clip950)" d="M146.366 1397.8 L151.251 1397.8 L151.251 1403.68 L146.366 1403.68 L146.366 1397.8 Z" fill="#000000" fill-rule="evenodd" fill-opacity="1" /><path clip-path="url(#clip950)" d="M171.436 1372.19 Q167.825 1372.19 165.996 1375.76 Q164.19 1379.3 164.19 1386.43 Q164.19 1393.54 165.996 1397.1 Q167.825 1400.64 171.436 1400.64 Q175.07 1400.64 176.876 1397.1 Q178.704 1393.54 178.704 1386.43 Q178.704 1379.3 176.876 1375.76 Q175.07 1372.19 171.436 1372.19 M171.436 1368.49 Q177.246 1368.49 180.301 1373.1 Q183.38 1377.68 183.38 1386.43 Q183.38 1395.16 180.301 1399.76 Q177.246 1404.35 171.436 1404.35 Q165.626 1404.35 162.547 1399.76 Q159.491 1395.16 159.491 1386.43 Q159.491 1377.68 162.547 1373.1 Q165.626 1368.49 171.436 1368.49 Z" fill="#000000" fill-rule="evenodd" fill-opacity="1" /><path clip-path="url(#clip950)" d="M201.598 1372.19 Q197.987 1372.19 196.158 1375.76 Q194.352 1379.3 194.352 1386.43 Q194.352 1393.54 196.158 1397.1 Q197.987 1400.64 201.598 1400.64 Q205.232 1400.64 207.037 1397.1 Q208.866 1393.54 208.866 1386.43 Q208.866 1379.3 207.037 1375.76 Q205.232 1372.19 201.598 1372.19 M201.598 1368.49 Q207.408 1368.49 210.463 1373.1 Q213.542 1377.68 213.542 1386.43 Q213.542 1395.16 210.463 1399.76 Q207.408 1404.35 201.598 1404.35 Q195.787 1404.35 192.709 1399.76 Q189.653 1395.16 189.653 1386.43 Q189.653 1377.68 192.709 1373.1 Q195.787 1368.49 201.598 1368.49 Z" fill="#000000" fill-rule="evenodd" fill-opacity="1" /><path clip-path="url(#clip950)" d="M127.2 1065.66 Q123.589 1065.66 121.76 1069.22 Q119.955 1072.77 119.955 1079.9 Q119.955 1087 121.76 1090.57 Q123.589 1094.11 127.2 1094.11 Q130.834 1094.11 132.64 1090.57 Q134.468 1087 134.468 1079.9 Q134.468 1072.77 132.64 1069.22 Q130.834 1065.66 127.2 1065.66 M127.2 1061.96 Q133.01 1061.96 136.066 1066.56 Q139.144 1071.15 139.144 1079.9 Q139.144 1088.62 136.066 1093.23 Q133.01 1097.81 127.2 1097.81 Q121.39 1097.81 118.311 1093.23 Q115.256 1088.62 115.256 1079.9 Q115.256 1071.15 118.311 1066.56 Q121.39 1061.96 127.2 1061.96 Z" fill="#000000" fill-rule="evenodd" fill-opacity="1" /><path clip-path="url(#clip950)" d="M147.362 1091.26 L152.246 1091.26 L152.246 1097.14 L147.362 1097.14 L147.362 1091.26 Z" fill="#000000" fill-rule="evenodd" fill-opacity="1" /><path clip-path="url(#clip950)" d="M166.459 1093.21 L182.778 1093.21 L182.778 1097.14 L160.834 1097.14 L160.834 1093.21 Q163.496 1090.45 168.079 1085.82 Q172.686 1081.17 173.866 1079.83 Q176.112 1077.3 176.991 1075.57 Q177.894 1073.81 177.894 1072.12 Q177.894 1069.36 175.95 1067.63 Q174.028 1065.89 170.927 1065.89 Q168.727 1065.89 166.274 1066.65 Q163.843 1067.42 161.065 1068.97 L161.065 1064.25 Q163.89 1063.11 166.343 1062.53 Q168.797 1061.96 170.834 1061.96 Q176.204 1061.96 179.399 1064.64 Q182.593 1067.33 182.593 1071.82 Q182.593 1073.95 181.783 1075.87 Q180.996 1077.77 178.889 1080.36 Q178.311 1081.03 175.209 1084.25 Q172.107 1087.44 166.459 1093.21 Z" fill="#000000" fill-rule="evenodd" fill-opacity="1" /><path clip-path="url(#clip950)" d="M192.639 1062.58 L210.996 1062.58 L210.996 1066.52 L196.922 1066.52 L196.922 1074.99 Q197.94 1074.64 198.959 1074.48 Q199.977 1074.29 200.996 1074.29 Q206.783 1074.29 210.162 1077.47 Q213.542 1080.64 213.542 1086.05 Q213.542 1091.63 210.07 1094.73 Q206.598 1097.81 200.278 1097.81 Q198.102 1097.81 195.834 1097.44 Q193.588 1097.07 191.181 1096.33 L191.181 1091.63 Q193.264 1092.77 195.487 1093.32 Q197.709 1093.88 200.186 1093.88 Q204.19 1093.88 206.528 1091.77 Q208.866 1089.66 208.866 1086.05 Q208.866 1082.44 206.528 1080.34 Q204.19 1078.23 200.186 1078.23 Q198.311 1078.23 196.436 1078.65 Q194.584 1079.06 192.639 1079.94 L192.639 1062.58 Z" fill="#000000" fill-rule="evenodd" fill-opacity="1" /><path clip-path="url(#clip950)" d="M126.205 759.125 Q122.593 759.125 120.765 762.689 Q118.959 766.231 118.959 773.361 Q118.959 780.467 120.765 784.032 Q122.593 787.574 126.205 787.574 Q129.839 787.574 131.644 784.032 Q133.473 780.467 133.473 773.361 Q133.473 766.231 131.644 762.689 Q129.839 759.125 126.205 759.125 M126.205 755.421 Q132.015 755.421 135.07 760.027 Q138.149 764.611 138.149 773.361 Q138.149 782.088 135.07 786.694 Q132.015 791.277 126.205 791.277 Q120.394 791.277 117.316 786.694 Q114.26 782.088 114.26 773.361 Q114.26 764.611 117.316 760.027 Q120.394 755.421 126.205 755.421 Z" fill="#000000" fill-rule="evenodd" fill-opacity="1" /><path clip-path="url(#clip950)" d="M146.366 784.726 L151.251 784.726 L151.251 790.606 L146.366 790.606 L146.366 784.726 Z" fill="#000000" fill-rule="evenodd" fill-opacity="1" /><path clip-path="url(#clip950)" d="M161.482 756.046 L179.839 756.046 L179.839 759.981 L165.765 759.981 L165.765 768.453 Q166.783 768.106 167.802 767.944 Q168.82 767.759 169.839 767.759 Q175.626 767.759 179.005 770.93 Q182.385 774.101 182.385 779.518 Q182.385 785.097 178.913 788.199 Q175.44 791.277 169.121 791.277 Q166.945 791.277 164.677 790.907 Q162.431 790.537 160.024 789.796 L160.024 785.097 Q162.107 786.231 164.329 786.787 Q166.552 787.342 169.028 787.342 Q173.033 787.342 175.371 785.236 Q177.709 783.129 177.709 779.518 Q177.709 775.907 175.371 773.801 Q173.033 771.694 169.028 771.694 Q167.153 771.694 165.278 772.111 Q163.427 772.527 161.482 773.407 L161.482 756.046 Z" fill="#000000" fill-rule="evenodd" fill-opacity="1" /><path clip-path="url(#clip950)" d="M201.598 759.125 Q197.987 759.125 196.158 762.689 Q194.352 766.231 194.352 773.361 Q194.352 780.467 196.158 784.032 Q197.987 787.574 201.598 787.574 Q205.232 787.574 207.037 784.032 Q208.866 780.467 208.866 773.361 Q208.866 766.231 207.037 762.689 Q205.232 759.125 201.598 759.125 M201.598 755.421 Q207.408 755.421 210.463 760.027 Q213.542 764.611 213.542 773.361 Q213.542 782.088 210.463 786.694 Q207.408 791.277 201.598 791.277 Q195.787 791.277 192.709 786.694 Q189.653 782.088 189.653 773.361 Q189.653 764.611 192.709 760.027 Q195.787 755.421 201.598 755.421 Z" fill="#000000" fill-rule="evenodd" fill-opacity="1" /><path clip-path="url(#clip950)" d="M127.2 452.59 Q123.589 452.59 121.76 456.155 Q119.955 459.696 119.955 466.826 Q119.955 473.932 121.76 477.497 Q123.589 481.039 127.2 481.039 Q130.834 481.039 132.64 477.497 Q134.468 473.932 134.468 466.826 Q134.468 459.696 132.64 456.155 Q130.834 452.59 127.2 452.59 M127.2 448.886 Q133.01 448.886 136.066 453.493 Q139.144 458.076 139.144 466.826 Q139.144 475.553 136.066 480.159 Q133.01 484.742 127.2 484.742 Q121.39 484.742 118.311 480.159 Q115.256 475.553 115.256 466.826 Q115.256 458.076 118.311 453.493 Q121.39 448.886 127.2 448.886 Z" fill="#000000" fill-rule="evenodd" fill-opacity="1" /><path clip-path="url(#clip950)" d="M147.362 478.192 L152.246 478.192 L152.246 484.071 L147.362 484.071 L147.362 478.192 Z" fill="#000000" fill-rule="evenodd" fill-opacity="1" /><path clip-path="url(#clip950)" d="M161.251 449.511 L183.473 449.511 L183.473 451.502 L170.927 484.071 L166.042 484.071 L177.848 453.446 L161.251 453.446 L161.251 449.511 Z" fill="#000000" fill-rule="evenodd" fill-opacity="1" /><path clip-path="url(#clip950)" d="M192.639 449.511 L210.996 449.511 L210.996 453.446 L196.922 453.446 L196.922 461.918 Q197.94 461.571 198.959 461.409 Q199.977 461.224 200.996 461.224 Q206.783 461.224 210.162 464.395 Q213.542 467.567 213.542 472.983 Q213.542 478.562 210.07 481.664 Q206.598 484.742 200.278 484.742 Q198.102 484.742 195.834 484.372 Q193.588 484.002 191.181 483.261 L191.181 478.562 Q193.264 479.696 195.487 480.252 Q197.709 480.807 200.186 480.807 Q204.19 480.807 206.528 478.701 Q208.866 476.594 208.866 472.983 Q208.866 469.372 206.528 467.266 Q204.19 465.159 200.186 465.159 Q198.311 465.159 196.436 465.576 Q194.584 465.993 192.639 466.872 L192.639 449.511 Z" fill="#000000" fill-rule="evenodd" fill-opacity="1" /><path clip-path="url(#clip950)" d="M117.015 173.601 L124.654 173.601 L124.654 147.236 L116.343 148.902 L116.343 144.643 L124.607 142.976 L129.283 142.976 L129.283 173.601 L136.922 173.601 L136.922 177.536 L117.015 177.536 L117.015 173.601 Z" fill="#000000" fill-rule="evenodd" fill-opacity="1" /><path clip-path="url(#clip950)" d="M146.366 171.657 L151.251 171.657 L151.251 177.536 L146.366 177.536 L146.366 171.657 Z" fill="#000000" fill-rule="evenodd" fill-opacity="1" /><path clip-path="url(#clip950)" d="M171.436 146.055 Q167.825 146.055 165.996 149.62 Q164.19 153.161 164.19 160.291 Q164.19 167.397 165.996 170.962 Q167.825 174.504 171.436 174.504 Q175.07 174.504 176.876 170.962 Q178.704 167.397 178.704 160.291 Q178.704 153.161 176.876 149.62 Q175.07 146.055 171.436 146.055 M171.436 142.351 Q177.246 142.351 180.301 146.958 Q183.38 151.541 183.38 160.291 Q183.38 169.018 180.301 173.624 Q177.246 178.208 171.436 178.208 Q165.626 178.208 162.547 173.624 Q159.491 169.018 159.491 160.291 Q159.491 151.541 162.547 146.958 Q165.626 142.351 171.436 142.351 Z" fill="#000000" fill-rule="evenodd" fill-opacity="1" /><path clip-path="url(#clip950)" d="M201.598 146.055 Q197.987 146.055 196.158 149.62 Q194.352 153.161 194.352 160.291 Q194.352 167.397 196.158 170.962 Q197.987 174.504 201.598 174.504 Q205.232 174.504 207.037 170.962 Q208.866 167.397 208.866 160.291 Q208.866 153.161 207.037 149.62 Q205.232 146.055 201.598 146.055 M201.598 142.351 Q207.408 142.351 210.463 146.958 Q213.542 151.541 213.542 160.291 Q213.542 169.018 210.463 173.624 Q207.408 178.208 201.598 178.208 Q195.787 178.208 192.709 173.624 Q189.653 169.018 189.653 160.291 Q189.653 151.541 192.709 146.958 Q195.787 142.351 201.598 142.351 Z" fill="#000000" fill-rule="evenodd" fill-opacity="1" /><path clip-path="url(#clip950)" d="M16.4842 1096.13 L16.4842 1055.93 L21.895 1055.93 L21.895 1072.8 L64.0042 1072.8 L64.0042 1079.26 L21.895 1079.26 L21.895 1096.13 L16.4842 1096.13 Z" fill="#000000" fill-rule="evenodd" fill-opacity="1" /><path clip-path="url(#clip950)" d="M44.7161 1030.56 L47.5806 1030.56 L47.5806 1057.49 Q53.6281 1057.11 56.8109 1053.86 Q59.9619 1050.58 59.9619 1044.76 Q59.9619 1041.39 59.1344 1038.23 Q58.3069 1035.05 56.6518 1031.93 L62.1899 1031.93 Q63.5267 1035.08 64.227 1038.39 Q64.9272 1041.7 64.9272 1045.11 Q64.9272 1053.64 59.9619 1058.64 Q54.9967 1063.6 46.5303 1063.6 Q37.7774 1063.6 32.6531 1058.89 Q27.4968 1054.15 27.4968 1046.13 Q27.4968 1038.94 32.1438 1034.77 Q36.7589 1030.56 44.7161 1030.56 M42.9973 1036.42 Q38.1912 1036.48 35.3266 1039.13 Q32.4621 1041.74 32.4621 1046.06 Q32.4621 1050.97 35.2312 1053.93 Q38.0002 1056.85 43.0292 1057.3 L42.9973 1036.42 Z" fill="#000000" fill-rule="evenodd" fill-opacity="1" /><path clip-path="url(#clip950)" d="M35.1993 993.197 Q31.2526 991.001 29.3747 987.946 Q27.4968 984.89 27.4968 980.753 Q27.4968 975.183 31.4117 972.159 Q35.2948 969.135 42.4881 969.135 L64.0042 969.135 L64.0042 975.023 L42.679 975.023 Q37.5546 975.023 35.072 976.838 Q32.5894 978.652 32.5894 982.376 Q32.5894 986.927 35.6131 989.569 Q38.6368 992.211 43.8567 992.211 L64.0042 992.211 L64.0042 998.099 L42.679 998.099 Q37.5228 998.099 35.072 999.913 Q32.5894 1001.73 32.5894 1005.52 Q32.5894 1010 35.6449 1012.64 Q38.6686 1015.29 43.8567 1015.29 L64.0042 1015.29 L64.0042 1021.17 L28.3562 1021.17 L28.3562 1015.29 L33.8944 1015.29 Q30.616 1013.28 29.0564 1010.48 Q27.4968 1007.68 27.4968 1003.83 Q27.4968 999.945 29.4702 997.24 Q31.4436 994.502 35.1993 993.197 Z" fill="#000000" fill-rule="evenodd" fill-opacity="1" /><path clip-path="url(#clip950)" d="M58.657 951.789 L77.5631 951.789 L77.5631 957.677 L28.3562 957.677 L28.3562 951.789 L33.7671 951.789 Q30.5842 949.943 29.0564 947.142 Q27.4968 944.309 27.4968 940.394 Q27.4968 933.901 32.6531 929.859 Q37.8093 925.785 46.212 925.785 Q54.6147 925.785 59.771 929.859 Q64.9272 933.901 64.9272 940.394 Q64.9272 944.309 63.3994 947.142 Q61.8398 949.943 58.657 951.789 M46.212 931.864 Q39.7508 931.864 36.0905 934.538 Q32.3984 937.179 32.3984 941.826 Q32.3984 946.473 36.0905 949.147 Q39.7508 951.789 46.212 951.789 Q52.6732 951.789 56.3653 949.147 Q60.0256 946.473 60.0256 941.826 Q60.0256 937.179 56.3653 934.538 Q52.6732 931.864 46.212 931.864 Z" fill="#000000" fill-rule="evenodd" fill-opacity="1" /><path clip-path="url(#clip950)" d="M32.4621 902.263 Q32.4621 906.974 36.1542 909.711 Q39.8145 912.449 46.212 912.449 Q52.6095 912.449 56.3017 909.743 Q59.9619 907.006 59.9619 902.263 Q59.9619 897.585 56.2698 894.847 Q52.5777 892.11 46.212 892.11 Q39.8781 892.11 36.186 894.847 Q32.4621 897.585 32.4621 902.263 M27.4968 902.263 Q27.4968 894.625 32.4621 890.264 Q37.4273 885.904 46.212 885.904 Q54.9649 885.904 59.9619 890.264 Q64.9272 894.625 64.9272 902.263 Q64.9272 909.934 59.9619 914.295 Q54.9649 918.623 46.212 918.623 Q37.4273 918.623 32.4621 914.295 Q27.4968 909.934 27.4968 902.263 Z" fill="#000000" fill-rule="evenodd" fill-opacity="1" /><path clip-path="url(#clip950)" d="M33.8307 855.539 Q33.2578 856.526 33.0032 857.703 Q32.7167 858.849 32.7167 860.25 Q32.7167 865.215 35.9632 867.889 Q39.1779 870.53 45.2253 870.53 L64.0042 870.53 L64.0042 876.419 L28.3562 876.419 L28.3562 870.53 L33.8944 870.53 Q30.6479 868.684 29.0883 865.724 Q27.4968 862.764 27.4968 858.531 Q27.4968 857.926 27.5923 857.194 Q27.656 856.462 27.8151 855.571 L33.8307 855.539 Z" fill="#000000" fill-rule="evenodd" fill-opacity="1" /><path clip-path="url(#clip950)" d="M46.0847 833.195 Q46.0847 840.293 47.7079 843.03 Q49.3312 845.768 53.2461 845.768 Q56.3653 845.768 58.2114 843.731 Q60.0256 841.662 60.0256 838.129 Q60.0256 833.259 56.5881 830.331 Q53.1188 827.371 47.3897 827.371 L46.0847 827.371 L46.0847 833.195 M43.6657 821.514 L64.0042 821.514 L64.0042 827.371 L58.5933 827.371 Q61.8398 829.376 63.3994 832.368 Q64.9272 835.36 64.9272 839.688 Q64.9272 845.163 61.8716 848.409 Q58.7843 851.624 53.6281 851.624 Q47.6125 851.624 44.5569 847.614 Q41.5014 843.572 41.5014 835.583 L41.5014 827.371 L40.9285 827.371 Q36.8862 827.371 34.6901 830.044 Q32.4621 832.686 32.4621 837.492 Q32.4621 840.548 33.1941 843.444 Q33.9262 846.341 35.3903 849.014 L29.9795 849.014 Q28.7381 845.8 28.1334 842.776 Q27.4968 839.752 27.4968 836.888 Q27.4968 829.153 31.5072 825.334 Q35.5176 821.514 43.6657 821.514 Z" fill="#000000" fill-rule="evenodd" fill-opacity="1" /><path clip-path="url(#clip950)" d="M14.479 809.451 L14.479 803.595 L64.0042 803.595 L64.0042 809.451 L14.479 809.451 Z" fill="#000000" fill-rule="evenodd" fill-opacity="1" /><path clip-path="url(#clip950)" d="M20.1444 734.782 L26.9239 734.782 Q23.9002 738.028 22.4043 741.72 Q20.9083 745.381 20.9083 749.518 Q20.9083 757.666 25.9054 761.995 Q30.8707 766.324 40.2919 766.324 Q49.6813 766.324 54.6784 761.995 Q59.6436 757.666 59.6436 749.518 Q59.6436 745.381 58.1477 741.72 Q56.6518 738.028 53.6281 734.782 L60.3439 734.782 Q62.6355 738.155 63.7814 741.943 Q64.9272 745.699 64.9272 749.9 Q64.9272 760.69 58.3387 766.897 Q51.7183 773.103 40.2919 773.103 Q28.8336 773.103 22.2451 766.897 Q15.6248 760.69 15.6248 749.9 Q15.6248 745.635 16.7706 741.879 Q17.8846 738.092 20.1444 734.782 Z" fill="#000000" fill-rule="evenodd" fill-opacity="1" /><path clip-path="url(#clip950)" d="M14.479 725.106 L14.479 719.249 L64.0042 719.249 L64.0042 725.106 L14.479 725.106 Z" fill="#000000" fill-rule="evenodd" fill-opacity="1" /><path clip-path="url(#clip950)" d="M49.9359 707.6 L28.3562 707.6 L28.3562 701.744 L49.7131 701.744 Q54.7739 701.744 57.3202 699.77 Q59.8346 697.797 59.8346 693.85 Q59.8346 689.108 56.8109 686.37 Q53.7872 683.601 48.5673 683.601 L28.3562 683.601 L28.3562 677.745 L64.0042 677.745 L64.0042 683.601 L58.5296 683.601 Q61.7762 685.734 63.3676 688.567 Q64.9272 691.368 64.9272 695.091 Q64.9272 701.234 61.1078 704.417 Q57.2883 707.6 49.9359 707.6 M27.4968 692.863 L27.4968 692.863 Z" fill="#000000" fill-rule="evenodd" fill-opacity="1" /><path clip-path="url(#clip950)" d="M29.4065 642.956 L34.9447 642.956 Q33.6716 645.439 33.035 648.113 Q32.3984 650.786 32.3984 653.651 Q32.3984 658.011 33.7352 660.207 Q35.072 662.372 37.7456 662.372 Q39.7826 662.372 40.9603 660.812 Q42.1061 659.253 43.1565 654.542 L43.6021 652.537 Q44.9389 646.298 47.3897 643.688 Q49.8086 641.047 54.1691 641.047 Q59.1344 641.047 62.0308 644.993 Q64.9272 648.908 64.9272 655.783 Q64.9272 658.648 64.3543 661.767 Q63.8132 664.854 62.6992 668.292 L56.6518 668.292 Q58.3387 665.045 59.198 661.894 Q60.0256 658.743 60.0256 655.656 Q60.0256 651.518 58.6251 649.29 Q57.1929 647.062 54.6147 647.062 Q52.2276 647.062 50.9545 648.685 Q49.6813 650.277 48.5037 655.72 L48.0262 657.757 Q46.8804 663.199 44.5251 665.618 Q42.138 668.037 38.0002 668.037 Q32.9713 668.037 30.2341 664.472 Q27.4968 660.908 27.4968 654.351 Q27.4968 651.104 27.9743 648.24 Q28.4517 645.375 29.4065 642.956 Z" fill="#000000" fill-rule="evenodd" fill-opacity="1" /><path clip-path="url(#clip950)" d="M18.2347 625.928 L28.3562 625.928 L28.3562 613.865 L32.9077 613.865 L32.9077 625.928 L52.2594 625.928 Q56.6199 625.928 57.8613 624.75 Q59.1026 623.541 59.1026 619.881 L59.1026 613.865 L64.0042 613.865 L64.0042 619.881 Q64.0042 626.66 61.4897 629.238 Q58.9434 631.816 52.2594 631.816 L32.9077 631.816 L32.9077 636.113 L28.3562 636.113 L28.3562 631.816 L18.2347 631.816 L18.2347 625.928 Z" fill="#000000" fill-rule="evenodd" fill-opacity="1" /><path clip-path="url(#clip950)" d="M44.7161 575.671 L47.5806 575.671 L47.5806 602.598 Q53.6281 602.216 56.8109 598.969 Q59.9619 595.691 59.9619 589.866 Q59.9619 586.492 59.1344 583.341 Q58.3069 580.159 56.6518 577.039 L62.1899 577.039 Q63.5267 580.19 64.227 583.501 Q64.9272 586.811 64.9272 590.216 Q64.9272 598.746 59.9619 603.744 Q54.9967 608.709 46.5303 608.709 Q37.7774 608.709 32.6531 603.998 Q27.4968 599.256 27.4968 591.235 Q27.4968 584.042 32.1438 579.872 Q36.7589 575.671 44.7161 575.671 M42.9973 581.527 Q38.1912 581.591 35.3266 584.233 Q32.4621 586.843 32.4621 591.171 Q32.4621 596.073 35.2312 599.033 Q38.0002 601.961 43.0292 602.407 L42.9973 581.527 Z" fill="#000000" fill-rule="evenodd" fill-opacity="1" /><path clip-path="url(#clip950)" d="M33.8307 545.402 Q33.2578 546.389 33.0032 547.566 Q32.7167 548.712 32.7167 550.112 Q32.7167 555.078 35.9632 557.751 Q39.1779 560.393 45.2253 560.393 L64.0042 560.393 L64.0042 566.281 L28.3562 566.281 L28.3562 560.393 L33.8944 560.393 Q30.6479 558.547 29.0883 555.587 Q27.4968 552.627 27.4968 548.394 Q27.4968 547.789 27.5923 547.057 Q27.656 546.325 27.8151 545.434 L33.8307 545.402 Z" fill="#000000" fill-rule="evenodd" fill-opacity="1" /><path clip-path="url(#clip950)" d="M28.3562 539.259 L28.3562 533.403 L64.0042 533.403 L64.0042 539.259 L28.3562 539.259 M14.479 539.259 L14.479 533.403 L21.895 533.403 L21.895 539.259 L14.479 539.259 Z" fill="#000000" fill-rule="evenodd" fill-opacity="1" /><path clip-path="url(#clip950)" d="M42.4881 491.516 L64.0042 491.516 L64.0042 497.373 L42.679 497.373 Q37.6183 497.373 35.1038 499.346 Q32.5894 501.319 32.5894 505.266 Q32.5894 510.009 35.6131 512.746 Q38.6368 515.483 43.8567 515.483 L64.0042 515.483 L64.0042 521.371 L28.3562 521.371 L28.3562 515.483 L33.8944 515.483 Q30.6797 513.382 29.0883 510.55 Q27.4968 507.685 27.4968 503.961 Q27.4968 497.818 31.3163 494.667 Q35.1038 491.516 42.4881 491.516 Z" fill="#000000" fill-rule="evenodd" fill-opacity="1" /><path clip-path="url(#clip950)" d="M45.7664 456.377 Q39.4007 456.377 35.8996 459.019 Q32.3984 461.629 32.3984 466.372 Q32.3984 471.082 35.8996 473.724 Q39.4007 476.334 45.7664 476.334 Q52.1003 476.334 55.6014 473.724 Q59.1026 471.082 59.1026 466.372 Q59.1026 461.629 55.6014 459.019 Q52.1003 456.377 45.7664 456.377 M59.58 450.521 Q68.683 450.521 73.1071 454.563 Q77.5631 458.605 77.5631 466.945 Q77.5631 470.032 77.0857 472.769 Q76.6401 475.506 75.6852 478.085 L69.9879 478.085 Q71.3884 475.506 72.0568 472.992 Q72.7252 470.477 72.7252 467.868 Q72.7252 462.107 69.7015 459.242 Q66.7096 456.377 60.6303 456.377 L57.7339 456.377 Q60.885 458.192 62.4446 461.024 Q64.0042 463.857 64.0042 467.804 Q64.0042 474.361 59.0071 478.371 Q54.01 482.381 45.7664 482.381 Q37.491 482.381 32.4939 478.371 Q27.4968 474.361 27.4968 467.804 Q27.4968 463.857 29.0564 461.024 Q30.616 458.192 33.7671 456.377 L28.3562 456.377 L28.3562 450.521 L59.58 450.521 Z" fill="#000000" fill-rule="evenodd" fill-opacity="1" /><path clip-path="url(#clip950)" d="M1116.18 39.9662 Q1122.06 41.222 1125.34 45.1919 Q1128.66 49.1618 1128.66 54.9951 Q1128.66 63.9476 1122.5 68.8492 Q1116.35 73.7508 1105 73.7508 Q1101.2 73.7508 1097.15 72.9811 Q1093.14 72.2519 1088.84 70.7531 L1088.84 62.8538 Q1092.24 64.8388 1096.29 65.8515 Q1100.35 66.8642 1104.76 66.8642 Q1112.46 66.8642 1116.47 63.826 Q1120.52 60.7879 1120.52 54.9951 Q1120.52 49.6479 1116.75 46.6502 Q1113.02 43.612 1106.34 43.612 L1099.29 43.612 L1099.29 36.8875 L1106.67 36.8875 Q1112.7 36.8875 1115.9 34.4975 Q1119.1 32.067 1119.1 27.5299 Q1119.1 22.8714 1115.78 20.4004 Q1112.5 17.8888 1106.34 17.8888 Q1102.98 17.8888 1099.13 18.618 Q1095.28 19.3471 1090.66 20.8865 L1090.66 13.5948 Q1095.32 12.2985 1099.37 11.6504 Q1103.46 11.0023 1107.07 11.0023 Q1116.39 11.0023 1121.82 15.2557 Q1127.24 19.4686 1127.24 26.6793 Q1127.24 31.7024 1124.37 35.1862 Q1121.49 38.6294 1116.18 39.9662 Z" fill="#000000" fill-rule="evenodd" fill-opacity="1" /><path clip-path="url(#clip950)" d="M1161.68 17.4837 Q1155.36 17.4837 1152.16 23.7221 Q1149 29.92 1149 42.3968 Q1149 54.833 1152.16 61.0714 Q1155.36 67.2693 1161.68 67.2693 Q1168.04 67.2693 1171.2 61.0714 Q1174.4 54.833 1174.4 42.3968 Q1174.4 29.92 1171.2 23.7221 Q1168.04 17.4837 1161.68 17.4837 M1161.68 11.0023 Q1171.84 11.0023 1177.19 19.0636 Q1182.58 27.0843 1182.58 42.3968 Q1182.58 57.6687 1177.19 65.73 Q1171.84 73.7508 1161.68 73.7508 Q1151.51 73.7508 1146.12 65.73 Q1140.77 57.6687 1140.77 42.3968 Q1140.77 27.0843 1146.12 19.0636 Q1151.51 11.0023 1161.68 11.0023 Z" fill="#000000" fill-rule="evenodd" fill-opacity="1" /><path clip-path="url(#clip950)" d="M1204.01 65.6895 L1232.57 65.6895 L1232.57 72.576 L1194.16 72.576 L1194.16 65.6895 Q1198.82 60.8689 1206.84 52.7671 Q1214.91 44.6248 1216.97 42.2752 Q1220.9 37.8598 1222.44 34.8216 Q1224.02 31.7429 1224.02 28.7857 Q1224.02 23.9651 1220.62 20.927 Q1217.25 17.8888 1211.83 17.8888 Q1207.98 17.8888 1203.68 19.2256 Q1199.43 20.5624 1194.57 23.2765 L1194.57 15.0127 Q1199.51 13.0277 1203.81 12.015 Q1208.1 11.0023 1211.66 11.0023 Q1221.06 11.0023 1226.65 15.7013 Q1232.24 20.4004 1232.24 28.2591 Q1232.24 31.9859 1230.83 35.3482 Q1229.45 38.6699 1225.76 43.2069 Q1224.75 44.3817 1219.32 50.0125 Q1213.89 55.6027 1204.01 65.6895 Z" fill="#000000" fill-rule="evenodd" fill-opacity="1" /><path clip-path="url(#clip950)" d="M1312.78 45.1919 L1312.78 72.576 L1305.32 72.576 L1305.32 45.4349 Q1305.32 38.994 1302.81 35.7938 Q1300.3 32.5936 1295.28 32.5936 Q1289.24 32.5936 1285.76 36.4419 Q1282.27 40.2903 1282.27 46.9338 L1282.27 72.576 L1274.78 72.576 L1274.78 27.2059 L1282.27 27.2059 L1282.27 34.2544 Q1284.95 30.163 1288.55 28.1376 Q1292.2 26.1121 1296.94 26.1121 Q1304.75 26.1121 1308.76 30.9732 Q1312.78 35.7938 1312.78 45.1919 Z" fill="#000000" fill-rule="evenodd" fill-opacity="1" /><path clip-path="url(#clip950)" d="M1345.22 32.4315 Q1339.23 32.4315 1335.74 37.1306 Q1332.26 41.7891 1332.26 49.9314 Q1332.26 58.0738 1335.7 62.7728 Q1339.19 67.4314 1345.22 67.4314 Q1351.18 67.4314 1354.66 62.7323 Q1358.15 58.0333 1358.15 49.9314 Q1358.15 41.8701 1354.66 37.1711 Q1351.18 32.4315 1345.22 32.4315 M1345.22 26.1121 Q1354.94 26.1121 1360.49 32.4315 Q1366.04 38.7509 1366.04 49.9314 Q1366.04 61.0714 1360.49 67.4314 Q1354.94 73.7508 1345.22 73.7508 Q1335.46 73.7508 1329.91 67.4314 Q1324.4 61.0714 1324.4 49.9314 Q1324.4 38.7509 1329.91 32.4315 Q1335.46 26.1121 1345.22 26.1121 Z" fill="#000000" fill-rule="evenodd" fill-opacity="1" /><path clip-path="url(#clip950)" d="M1408.25 34.0924 L1408.25 9.54393 L1415.71 9.54393 L1415.71 72.576 L1408.25 72.576 L1408.25 65.7705 Q1405.91 69.8214 1402.3 71.8063 Q1398.74 73.7508 1393.71 73.7508 Q1385.49 73.7508 1380.3 67.1883 Q1375.16 60.6258 1375.16 49.9314 Q1375.16 39.2371 1380.3 32.6746 Q1385.49 26.1121 1393.71 26.1121 Q1398.74 26.1121 1402.3 28.0971 Q1405.91 30.0415 1408.25 34.0924 M1382.86 49.9314 Q1382.86 58.1548 1386.22 62.8538 Q1389.62 67.5124 1395.54 67.5124 Q1401.45 67.5124 1404.85 62.8538 Q1408.25 58.1548 1408.25 49.9314 Q1408.25 41.7081 1404.85 37.0496 Q1401.45 32.3505 1395.54 32.3505 Q1389.62 32.3505 1386.22 37.0496 Q1382.86 41.7081 1382.86 49.9314 Z" fill="#000000" fill-rule="evenodd" fill-opacity="1" /><path clip-path="url(#clip950)" d="M1469.87 48.0275 L1469.87 51.6733 L1435.6 51.6733 Q1436.08 59.3701 1440.22 63.421 Q1444.39 67.4314 1451.8 67.4314 Q1456.1 67.4314 1460.11 66.3781 Q1464.16 65.3249 1468.13 63.2184 L1468.13 70.267 Q1464.12 71.9684 1459.9 72.8596 Q1455.69 73.7508 1451.36 73.7508 Q1440.5 73.7508 1434.14 67.4314 Q1427.82 61.1119 1427.82 50.3365 Q1427.82 39.1965 1433.82 32.6746 Q1439.85 26.1121 1450.06 26.1121 Q1459.22 26.1121 1464.52 32.0264 Q1469.87 37.9003 1469.87 48.0275 M1462.42 45.84 Q1462.33 39.7232 1458.97 36.0774 Q1455.65 32.4315 1450.14 32.4315 Q1443.9 32.4315 1440.14 35.9558 Q1436.41 39.4801 1435.84 45.8805 L1462.42 45.84 Z" fill="#000000" fill-rule="evenodd" fill-opacity="1" /><path clip-path="url(#clip950)" d="M1511.03 28.5427 L1511.03 35.5912 Q1507.87 33.9709 1504.46 33.1607 Q1501.06 32.3505 1497.42 32.3505 Q1491.87 32.3505 1489.07 34.0519 Q1486.32 35.7533 1486.32 39.156 Q1486.32 41.7486 1488.3 43.2475 Q1490.29 44.7058 1496.28 46.0426 L1498.83 46.6097 Q1506.77 48.3111 1510.09 51.4303 Q1513.46 54.509 1513.46 60.0587 Q1513.46 66.3781 1508.43 70.0644 Q1503.45 73.7508 1494.7 73.7508 Q1491.06 73.7508 1487.09 73.0216 Q1483.16 72.3329 1478.78 70.9151 L1478.78 63.2184 Q1482.91 65.3654 1486.92 66.4591 Q1490.93 67.5124 1494.86 67.5124 Q1500.13 67.5124 1502.97 65.73 Q1505.8 63.9071 1505.8 60.6258 Q1505.8 57.5877 1503.73 55.9673 Q1501.71 54.3469 1494.78 52.8481 L1492.19 52.2405 Q1485.26 50.7821 1482.18 47.7845 Q1479.11 44.7463 1479.11 39.4801 Q1479.11 33.0797 1483.64 29.5959 Q1488.18 26.1121 1496.52 26.1121 Q1500.66 26.1121 1504.3 26.7198 Q1507.95 27.3274 1511.03 28.5427 Z" fill="#000000" fill-rule="evenodd" fill-opacity="1" /><path clip-path="url(#clip952)" d="M2880.57 410.253 L2768.44 424.819 L2648.93 440.858 L2521.62 456.049 L2386 473.067 L2241.53 490.254 L2087.71 508.441 L1923.93 527.652 L1749.69 548.718 L1564.53 574.042 L1368.21 599.999 L1161.07 629.54 L944.651 664.344 L723.232 705.151 L507.423 761.397 L427.783 791.055 L356.289 831.846 L297.903 901.863 L260.07 1149.5 L260.07 966.938 L297.903 821.09 L356.289 763.696 L427.783 721.435 L507.423 686.849 L723.232 617.907 L944.651 564.431 L1161.07 522.795 L1368.21 487.604 L1564.53 457.568 L1749.69 431.402 L1923.93 408.188 L2087.71 387.837 L2241.53 368.365 L2386 350.628 L2521.62 335.861 L2648.93 321.536 L2768.44 307.176 L2880.57 294.501  Z" fill="#377db8" fill-rule="evenodd" fill-opacity="0.35"/>
<polyline clip-path="url(#clip952)" style="stroke:#377db8; stroke-linecap:round; stroke-linejoin:round; stroke-width:0; stroke-opacity:1; fill:none" points="2880.57,410.253 2768.44,424.819 2648.93,440.858 2521.62,456.049 2386,473.067 2241.53,490.254 2087.71,508.441 1923.93,527.652 1749.69,548.718 1564.53,574.042 1368.21,599.999 1161.07,629.54 944.651,664.344 723.232,705.151 507.423,761.397 427.783,791.055 356.289,831.846 297.903,901.863 260.07,1149.5 "/>
<path clip-path="url(#clip952)" d="M2880.57 677.65 L2768.44 725.436 L2648.93 775.684 L2521.62 827.263 L2386 877.431 L2241.53 932.519 L2087.71 988.364 L1923.93 1045.48 L1749.69 1100.01 L1564.53 1156.22 L1368.21 1208.65 L1161.07 1257.61 L944.651 1302.03 L723.232 1338.74 L507.423 1366.13 L427.783 1373.39 L356.289 1377.33 L297.903 1377.79 L260.07 1371.66 L260.07 1330.38 L297.903 1370.09 L356.289 1358.72 L427.783 1338.37 L507.423 1313.25 L723.232 1240.39 L944.651 1156.38 L1161.07 1076.31 L1368.21 998.517 L1564.53 920.114 L1749.69 851.058 L1923.93 784.258 L2087.71 722.702 L2241.53 666.791 L2386 615.771 L2521.62 570.826 L2648.93 528.247 L2768.44 488.922 L2880.57 451.577  Z" fill="#f781be" fill-rule="evenodd" fill-opacity="0.35"/>
<polyline clip-path="url(#clip952)" style="stroke:#f781be; stroke-linecap:round; stroke-linejoin:round; stroke-width:0; stroke-opacity:1; fill:none" points="2880.57,677.65 2768.44,725.436 2648.93,775.684 2521.62,827.263 2386,877.431 2241.53,932.519 2087.71,988.364 1923.93,1045.48 1749.69,1100.01 1564.53,1156.22 1368.21,1208.65 1161.07,1257.61 944.651,1302.03 723.232,1338.74 507.423,1366.13 427.783,1373.39 356.289,1377.33 297.903,1377.79 260.07,1371.66 "/>
<polyline clip-path="url(#clip952)" style="stroke:#f781be; stroke-linecap:round; stroke-linejoin:round; stroke-width:12; stroke-opacity:1; fill:none" points="2880.57,561.461 2768.44,605.316 2648.93,649.618 2521.62,699.705 2386,749.969 2241.53,802.84 2087.71,860.069 1923.93,917.844 1749.69,978.16 1564.53,1045.98 1368.21,1110.12 1161.07,1176.61 944.651,1240.31 723.232,1298.66 507.423,1346.28 427.783,1361.36 356.289,1371.67 297.903,1375.2 260.07,1357.71 "/>
<path clip-path="url(#clip952)" d="M2880.56 601.018 L2768.45 637.883 L2648.91 679.241 L2521.6 721.613 L2385.99 765.622 L2241.5 811.815 L2087.7 858.722 L1923.93 904.505 L1749.68 952.979 L1564.47 1004.95 L1368.17 1054.89 L1161.05 1109.36 L944.611 1165.96 L723.227 1220.25 L507.456 1274.19 L427.768 1295.16 L356.309 1318.08 L297.912 1338.61 L260.068 1366.54 L260.068 1333.22 L297.912 1288.11 L356.309 1241.67 L427.768 1196.17 L507.456 1153.54 L723.227 1055.19 L944.611 970.083 L1161.05 891.353 L1368.17 822.258 L1564.47 760.516 L1749.68 703.598 L1923.93 650.338 L2087.7 603.003 L2241.5 560.512 L2385.99 520.404 L2521.6 484.94 L2648.91 452.711 L2768.45 420.211 L2880.56 391.873  Z" fill="#999999" fill-rule="evenodd" fill-opacity="0.35"/>
<polyline clip-path="url(#clip952)" style="stroke:#999999; stroke-linecap:round; stroke-linejoin:round; stroke-width:0; stroke-opacity:1; fill:none" points="2880.56,601.018 2768.45,637.883 2648.91,679.241 2521.6,721.613 2385.99,765.622 2241.5,811.815 2087.7,858.722 1923.93,904.505 1749.68,952.979 1564.47,1004.95 1368.17,1054.89 1161.05,1109.36 944.611,1165.96 723.227,1220.25 507.456,1274.19 427.768,1295.16 356.309,1318.08 297.912,1338.61 260.068,1366.54 "/>
<polyline clip-path="url(#clip952)" style="stroke:#999999; stroke-linecap:round; stroke-linejoin:round; stroke-width:12; stroke-opacity:1; fill:none" points="2880.56,485.348 2768.45,519.719 2648.91,556.928 2521.6,596.097 2385.99,636.668 2241.5,680.995 2087.7,726.498 1923.93,777.098 1749.68,828.317 1564.47,886.434 1368.17,944.791 1161.05,1006.35 944.611,1072.73 723.227,1144.89 507.456,1221.42 427.768,1254.87 356.309,1287.38 297.912,1319.35 260.068,1349.91 "/>
<path clip-path="url(#clip952)" d="M2901.62 472.689 L2787.22 499.245 L2670.33 524.613 L2543.9 552.341 L2400.96 579.772 L2256.92 602.811 L2110.55 627.999 L1934.16 649.727 L1766.26 653.646 L1579.2 653.679 L1384.89 655.206 L1193.69 648.018 L959.397 648.575 L740.527 646.97 L528.988 643.074 L438.617 645.291 L373.004 646.62 L305.421 652.92 L263.886 678.843 L263.886 660.006 L305.421 643.441 L373.004 640.883 L438.617 636.538 L528.988 635.466 L740.527 642.17 L959.397 641.118 L1193.69 640.076 L1384.89 647.619 L1579.2 650.279 L1766.26 645.528 L1934.16 639.841 L2110.55 617.829 L2256.92 597.273 L2400.96 575.149 L2543.9 544.109 L2670.33 519.674 L2787.22 489.163 L2901.62 467.145  Z" fill="#ff7e00" fill-rule="evenodd" fill-opacity="0.35"/>
<polyline clip-path="url(#clip952)" style="stroke:#ff7e00; stroke-linecap:round; stroke-linejoin:round; stroke-width:0; stroke-opacity:1; fill:none" points="2901.62,472.689 2787.22,499.245 2670.33,524.613 2543.9,552.341 2400.96,579.772 2256.92,602.811 2110.55,627.999 1934.16,649.727 1766.26,653.646 1579.2,653.679 1384.89,655.206 1193.69,648.018 959.397,648.575 740.527,646.97 528.988,643.074 438.617,645.291 373.004,646.62 305.421,652.92 263.886,678.843 "/>
<polyline clip-path="url(#clip952)" style="stroke:#ff7e00; stroke-linecap:round; stroke-linejoin:round; stroke-width:12; stroke-opacity:1; fill:none" points="2901.62,469.938 2787.22,495.673 2670.33,521.896 2543.9,548.114 2400.96,578.682 2256.92,600.503 2110.55,623.573 1934.16,640.255 1766.26,650.936 1579.2,653.237 1384.89,649.83 1193.69,644.197 959.397,647.642 740.527,643.967 528.988,637.937 438.617,641.052 373.004,643.93 305.421,648.086 263.886,671.972 "/>
<path clip-path="url(#clip952)" d="M249.542 1386.4 L277.318 665.451 L356.429 651.303 L478.812 633.813 L641.062 626.892 L827.907 613.727 L1060.09 593.574 L1275.6 578.509 L1543 554.685 L1807.93 532.03 L2030.85 513.783 L2321.94 476.41 L2570.59 446.551 L2790.99 412.43 L2998.32 379.138 L3228.11 337.599 L3415.68 300.042 L3415.68 287.147 L3228.11 327.628 L2998.32 370.565 L2790.99 407.54 L2570.59 436.517 L2321.94 472.001 L2030.85 503.679 L1807.93 529.773 L1543 553.506 L1275.6 574.297 L1060.09 589.837 L827.907 606.003 L641.062 620.109 L478.812 628.574 L356.429 642.705 L277.318 654.824 L249.542 1386.4  Z" fill="#4dae49" fill-rule="evenodd" fill-opacity="0.35"/>
<polyline clip-path="url(#clip952)" style="stroke:#4dae49; stroke-linecap:round; stroke-linejoin:round; stroke-width:0; stroke-opacity:1; fill:none" points="249.542,1386.4 277.318,665.451 356.429,651.303 478.812,633.813 641.062,626.892 827.907,613.727 1060.09,593.574 1275.6,578.509 1543,554.685 1807.93,532.03 2030.85,513.783 2321.94,476.41 2570.59,446.551 2790.99,412.43 2998.32,379.138 3228.11,337.599 3415.68,300.042 "/>
<polyline clip-path="url(#clip952)" style="stroke:#4dae49; stroke-linecap:round; stroke-linejoin:round; stroke-width:12; stroke-opacity:1; fill:none" points="249.542,1386.4 277.318,659.119 356.429,648.629 478.812,629.682 641.062,625.292 827.907,611.297 1060.09,591.337 1275.6,575.135 1543,554.274 1807.93,530.96 2030.85,508.642 2321.94,474.869 2570.59,442.346 2790.99,410.201 2998.32,375.875 3228.11,332.507 3415.68,294.281 "/>
<path clip-path="url(#clip952)" d="M3973.47 160.256 L2392.75 474.046 L2363.24 475.356 L2258.02 493.307 L2111.95 511.838 L2009.93 533.396 L1890.9 556.687 L1708.5 593.967 L1628.62 614.825 L1471.78 651.909 L1330.14 688.526 L1251.67 721.901 L1102.63 754.414 L1030.94 779.177 L923.945 822.54 L865.859 843.88 L759.316 885.181 L696.852 928.788 L636.233 949.779 L585.971 967.852 L538.604 1001.27 L481.901 1041.91 L456.434 1062.07 L417.227 1087.28 L392.817 1108.25 L373.416 1125.94 L355.164 1127.31 L336.927 1164.86 L320.214 1176.73 L312.038 1180.64 L298.066 1200.38 L290.979 1211.55 L282.036 1213.89 L277.571 1223.46 L270.011 1235.75 L265.581 1234.33 L265.723 1229.98 L265.723 1198.78 L265.581 1222.65 L270.011 1207.43 L277.571 1211.48 L282.036 1186.91 L290.979 1191.76 L298.066 1163.58 L312.038 1163.74 L320.214 1155.36 L336.927 1141.53 L355.164 1100.76 L373.416 1098.75 L392.817 1081.26 L417.227 1065.69 L456.434 1022.7 L481.901 1002.22 L538.604 980.262 L585.971 935.573 L636.233 910.876 L696.852 876.864 L759.316 861.205 L865.859 820.3 L923.945 784.451 L1030.94 760.853 L1102.63 734.171 L1251.67 682.476 L1330.14 672.651 L1471.78 633.63 L1628.62 602.386 L1708.5 580.075 L1890.9 546.417 L2009.93 521.043 L2111.95 503.233 L2258.02 487.195 L2363.24 468.049 L2392.75 464.217 L3973.47 160.256  Z" fill="#974ea2" fill-rule="evenodd" fill-opacity="0.35"/>
<polyline clip-path="url(#clip952)" style="stroke:#974ea2; stroke-linecap:round; stroke-linejoin:round; stroke-width:0; stroke-opacity:1; fill:none" points="3973.47,160.256 2392.75,474.046 2363.24,475.356 2258.02,493.307 2111.95,511.838 2009.93,533.396 1890.9,556.687 1708.5,593.967 1628.62,614.825 1471.78,651.909 1330.14,688.526 1251.67,721.901 1102.63,754.414 1030.94,779.177 923.945,822.54 865.859,843.88 759.316,885.181 696.852,928.788 636.233,949.779 585.971,967.852 538.604,1001.27 481.901,1041.91 456.434,1062.07 417.227,1087.28 392.817,1108.25 373.416,1125.94 355.164,1127.31 336.927,1164.86 320.214,1176.73 312.038,1180.64 298.066,1200.38 290.979,1211.55 282.036,1213.89 277.571,1223.46 270.011,1235.75 265.581,1234.33 265.723,1229.98 "/>
<polyline clip-path="url(#clip952)" style="stroke:#974ea2; stroke-linecap:round; stroke-linejoin:round; stroke-width:12; stroke-opacity:1; fill:none" points="3973.47,160.256 2392.75,469.967 2363.24,473.763 2258.02,489.268 2111.95,507.696 2009.93,524.925 1890.9,550.938 1708.5,586.001 1628.62,610.808 1471.78,643.252 1330.14,680.629 1251.67,709.092 1102.63,743.786 1030.94,771.486 923.945,810.091 865.859,830.171 759.316,875.893 696.852,900.226 636.233,935.776 585.971,957.053 538.604,993.913 481.901,1021.25 456.434,1045.04 417.227,1078.63 392.817,1101.33 373.416,1108.64 355.164,1114.3 336.927,1153.06 320.214,1160.55 312.038,1172.2 298.066,1195.88 290.979,1195.51 282.036,1201.43 277.571,1215.31 270.011,1230.14 265.581,1227.34 265.723,1216.28 "/>
<path clip-path="url(#clip952)" d="M3973.47 160.256 L2402.75 468.346 L2300.45 481.895 L2151.63 502.485 L1975.37 526.807 L1781.28 557.219 L1567.94 591.162 L1364.58 626.174 L1171.44 664.161 L1010.39 697.786 L868.358 737.686 L746.832 772.767 L646.133 797.015 L562.722 823.652 L502.059 853.164 L445.844 868.472 L403.963 890.968 L370.843 895.597 L343.674 899.949 L322.811 892.885 L307.669 928.693 L294.702 918.854 L284.919 926.261 L277.238 934.12 L271.404 935.099 L266.255 924 L262.417 912.041 L259.639 916.513 L257.636 943.792 L255.596 928.701 L254.285 980.76 L253.291 956.021 L252.423 998.813 L251.782 1012.9 L251.295 1122.36 L250.881 1199.31 L250.592 1257.7 L250.592 1143.85 L250.881 1131.58 L251.295 1025.42 L251.782 954.32 L252.423 928.963 L253.291 919.124 L254.285 929.133 L255.596 897.671 L257.636 903.251 L259.639 869.084 L262.417 875.453 L266.255 873.371 L271.404 915.373 L277.238 896.452 L284.919 903.11 L294.702 894.447 L307.669 907.085 L322.811 878.015 L343.674 880.59 L370.843 878.365 L403.963 878.145 L445.844 857.852 L502.059 838.525 L562.722 813.037 L646.133 788.016 L746.832 759.404 L868.358 729.67 L1010.39 694.847 L1171.44 662.124 L1364.58 624.812 L1567.94 588.482 L1781.28 554.624 L1975.37 524.707 L2151.63 500.132 L2300.45 479.447 L2402.75 467.321 L3973.47 160.256  Z" fill="#e31a1c" fill-rule="evenodd" fill-opacity="0.35"/>
<polyline clip-path="url(#clip952)" style="stroke:#e31a1c; stroke-linecap:round; stroke-linejoin:round; stroke-width:0; stroke-opacity:1; fill:none" points="3973.47,160.256 2402.75,468.346 2300.45,481.895 2151.63,502.485 1975.37,526.807 1781.28,557.219 1567.94,591.162 1364.58,626.174 1171.44,664.161 1010.39,697.786 868.358,737.686 746.832,772.767 646.133,797.015 562.722,823.652 502.059,853.164 445.844,868.472 403.963,890.968 370.843,895.597 343.674,899.949 322.811,892.885 307.669,928.693 294.702,918.854 284.919,926.261 277.238,934.12 271.404,935.099 266.255,924 262.417,912.041 259.639,916.513 257.636,943.792 255.596,928.701 254.285,980.76 253.291,956.021 252.423,998.813 251.782,1012.9 251.295,1122.36 250.881,1199.31 250.592,1257.7 "/>
<polyline clip-path="url(#clip952)" style="stroke:#e31a1c; stroke-linecap:round; stroke-linejoin:round; stroke-width:12; stroke-opacity:1; fill:none" points="3973.47,160.256 2402.75,467.686 2300.45,481.325 2151.63,501.212 1975.37,525.974 1781.28,556.16 1567.94,590.183 1364.58,625.449 1171.44,663.441 1010.39,695.909 868.358,732.561 746.832,765.202 646.133,791.215 562.722,819.544 502.059,842.363 445.844,860.339 403.963,885.233 370.843,890.661 343.674,890.233 322.811,889.559 307.669,918.517 294.702,908.8 284.919,913.4 277.238,920.323 271.404,925.022 266.255,893.525 262.417,900.759 259.639,898.01 257.636,929.888 255.596,907.755 254.285,944.822 253.291,937.471 252.423,970.047 251.782,972.758 251.295,1098.36 250.881,1167.76 250.592,1205.88 "/>
<polyline clip-path="url(#clip952)" style="stroke:#377db8; stroke-linecap:round; stroke-linejoin:round; stroke-width:12; stroke-opacity:1; fill:none" points="2880.57,348.022 2768.44,362.905 2648.93,377.931 2521.62,393.1 2386,410.215 2241.53,428.191 2087.71,448.091 1923.93,468.894 1749.69,491.283 1564.53,516.738 1368.21,546.587 1161.07,579.774 944.651,618.959 723.232,665.606 507.423,726.858 427.783,759.118 356.289,798.877 297.903,858.571 260.07,1045.48 "/>
</svg>
