<?xml version="1.0" encoding="utf-8"?>
<svg xmlns="http://www.w3.org/2000/svg" xmlns:xlink="http://www.w3.org/1999/xlink" width="600" height="400" viewBox="0 0 2400 1600">
<defs>
  <clipPath id="clip990">
    <rect x="0" y="0" width="2400" height="1600"/>
  </clipPath>
</defs>
<path clip-path="url(#clip990)" d="M0 1600 L2400 1600 L2400 0 L0 0  Z" fill="#ffffff" fill-rule="evenodd" fill-opacity="1"/>
<defs>
  <clipPath id="clip991">
    <rect x="480" y="0" width="1681" height="1600"/>
  </clipPath>
</defs>
<path clip-path="url(#clip990)" d="M221.637 1423.18 L2352.76 1423.18 L2352.76 123.472 L221.637 123.472  Z" fill="#ffffff" fill-rule="evenodd" fill-opacity="1"/>
<defs>
  <clipPath id="clip992">
    <rect x="221" y="123" width="2132" height="1301"/>
  </clipPath>
</defs>
<polyline clip-path="url(#clip990)" style="stroke:#000000; stroke-linecap:round; stroke-linejoin:round; stroke-width:4; stroke-opacity:1; fill:none" points="221.637,1423.18 2352.76,1423.18 "/>
<polyline clip-path="url(#clip990)" style="stroke:#000000; stroke-linecap:round; stroke-linejoin:round; stroke-width:4; stroke-opacity:1; fill:none" points="221.637,1423.18 221.637,1404.28 "/>
<polyline clip-path="url(#clip990)" style="stroke:#000000; stroke-linecap:round; stroke-linejoin:round; stroke-width:4; stroke-opacity:1; fill:none" points="848.437,1423.18 848.437,1404.28 "/>
<polyline clip-path="url(#clip990)" style="stroke:#000000; stroke-linecap:round; stroke-linejoin:round; stroke-width:4; stroke-opacity:1; fill:none" points="1475.24,1423.18 1475.24,1404.28 "/>
<polyline clip-path="url(#clip990)" style="stroke:#000000; stroke-linecap:round; stroke-linejoin:round; stroke-width:4; stroke-opacity:1; fill:none" points="2102.04,1423.18 2102.04,1404.28 "/>
<path clip-path="url(#clip990)" d="M221.637 1454.1 Q218.026 1454.1 216.197 1457.66 Q214.392 1461.2 214.392 1468.33 Q214.392 1475.44 216.197 1479.01 Q218.026 1482.55 221.637 1482.55 Q225.271 1482.55 227.077 1479.01 Q228.906 1475.44 228.906 1468.33 Q228.906 1461.2 227.077 1457.66 Q225.271 1454.1 221.637 1454.1 M221.637 1450.39 Q227.447 1450.39 230.503 1455 Q233.581 1459.58 233.581 1468.33 Q233.581 1477.06 230.503 1481.67 Q227.447 1486.25 221.637 1486.25 Q215.827 1486.25 212.748 1481.67 Q209.693 1477.06 209.693 1468.33 Q209.693 1459.58 212.748 1455 Q215.827 1450.39 221.637 1450.39 Z" fill="#000000" fill-rule="evenodd" fill-opacity="1" /><path clip-path="url(#clip990)" d="M823.136 1451.02 L841.492 1451.02 L841.492 1454.96 L827.418 1454.96 L827.418 1463.43 Q828.437 1463.08 829.455 1462.92 Q830.474 1462.73 831.492 1462.73 Q837.279 1462.73 840.659 1465.9 Q844.039 1469.08 844.039 1474.49 Q844.039 1480.07 840.566 1483.17 Q837.094 1486.25 830.775 1486.25 Q828.599 1486.25 826.33 1485.88 Q824.085 1485.51 821.678 1484.77 L821.678 1480.07 Q823.761 1481.2 825.983 1481.76 Q828.205 1482.32 830.682 1482.32 Q834.687 1482.32 837.025 1480.21 Q839.363 1478.1 839.363 1474.49 Q839.363 1470.88 837.025 1468.77 Q834.687 1466.67 830.682 1466.67 Q828.807 1466.67 826.932 1467.08 Q825.08 1467.5 823.136 1468.38 L823.136 1451.02 Z" fill="#000000" fill-rule="evenodd" fill-opacity="1" /><path clip-path="url(#clip990)" d="M863.251 1454.1 Q859.64 1454.1 857.812 1457.66 Q856.006 1461.2 856.006 1468.33 Q856.006 1475.44 857.812 1479.01 Q859.64 1482.55 863.251 1482.55 Q866.886 1482.55 868.691 1479.01 Q870.52 1475.44 870.52 1468.33 Q870.52 1461.2 868.691 1457.66 Q866.886 1454.1 863.251 1454.1 M863.251 1450.39 Q869.062 1450.39 872.117 1455 Q875.196 1459.58 875.196 1468.33 Q875.196 1477.06 872.117 1481.67 Q869.062 1486.25 863.251 1486.25 Q857.441 1486.25 854.363 1481.67 Q851.307 1477.06 851.307 1468.33 Q851.307 1459.58 854.363 1455 Q857.441 1450.39 863.251 1450.39 Z" fill="#000000" fill-rule="evenodd" fill-opacity="1" /><path clip-path="url(#clip990)" d="M1434.84 1481.64 L1442.48 1481.64 L1442.48 1455.28 L1434.17 1456.95 L1434.17 1452.69 L1442.44 1451.02 L1447.11 1451.02 L1447.11 1481.64 L1454.75 1481.64 L1454.75 1485.58 L1434.84 1485.58 L1434.84 1481.64 Z" fill="#000000" fill-rule="evenodd" fill-opacity="1" /><path clip-path="url(#clip990)" d="M1474.19 1454.1 Q1470.58 1454.1 1468.75 1457.66 Q1466.95 1461.2 1466.95 1468.33 Q1466.95 1475.44 1468.75 1479.01 Q1470.58 1482.55 1474.19 1482.55 Q1477.83 1482.55 1479.63 1479.01 Q1481.46 1475.44 1481.46 1468.33 Q1481.46 1461.2 1479.63 1457.66 Q1477.83 1454.1 1474.19 1454.1 M1474.19 1450.39 Q1480 1450.39 1483.06 1455 Q1486.14 1459.58 1486.14 1468.33 Q1486.14 1477.06 1483.06 1481.67 Q1480 1486.25 1474.19 1486.25 Q1468.38 1486.25 1465.31 1481.67 Q1462.25 1477.06 1462.25 1468.33 Q1462.25 1459.58 1465.31 1455 Q1468.38 1450.39 1474.19 1450.39 Z" fill="#000000" fill-rule="evenodd" fill-opacity="1" /><path clip-path="url(#clip990)" d="M1504.36 1454.1 Q1500.75 1454.1 1498.92 1457.66 Q1497.11 1461.2 1497.11 1468.33 Q1497.11 1475.44 1498.92 1479.01 Q1500.75 1482.55 1504.36 1482.55 Q1507.99 1482.55 1509.8 1479.01 Q1511.63 1475.44 1511.63 1468.33 Q1511.63 1461.2 1509.8 1457.66 Q1507.99 1454.1 1504.36 1454.1 M1504.36 1450.39 Q1510.17 1450.39 1513.22 1455 Q1516.3 1459.58 1516.3 1468.33 Q1516.3 1477.06 1513.22 1481.67 Q1510.17 1486.25 1504.36 1486.25 Q1498.55 1486.25 1495.47 1481.67 Q1492.41 1477.06 1492.41 1468.33 Q1492.41 1459.58 1495.47 1455 Q1498.55 1450.39 1504.36 1450.39 Z" fill="#000000" fill-rule="evenodd" fill-opacity="1" /><path clip-path="url(#clip990)" d="M2061.64 1481.64 L2069.28 1481.64 L2069.28 1455.28 L2060.97 1456.95 L2060.97 1452.69 L2069.24 1451.02 L2073.91 1451.02 L2073.91 1481.64 L2081.55 1481.64 L2081.55 1485.58 L2061.64 1485.58 L2061.64 1481.64 Z" fill="#000000" fill-rule="evenodd" fill-opacity="1" /><path clip-path="url(#clip990)" d="M2091.04 1451.02 L2109.4 1451.02 L2109.4 1454.96 L2095.32 1454.96 L2095.32 1463.43 Q2096.34 1463.08 2097.36 1462.92 Q2098.38 1462.73 2099.4 1462.73 Q2105.18 1462.73 2108.56 1465.9 Q2111.94 1469.08 2111.94 1474.49 Q2111.94 1480.07 2108.47 1483.17 Q2105 1486.25 2098.68 1486.25 Q2096.5 1486.25 2094.24 1485.88 Q2091.99 1485.51 2089.58 1484.77 L2089.58 1480.07 Q2091.67 1481.2 2093.89 1481.76 Q2096.11 1482.32 2098.59 1482.32 Q2102.59 1482.32 2104.93 1480.21 Q2107.27 1478.1 2107.27 1474.49 Q2107.27 1470.88 2104.93 1468.77 Q2102.59 1466.67 2098.59 1466.67 Q2096.71 1466.67 2094.84 1467.08 Q2092.99 1467.5 2091.04 1468.38 L2091.04 1451.02 Z" fill="#000000" fill-rule="evenodd" fill-opacity="1" /><path clip-path="url(#clip990)" d="M2131.16 1454.1 Q2127.55 1454.1 2125.72 1457.66 Q2123.91 1461.2 2123.91 1468.33 Q2123.91 1475.44 2125.72 1479.01 Q2127.55 1482.55 2131.16 1482.55 Q2134.79 1482.55 2136.6 1479.01 Q2138.42 1475.44 2138.42 1468.33 Q2138.42 1461.2 2136.6 1457.66 Q2134.79 1454.1 2131.16 1454.1 M2131.16 1450.39 Q2136.97 1450.39 2140.02 1455 Q2143.1 1459.58 2143.1 1468.33 Q2143.1 1477.06 2140.02 1481.67 Q2136.97 1486.25 2131.16 1486.25 Q2125.35 1486.25 2122.27 1481.67 Q2119.21 1477.06 2119.21 1468.33 Q2119.21 1459.58 2122.27 1455 Q2125.35 1450.39 2131.16 1450.39 Z" fill="#000000" fill-rule="evenodd" fill-opacity="1" /><path clip-path="url(#clip990)" d="M1052.54 1526.86 L1043.82 1550.51 L1061.29 1550.51 L1052.54 1526.86 M1048.91 1520.52 L1056.2 1520.52 L1074.31 1568.04 L1067.63 1568.04 L1063.3 1555.85 L1041.88 1555.85 L1037.55 1568.04 L1030.77 1568.04 L1048.91 1520.52 Z" fill="#000000" fill-rule="evenodd" fill-opacity="1" /><path clip-path="url(#clip990)" d="M1072.97 1532.4 L1079.18 1532.4 L1090.32 1562.31 L1101.46 1532.4 L1107.67 1532.4 L1094.3 1568.04 L1086.34 1568.04 L1072.97 1532.4 Z" fill="#000000" fill-rule="evenodd" fill-opacity="1" /><path clip-path="url(#clip990)" d="M1146.24 1548.76 L1146.24 1551.62 L1119.32 1551.62 Q1119.7 1557.67 1122.95 1560.85 Q1126.22 1564 1132.05 1564 Q1135.42 1564 1138.57 1563.17 Q1141.76 1562.35 1144.88 1560.69 L1144.88 1566.23 Q1141.72 1567.57 1138.41 1568.27 Q1135.1 1568.97 1131.7 1568.97 Q1123.17 1568.97 1118.17 1564 Q1113.21 1559.04 1113.21 1550.57 Q1113.21 1541.82 1117.92 1536.69 Q1122.66 1531.54 1130.68 1531.54 Q1137.87 1531.54 1142.04 1536.18 Q1146.24 1540.8 1146.24 1548.76 M1140.39 1547.04 Q1140.32 1542.23 1137.68 1539.37 Q1135.07 1536.5 1130.74 1536.5 Q1125.84 1536.5 1122.88 1539.27 Q1119.95 1542.04 1119.51 1547.07 L1140.39 1547.04 Z" fill="#000000" fill-rule="evenodd" fill-opacity="1" /><path clip-path="url(#clip990)" d="M1176.51 1537.87 Q1175.53 1537.3 1174.35 1537.04 Q1173.2 1536.76 1171.8 1536.76 Q1166.84 1536.76 1164.16 1540 Q1161.52 1543.22 1161.52 1549.27 L1161.52 1568.04 L1155.63 1568.04 L1155.63 1532.4 L1161.52 1532.4 L1161.52 1537.93 Q1163.37 1534.69 1166.33 1533.13 Q1169.29 1531.54 1173.52 1531.54 Q1174.13 1531.54 1174.86 1531.63 Q1175.59 1531.7 1176.48 1531.85 L1176.51 1537.87 Z" fill="#000000" fill-rule="evenodd" fill-opacity="1" /><path clip-path="url(#clip990)" d="M1198.86 1550.12 Q1191.76 1550.12 1189.02 1551.75 Q1186.28 1553.37 1186.28 1557.29 Q1186.28 1560.4 1188.32 1562.25 Q1190.39 1564.07 1193.92 1564.07 Q1198.79 1564.07 1201.72 1560.63 Q1204.68 1557.16 1204.68 1551.43 L1204.68 1550.12 L1198.86 1550.12 M1210.54 1547.71 L1210.54 1568.04 L1204.68 1568.04 L1204.68 1562.63 Q1202.68 1565.88 1199.68 1567.44 Q1196.69 1568.97 1192.36 1568.97 Q1186.89 1568.97 1183.64 1565.91 Q1180.43 1562.82 1180.43 1557.67 Q1180.43 1551.65 1184.44 1548.6 Q1188.48 1545.54 1196.47 1545.54 L1204.68 1545.54 L1204.68 1544.97 Q1204.68 1540.93 1202.01 1538.73 Q1199.37 1536.5 1194.56 1536.5 Q1191.5 1536.5 1188.61 1537.23 Q1185.71 1537.97 1183.04 1539.43 L1183.04 1534.02 Q1186.25 1532.78 1189.28 1532.17 Q1192.3 1531.54 1195.16 1531.54 Q1202.9 1531.54 1206.72 1535.55 Q1210.54 1539.56 1210.54 1547.71 Z" fill="#000000" fill-rule="evenodd" fill-opacity="1" /><path clip-path="url(#clip990)" d="M1246.06 1549.81 Q1246.06 1543.44 1243.42 1539.94 Q1240.81 1536.44 1236.06 1536.44 Q1231.35 1536.44 1228.71 1539.94 Q1226.1 1543.44 1226.1 1549.81 Q1226.1 1556.14 1228.71 1559.64 Q1231.35 1563.14 1236.06 1563.14 Q1240.81 1563.14 1243.42 1559.64 Q1246.06 1556.14 1246.06 1549.81 M1251.91 1563.62 Q1251.91 1572.72 1247.87 1577.15 Q1243.83 1581.6 1235.49 1581.6 Q1232.4 1581.6 1229.67 1581.13 Q1226.93 1580.68 1224.35 1579.72 L1224.35 1574.03 Q1226.93 1575.43 1229.44 1576.1 Q1231.96 1576.76 1234.57 1576.76 Q1240.33 1576.76 1243.19 1573.74 Q1246.06 1570.75 1246.06 1564.67 L1246.06 1561.77 Q1244.24 1564.92 1241.41 1566.48 Q1238.58 1568.04 1234.63 1568.04 Q1228.07 1568.04 1224.06 1563.05 Q1220.05 1558.05 1220.05 1549.81 Q1220.05 1541.53 1224.06 1536.53 Q1228.07 1531.54 1234.63 1531.54 Q1238.58 1531.54 1241.41 1533.1 Q1244.24 1534.66 1246.06 1537.81 L1246.06 1532.4 L1251.91 1532.4 L1251.91 1563.62 Z" fill="#000000" fill-rule="evenodd" fill-opacity="1" /><path clip-path="url(#clip990)" d="M1294.47 1548.76 L1294.47 1551.62 L1267.54 1551.62 Q1267.92 1557.67 1271.17 1560.85 Q1274.45 1564 1280.27 1564 Q1283.65 1564 1286.8 1563.17 Q1289.98 1562.35 1293.1 1560.69 L1293.1 1566.23 Q1289.95 1567.57 1286.64 1568.27 Q1283.33 1568.97 1279.92 1568.97 Q1271.39 1568.97 1266.4 1564 Q1261.43 1559.04 1261.43 1550.57 Q1261.43 1541.82 1266.14 1536.69 Q1270.88 1531.54 1278.91 1531.54 Q1286.1 1531.54 1290.27 1536.18 Q1294.47 1540.8 1294.47 1548.76 M1288.61 1547.04 Q1288.55 1542.23 1285.91 1539.37 Q1283.3 1536.5 1278.97 1536.5 Q1274.07 1536.5 1271.11 1539.27 Q1268.18 1542.04 1267.73 1547.07 L1288.61 1547.04 Z" fill="#000000" fill-rule="evenodd" fill-opacity="1" /><path clip-path="url(#clip990)" d="M1348.26 1537.81 L1348.26 1518.52 L1354.12 1518.52 L1354.12 1568.04 L1348.26 1568.04 L1348.26 1562.7 Q1346.41 1565.88 1343.58 1567.44 Q1340.78 1568.97 1336.83 1568.97 Q1330.37 1568.97 1326.3 1563.81 Q1322.26 1558.65 1322.26 1550.25 Q1322.26 1541.85 1326.3 1536.69 Q1330.37 1531.54 1336.83 1531.54 Q1340.78 1531.54 1343.58 1533.1 Q1346.41 1534.62 1348.26 1537.81 M1328.3 1550.25 Q1328.3 1556.71 1330.94 1560.4 Q1333.62 1564.07 1338.27 1564.07 Q1342.91 1564.07 1345.59 1560.4 Q1348.26 1556.71 1348.26 1550.25 Q1348.26 1543.79 1345.59 1540.13 Q1342.91 1536.44 1338.27 1536.44 Q1333.62 1536.44 1330.94 1540.13 Q1328.3 1543.79 1328.3 1550.25 Z" fill="#000000" fill-rule="evenodd" fill-opacity="1" /><path clip-path="url(#clip990)" d="M1396.67 1548.76 L1396.67 1551.62 L1369.74 1551.62 Q1370.13 1557.67 1373.37 1560.85 Q1376.65 1564 1382.48 1564 Q1385.85 1564 1389 1563.17 Q1392.18 1562.35 1395.3 1560.69 L1395.3 1566.23 Q1392.15 1567.57 1388.84 1568.27 Q1385.53 1568.97 1382.13 1568.97 Q1373.6 1568.97 1368.6 1564 Q1363.63 1559.04 1363.63 1550.57 Q1363.63 1541.82 1368.34 1536.69 Q1373.09 1531.54 1381.11 1531.54 Q1388.3 1531.54 1392.47 1536.18 Q1396.67 1540.8 1396.67 1548.76 M1390.81 1547.04 Q1390.75 1542.23 1388.11 1539.37 Q1385.5 1536.5 1381.17 1536.5 Q1376.27 1536.5 1373.31 1539.27 Q1370.38 1542.04 1369.93 1547.07 L1390.81 1547.04 Z" fill="#000000" fill-rule="evenodd" fill-opacity="1" /><path clip-path="url(#clip990)" d="M1429.74 1549.81 Q1429.74 1543.44 1427.1 1539.94 Q1424.49 1536.44 1419.75 1536.44 Q1415.04 1536.44 1412.39 1539.94 Q1409.78 1543.44 1409.78 1549.81 Q1409.78 1556.14 1412.39 1559.64 Q1415.04 1563.14 1419.75 1563.14 Q1424.49 1563.14 1427.1 1559.64 Q1429.74 1556.14 1429.74 1549.81 M1435.6 1563.62 Q1435.6 1572.72 1431.55 1577.15 Q1427.51 1581.6 1419.17 1581.6 Q1416.09 1581.6 1413.35 1581.13 Q1410.61 1580.68 1408.03 1579.72 L1408.03 1574.03 Q1410.61 1575.43 1413.13 1576.1 Q1415.64 1576.76 1418.25 1576.76 Q1424.01 1576.76 1426.88 1573.74 Q1429.74 1570.75 1429.74 1564.67 L1429.74 1561.77 Q1427.93 1564.92 1425.09 1566.48 Q1422.26 1568.04 1418.31 1568.04 Q1411.76 1568.04 1407.75 1563.05 Q1403.74 1558.05 1403.74 1549.81 Q1403.74 1541.53 1407.75 1536.53 Q1411.76 1531.54 1418.31 1531.54 Q1422.26 1531.54 1425.09 1533.1 Q1427.93 1534.66 1429.74 1537.81 L1429.74 1532.4 L1435.6 1532.4 L1435.6 1563.62 Z" fill="#000000" fill-rule="evenodd" fill-opacity="1" /><path clip-path="url(#clip990)" d="M1468.32 1537.87 Q1467.33 1537.3 1466.15 1537.04 Q1465.01 1536.76 1463.61 1536.76 Q1458.64 1536.76 1455.97 1540 Q1453.33 1543.22 1453.33 1549.27 L1453.33 1568.04 L1447.44 1568.04 L1447.44 1532.4 L1453.33 1532.4 L1453.33 1537.93 Q1455.17 1534.69 1458.13 1533.13 Q1461.09 1531.54 1465.32 1531.54 Q1465.93 1531.54 1466.66 1531.63 Q1467.39 1531.7 1468.28 1531.85 L1468.32 1537.87 Z" fill="#000000" fill-rule="evenodd" fill-opacity="1" /><path clip-path="url(#clip990)" d="M1503.52 1548.76 L1503.52 1551.62 L1476.59 1551.62 Q1476.97 1557.67 1480.22 1560.85 Q1483.5 1564 1489.32 1564 Q1492.7 1564 1495.85 1563.17 Q1499.03 1562.35 1502.15 1560.69 L1502.15 1566.23 Q1499 1567.57 1495.69 1568.27 Q1492.38 1568.97 1488.97 1568.97 Q1480.44 1568.97 1475.45 1564 Q1470.48 1559.04 1470.48 1550.57 Q1470.48 1541.82 1475.19 1536.69 Q1479.93 1531.54 1487.95 1531.54 Q1495.15 1531.54 1499.32 1536.18 Q1503.52 1540.8 1503.52 1548.76 M1497.66 1547.04 Q1497.6 1542.23 1494.96 1539.37 Q1492.35 1536.5 1488.02 1536.5 Q1483.12 1536.5 1480.16 1539.27 Q1477.23 1542.04 1476.78 1547.07 L1497.66 1547.04 Z" fill="#000000" fill-rule="evenodd" fill-opacity="1" /><path clip-path="url(#clip990)" d="M1543.62 1548.76 L1543.62 1551.62 L1516.7 1551.62 Q1517.08 1557.67 1520.32 1560.85 Q1523.6 1564 1529.43 1564 Q1532.8 1564 1535.95 1563.17 Q1539.14 1562.35 1542.25 1560.69 L1542.25 1566.23 Q1539.1 1567.57 1535.79 1568.27 Q1532.48 1568.97 1529.08 1568.97 Q1520.55 1568.97 1515.55 1564 Q1510.59 1559.04 1510.59 1550.57 Q1510.59 1541.82 1515.3 1536.69 Q1520.04 1531.54 1528.06 1531.54 Q1535.25 1531.54 1539.42 1536.18 Q1543.62 1540.8 1543.62 1548.76 M1537.77 1547.04 Q1537.7 1542.23 1535.06 1539.37 Q1532.45 1536.5 1528.12 1536.5 Q1523.22 1536.5 1520.26 1539.27 Q1517.33 1542.04 1516.89 1547.07 L1537.77 1547.04 Z" fill="#000000" fill-rule="evenodd" fill-opacity="1" /><polyline clip-path="url(#clip990)" style="stroke:#000000; stroke-linecap:round; stroke-linejoin:round; stroke-width:4; stroke-opacity:1; fill:none" points="221.637,1423.18 221.637,123.472 "/>
<polyline clip-path="url(#clip990)" style="stroke:#000000; stroke-linecap:round; stroke-linejoin:round; stroke-width:4; stroke-opacity:1; fill:none" points="221.637,1386.4 240.535,1386.4 "/>
<polyline clip-path="url(#clip990)" style="stroke:#000000; stroke-linecap:round; stroke-linejoin:round; stroke-width:4; stroke-opacity:1; fill:none" points="221.637,529.772 240.535,529.772 "/>
<path clip-path="url(#clip990)" d="M114.931 1406.19 L122.57 1406.19 L122.57 1379.82 L114.26 1381.49 L114.26 1377.23 L122.524 1375.56 L127.2 1375.56 L127.2 1406.19 L134.839 1406.19 L134.839 1410.12 L114.931 1410.12 L114.931 1406.19 Z" fill="#000000" fill-rule="evenodd" fill-opacity="1" /><path clip-path="url(#clip990)" d="M154.283 1378.64 Q150.672 1378.64 148.843 1382.21 Q147.038 1385.75 147.038 1392.88 Q147.038 1399.98 148.843 1403.55 Q150.672 1407.09 154.283 1407.09 Q157.917 1407.09 159.723 1403.55 Q161.552 1399.98 161.552 1392.88 Q161.552 1385.75 159.723 1382.21 Q157.917 1378.64 154.283 1378.64 M154.283 1374.94 Q160.093 1374.94 163.149 1379.54 Q166.227 1384.13 166.227 1392.88 Q166.227 1401.6 163.149 1406.21 Q160.093 1410.79 154.283 1410.79 Q148.473 1410.79 145.394 1406.21 Q142.339 1401.6 142.339 1392.88 Q142.339 1384.13 145.394 1379.54 Q148.473 1374.94 154.283 1374.94 Z" fill="#000000" fill-rule="evenodd" fill-opacity="1" /><path clip-path="url(#clip990)" d="M175.932 1357.13 Q172.998 1357.13 171.512 1360.03 Q170.045 1362.91 170.045 1368.7 Q170.045 1374.48 171.512 1377.37 Q172.998 1380.25 175.932 1380.25 Q178.885 1380.25 180.352 1377.37 Q181.838 1374.48 181.838 1368.7 Q181.838 1362.91 180.352 1360.03 Q178.885 1357.13 175.932 1357.13 M175.932 1354.13 Q180.653 1354.13 183.136 1357.87 Q185.637 1361.59 185.637 1368.7 Q185.637 1375.79 183.136 1379.53 Q180.653 1383.26 175.932 1383.26 Q171.212 1383.26 168.71 1379.53 Q166.227 1375.79 166.227 1368.7 Q166.227 1361.59 168.71 1357.87 Q171.212 1354.13 175.932 1354.13 Z" fill="#000000" fill-rule="evenodd" fill-opacity="1" /><path clip-path="url(#clip990)" d="M117.621 549.565 L125.26 549.565 L125.26 523.199 L116.95 524.866 L116.95 520.607 L125.214 518.94 L129.889 518.94 L129.889 549.565 L137.528 549.565 L137.528 553.5 L117.621 553.5 L117.621 549.565 Z" fill="#000000" fill-rule="evenodd" fill-opacity="1" /><path clip-path="url(#clip990)" d="M156.973 522.019 Q153.362 522.019 151.533 525.584 Q149.727 529.125 149.727 536.255 Q149.727 543.361 151.533 546.926 Q153.362 550.468 156.973 550.468 Q160.607 550.468 162.412 546.926 Q164.241 543.361 164.241 536.255 Q164.241 529.125 162.412 525.584 Q160.607 522.019 156.973 522.019 M156.973 518.315 Q162.783 518.315 165.838 522.922 Q168.917 527.505 168.917 536.255 Q168.917 544.982 165.838 549.588 Q162.783 554.171 156.973 554.171 Q151.162 554.171 148.084 549.588 Q145.028 544.982 145.028 536.255 Q145.028 527.505 148.084 522.922 Q151.162 518.315 156.973 518.315 Z" fill="#000000" fill-rule="evenodd" fill-opacity="1" /><path clip-path="url(#clip990)" d="M169.462 522.892 L175.669 522.892 L175.669 501.47 L168.917 502.824 L168.917 499.364 L175.631 498.01 L179.431 498.01 L179.431 522.892 L185.637 522.892 L185.637 526.09 L169.462 526.09 L169.462 522.892 Z" fill="#000000" fill-rule="evenodd" fill-opacity="1" /><path clip-path="url(#clip990)" d="M16.4842 1124.62 L16.4842 1084.42 L21.895 1084.42 L21.895 1101.29 L64.0042 1101.29 L64.0042 1107.75 L21.895 1107.75 L21.895 1124.62 L16.4842 1124.62 Z" fill="#000000" fill-rule="evenodd" fill-opacity="1" /><path clip-path="url(#clip990)" d="M44.7161 1059.05 L47.5806 1059.05 L47.5806 1085.98 Q53.6281 1085.6 56.8109 1082.35 Q59.9619 1079.07 59.9619 1073.25 Q59.9619 1069.87 59.1344 1066.72 Q58.3069 1063.54 56.6518 1060.42 L62.1899 1060.42 Q63.5267 1063.57 64.227 1066.88 Q64.9272 1070.19 64.9272 1073.6 Q64.9272 1082.13 59.9619 1087.12 Q54.9967 1092.09 46.5303 1092.09 Q37.7774 1092.09 32.6531 1087.38 Q27.4968 1082.64 27.4968 1074.61 Q27.4968 1067.42 32.1438 1063.25 Q36.7589 1059.05 44.7161 1059.05 M42.9973 1064.91 Q38.1912 1064.97 35.3266 1067.61 Q32.4621 1070.22 32.4621 1074.55 Q32.4621 1079.45 35.2312 1082.41 Q38.0002 1085.34 43.0292 1085.79 L42.9973 1064.91 Z" fill="#000000" fill-rule="evenodd" fill-opacity="1" /><path clip-path="url(#clip990)" d="M35.1993 1021.68 Q31.2526 1019.49 29.3747 1016.43 Q27.4968 1013.38 27.4968 1009.24 Q27.4968 1003.67 31.4117 1000.65 Q35.2948 997.622 42.4881 997.622 L64.0042 997.622 L64.0042 1003.51 L42.679 1003.51 Q37.5546 1003.51 35.072 1005.32 Q32.5894 1007.14 32.5894 1010.86 Q32.5894 1015.41 35.6131 1018.06 Q38.6368 1020.7 43.8567 1020.7 L64.0042 1020.7 L64.0042 1026.59 L42.679 1026.59 Q37.5228 1026.59 35.072 1028.4 Q32.5894 1030.21 32.5894 1034 Q32.5894 1038.49 35.6449 1041.13 Q38.6686 1043.77 43.8567 1043.77 L64.0042 1043.77 L64.0042 1049.66 L28.3562 1049.66 L28.3562 1043.77 L33.8944 1043.77 Q30.616 1041.77 29.0564 1038.97 Q27.4968 1036.17 27.4968 1032.31 Q27.4968 1028.43 29.4702 1025.73 Q31.4436 1022.99 35.1993 1021.68 Z" fill="#000000" fill-rule="evenodd" fill-opacity="1" /><path clip-path="url(#clip990)" d="M58.657 980.275 L77.5631 980.275 L77.5631 986.163 L28.3562 986.163 L28.3562 980.275 L33.7671 980.275 Q30.5842 978.429 29.0564 975.628 Q27.4968 972.795 27.4968 968.88 Q27.4968 962.387 32.6531 958.345 Q37.8093 954.271 46.212 954.271 Q54.6147 954.271 59.771 958.345 Q64.9272 962.387 64.9272 968.88 Q64.9272 972.795 63.3994 975.628 Q61.8398 978.429 58.657 980.275 M46.212 960.35 Q39.7508 960.35 36.0905 963.024 Q32.3984 965.666 32.3984 970.313 Q32.3984 974.96 36.0905 977.633 Q39.7508 980.275 46.212 980.275 Q52.6732 980.275 56.3653 977.633 Q60.0256 974.96 60.0256 970.313 Q60.0256 965.666 56.3653 963.024 Q52.6732 960.35 46.212 960.35 Z" fill="#000000" fill-rule="evenodd" fill-opacity="1" /><path clip-path="url(#clip990)" d="M32.4621 930.75 Q32.4621 935.461 36.1542 938.198 Q39.8145 940.935 46.212 940.935 Q52.6095 940.935 56.3017 938.23 Q59.9619 935.492 59.9619 930.75 Q59.9619 926.071 56.2698 923.334 Q52.5777 920.597 46.212 920.597 Q39.8781 920.597 36.186 923.334 Q32.4621 926.071 32.4621 930.75 M27.4968 930.75 Q27.4968 923.111 32.4621 918.751 Q37.4273 914.39 46.212 914.39 Q54.9649 914.39 59.9619 918.751 Q64.9272 923.111 64.9272 930.75 Q64.9272 938.421 59.9619 942.781 Q54.9649 947.11 46.212 947.11 Q37.4273 947.11 32.4621 942.781 Q27.4968 938.421 27.4968 930.75 Z" fill="#000000" fill-rule="evenodd" fill-opacity="1" /><path clip-path="url(#clip990)" d="M33.8307 884.026 Q33.2578 885.012 33.0032 886.19 Q32.7167 887.336 32.7167 888.736 Q32.7167 893.701 35.9632 896.375 Q39.1779 899.017 45.2253 899.017 L64.0042 899.017 L64.0042 904.905 L28.3562 904.905 L28.3562 899.017 L33.8944 899.017 Q30.6479 897.171 29.0883 894.211 Q27.4968 891.251 27.4968 887.018 Q27.4968 886.413 27.5923 885.681 Q27.656 884.949 27.8151 884.057 L33.8307 884.026 Z" fill="#000000" fill-rule="evenodd" fill-opacity="1" /><path clip-path="url(#clip990)" d="M46.0847 861.682 Q46.0847 868.78 47.7079 871.517 Q49.3312 874.254 53.2461 874.254 Q56.3653 874.254 58.2114 872.217 Q60.0256 870.148 60.0256 866.615 Q60.0256 861.746 56.5881 858.817 Q53.1188 855.857 47.3897 855.857 L46.0847 855.857 L46.0847 861.682 M43.6657 850.001 L64.0042 850.001 L64.0042 855.857 L58.5933 855.857 Q61.8398 857.863 63.3994 860.854 Q64.9272 863.846 64.9272 868.175 Q64.9272 873.65 61.8716 876.896 Q58.7843 880.111 53.6281 880.111 Q47.6125 880.111 44.5569 876.1 Q41.5014 872.058 41.5014 864.069 L41.5014 855.857 L40.9285 855.857 Q36.8862 855.857 34.6901 858.531 Q32.4621 861.173 32.4621 865.979 Q32.4621 869.034 33.1941 871.931 Q33.9262 874.827 35.3903 877.501 L29.9795 877.501 Q28.7381 874.286 28.1334 871.262 Q27.4968 868.239 27.4968 865.374 Q27.4968 857.64 31.5072 853.82 Q35.5176 850.001 43.6657 850.001 Z" fill="#000000" fill-rule="evenodd" fill-opacity="1" /><path clip-path="url(#clip990)" d="M14.479 837.938 L14.479 832.081 L64.0042 832.081 L64.0042 837.938 L14.479 837.938 Z" fill="#000000" fill-rule="evenodd" fill-opacity="1" /><path clip-path="url(#clip990)" d="M21.7677 792.423 L39.6235 792.423 L39.6235 784.339 Q39.6235 779.851 37.3 777.4 Q34.9765 774.949 30.6797 774.949 Q26.4147 774.949 24.0912 777.4 Q21.7677 779.851 21.7677 784.339 L21.7677 792.423 M16.4842 798.852 L16.4842 784.339 Q16.4842 776.35 20.1126 772.276 Q23.7092 768.17 30.6797 768.17 Q37.7138 768.17 41.3104 772.276 Q44.907 776.35 44.907 784.339 L44.907 792.423 L64.0042 792.423 L64.0042 798.852 L16.4842 798.852 Z" fill="#000000" fill-rule="evenodd" fill-opacity="1" /><path clip-path="url(#clip990)" d="M46.0847 746.526 Q46.0847 753.624 47.7079 756.361 Q49.3312 759.099 53.2461 759.099 Q56.3653 759.099 58.2114 757.062 Q60.0256 754.993 60.0256 751.46 Q60.0256 746.59 56.5881 743.662 Q53.1188 740.702 47.3897 740.702 L46.0847 740.702 L46.0847 746.526 M43.6657 734.845 L64.0042 734.845 L64.0042 740.702 L58.5933 740.702 Q61.8398 742.707 63.3994 745.699 Q64.9272 748.691 64.9272 753.019 Q64.9272 758.494 61.8716 761.74 Q58.7843 764.955 53.6281 764.955 Q47.6125 764.955 44.5569 760.945 Q41.5014 756.902 41.5014 748.913 L41.5014 740.702 L40.9285 740.702 Q36.8862 740.702 34.6901 743.375 Q32.4621 746.017 32.4621 750.823 Q32.4621 753.879 33.1941 756.775 Q33.9262 759.672 35.3903 762.345 L29.9795 762.345 Q28.7381 759.13 28.1334 756.107 Q27.4968 753.083 27.4968 750.218 Q27.4968 742.484 31.5072 738.665 Q35.5176 734.845 43.6657 734.845 Z" fill="#000000" fill-rule="evenodd" fill-opacity="1" /><path clip-path="url(#clip990)" d="M18.2347 716.989 L28.3562 716.989 L28.3562 704.926 L32.9077 704.926 L32.9077 716.989 L52.2594 716.989 Q56.6199 716.989 57.8613 715.812 Q59.1026 714.602 59.1026 710.942 L59.1026 704.926 L64.0042 704.926 L64.0042 710.942 Q64.0042 717.722 61.4897 720.3 Q58.9434 722.878 52.2594 722.878 L32.9077 722.878 L32.9077 727.175 L28.3562 727.175 L28.3562 722.878 L18.2347 722.878 L18.2347 716.989 Z" fill="#000000" fill-rule="evenodd" fill-opacity="1" /><path clip-path="url(#clip990)" d="M42.4881 667.592 L64.0042 667.592 L64.0042 673.448 L42.679 673.448 Q37.6183 673.448 35.1038 675.421 Q32.5894 677.395 32.5894 681.342 Q32.5894 686.084 35.6131 688.821 Q38.6368 691.558 43.8567 691.558 L64.0042 691.558 L64.0042 697.447 L14.479 697.447 L14.479 691.558 L33.8944 691.558 Q30.6797 689.458 29.0883 686.625 Q27.4968 683.76 27.4968 680.037 Q27.4968 673.894 31.3163 670.743 Q35.1038 667.592 42.4881 667.592 Z" fill="#000000" fill-rule="evenodd" fill-opacity="1" /><path clip-path="url(#clip990)" d="M16.4842 634.936 L16.4842 628.506 L58.5933 628.506 L58.5933 605.367 L64.0042 605.367 L64.0042 634.936 L16.4842 634.936 Z" fill="#000000" fill-rule="evenodd" fill-opacity="1" /><path clip-path="url(#clip990)" d="M44.7161 569.528 L47.5806 569.528 L47.5806 596.455 Q53.6281 596.073 56.8109 592.826 Q59.9619 589.548 59.9619 583.723 Q59.9619 580.35 59.1344 577.199 Q58.3069 574.016 56.6518 570.897 L62.1899 570.897 Q63.5267 574.048 64.227 577.358 Q64.9272 580.668 64.9272 584.074 Q64.9272 592.604 59.9619 597.601 Q54.9967 602.566 46.5303 602.566 Q37.7774 602.566 32.6531 597.855 Q27.4968 593.113 27.4968 585.092 Q27.4968 577.899 32.1438 573.729 Q36.7589 569.528 44.7161 569.528 M42.9973 575.384 Q38.1912 575.448 35.3266 578.09 Q32.4621 580.7 32.4621 585.028 Q32.4621 589.93 35.2312 592.89 Q38.0002 595.818 43.0292 596.264 L42.9973 575.384 Z" fill="#000000" fill-rule="evenodd" fill-opacity="1" /><path clip-path="url(#clip990)" d="M42.4881 530.283 L64.0042 530.283 L64.0042 536.14 L42.679 536.14 Q37.6183 536.14 35.1038 538.113 Q32.5894 540.086 32.5894 544.033 Q32.5894 548.776 35.6131 551.513 Q38.6368 554.25 43.8567 554.25 L64.0042 554.25 L64.0042 560.138 L28.3562 560.138 L28.3562 554.25 L33.8944 554.25 Q30.6797 552.15 29.0883 549.317 Q27.4968 546.452 27.4968 542.728 Q27.4968 536.585 31.3163 533.434 Q35.1038 530.283 42.4881 530.283 Z" fill="#000000" fill-rule="evenodd" fill-opacity="1" /><path clip-path="url(#clip990)" d="M45.7664 495.145 Q39.4007 495.145 35.8996 497.786 Q32.3984 500.396 32.3984 505.139 Q32.3984 509.849 35.8996 512.491 Q39.4007 515.101 45.7664 515.101 Q52.1003 515.101 55.6014 512.491 Q59.1026 509.849 59.1026 505.139 Q59.1026 500.396 55.6014 497.786 Q52.1003 495.145 45.7664 495.145 M59.58 489.288 Q68.683 489.288 73.1071 493.33 Q77.5631 497.373 77.5631 505.712 Q77.5631 508.799 77.0857 511.536 Q76.6401 514.274 75.6852 516.852 L69.9879 516.852 Q71.3884 514.274 72.0568 511.759 Q72.7252 509.245 72.7252 506.635 Q72.7252 500.874 69.7015 498.009 Q66.7096 495.145 60.6303 495.145 L57.7339 495.145 Q60.885 496.959 62.4446 499.792 Q64.0042 502.624 64.0042 506.571 Q64.0042 513.128 59.0071 517.138 Q54.01 521.149 45.7664 521.149 Q37.491 521.149 32.4939 517.138 Q27.4968 513.128 27.4968 506.571 Q27.4968 502.624 29.0564 499.792 Q30.616 496.959 33.7671 495.145 L28.3562 495.145 L28.3562 489.288 L59.58 489.288 Z" fill="#000000" fill-rule="evenodd" fill-opacity="1" /><path clip-path="url(#clip990)" d="M18.2347 471.432 L28.3562 471.432 L28.3562 459.369 L32.9077 459.369 L32.9077 471.432 L52.2594 471.432 Q56.6199 471.432 57.8613 470.255 Q59.1026 469.045 59.1026 465.385 L59.1026 459.369 L64.0042 459.369 L64.0042 465.385 Q64.0042 472.164 61.4897 474.743 Q58.9434 477.321 52.2594 477.321 L32.9077 477.321 L32.9077 481.617 L28.3562 481.617 L28.3562 477.321 L18.2347 477.321 L18.2347 471.432 Z" fill="#000000" fill-rule="evenodd" fill-opacity="1" /><path clip-path="url(#clip990)" d="M42.4881 422.034 L64.0042 422.034 L64.0042 427.891 L42.679 427.891 Q37.6183 427.891 35.1038 429.864 Q32.5894 431.838 32.5894 435.784 Q32.5894 440.527 35.6131 443.264 Q38.6368 446.001 43.8567 446.001 L64.0042 446.001 L64.0042 451.89 L14.479 451.89 L14.479 446.001 L33.8944 446.001 Q30.6797 443.901 29.0883 441.068 Q27.4968 438.203 27.4968 434.479 Q27.4968 428.337 31.3163 425.185 Q35.1038 422.034 42.4881 422.034 Z" fill="#000000" fill-rule="evenodd" fill-opacity="1" /><path clip-path="url(#clip990)" d="M1102.23 39.9662 Q1108.11 41.222 1111.39 45.1919 Q1114.71 49.1618 1114.71 54.9951 Q1114.71 63.9476 1108.55 68.8492 Q1102.39 73.7508 1091.05 73.7508 Q1087.24 73.7508 1083.19 72.9811 Q1079.18 72.2519 1074.89 70.7531 L1074.89 62.8538 Q1078.29 64.8388 1082.34 65.8515 Q1086.39 66.8642 1090.81 66.8642 Q1098.51 66.8642 1102.52 63.826 Q1106.57 60.7879 1106.57 54.9951 Q1106.57 49.6479 1102.8 46.6502 Q1099.07 43.612 1092.39 43.612 L1085.34 43.612 L1085.34 36.8875 L1092.71 36.8875 Q1098.75 36.8875 1101.95 34.4975 Q1105.15 32.067 1105.15 27.5299 Q1105.15 22.8714 1101.83 20.4004 Q1098.55 17.8888 1092.39 17.8888 Q1089.03 17.8888 1085.18 18.618 Q1081.33 19.3471 1076.71 20.8865 L1076.71 13.5948 Q1081.37 12.2985 1085.42 11.6504 Q1089.51 11.0023 1093.12 11.0023 Q1102.43 11.0023 1107.86 15.2557 Q1113.29 19.4686 1113.29 26.6793 Q1113.29 31.7024 1110.42 35.1862 Q1107.54 38.6294 1102.23 39.9662 Z" fill="#000000" fill-rule="evenodd" fill-opacity="1" /><path clip-path="url(#clip990)" d="M1147.72 17.4837 Q1141.4 17.4837 1138.2 23.7221 Q1135.04 29.92 1135.04 42.3968 Q1135.04 54.833 1138.2 61.0714 Q1141.4 67.2693 1147.72 67.2693 Q1154.08 67.2693 1157.24 61.0714 Q1160.44 54.833 1160.44 42.3968 Q1160.44 29.92 1157.24 23.7221 Q1154.08 17.4837 1147.72 17.4837 M1147.72 11.0023 Q1157.89 11.0023 1163.24 19.0636 Q1168.63 27.0843 1168.63 42.3968 Q1168.63 57.6687 1163.24 65.73 Q1157.89 73.7508 1147.72 73.7508 Q1137.56 73.7508 1132.17 65.73 Q1126.82 57.6687 1126.82 42.3968 Q1126.82 27.0843 1132.17 19.0636 Q1137.56 11.0023 1147.72 11.0023 Z" fill="#000000" fill-rule="evenodd" fill-opacity="1" /><path clip-path="url(#clip990)" d="M1190.06 65.6895 L1218.61 65.6895 L1218.61 72.576 L1180.21 72.576 L1180.21 65.6895 Q1184.87 60.8689 1192.89 52.7671 Q1200.95 44.6248 1203.02 42.2752 Q1206.95 37.8598 1208.49 34.8216 Q1210.07 31.7429 1210.07 28.7857 Q1210.07 23.9651 1206.66 20.927 Q1203.3 17.8888 1197.87 17.8888 Q1194.03 17.8888 1189.73 19.2256 Q1185.48 20.5624 1180.62 23.2765 L1180.62 15.0127 Q1185.56 13.0277 1189.85 12.015 Q1194.15 11.0023 1197.71 11.0023 Q1207.11 11.0023 1212.7 15.7013 Q1218.29 20.4004 1218.29 28.2591 Q1218.29 31.9859 1216.87 35.3482 Q1215.5 38.6699 1211.81 43.2069 Q1210.8 44.3817 1205.37 50.0125 Q1199.94 55.6027 1190.06 65.6895 Z" fill="#000000" fill-rule="evenodd" fill-opacity="1" /><path clip-path="url(#clip990)" d="M1298.82 45.1919 L1298.82 72.576 L1291.37 72.576 L1291.37 45.4349 Q1291.37 38.994 1288.86 35.7938 Q1286.35 32.5936 1281.32 32.5936 Q1275.29 32.5936 1271.8 36.4419 Q1268.32 40.2903 1268.32 46.9338 L1268.32 72.576 L1260.83 72.576 L1260.83 27.2059 L1268.32 27.2059 L1268.32 34.2544 Q1270.99 30.163 1274.6 28.1376 Q1278.24 26.1121 1282.98 26.1121 Q1290.8 26.1121 1294.81 30.9732 Q1298.82 35.7938 1298.82 45.1919 Z" fill="#000000" fill-rule="evenodd" fill-opacity="1" /><path clip-path="url(#clip990)" d="M1331.27 32.4315 Q1325.27 32.4315 1321.79 37.1306 Q1318.31 41.7891 1318.31 49.9314 Q1318.31 58.0738 1321.75 62.7728 Q1325.23 67.4314 1331.27 67.4314 Q1337.23 67.4314 1340.71 62.7323 Q1344.19 58.0333 1344.19 49.9314 Q1344.19 41.8701 1340.71 37.1711 Q1337.23 32.4315 1331.27 32.4315 M1331.27 26.1121 Q1340.99 26.1121 1346.54 32.4315 Q1352.09 38.7509 1352.09 49.9314 Q1352.09 61.0714 1346.54 67.4314 Q1340.99 73.7508 1331.27 73.7508 Q1321.51 73.7508 1315.96 67.4314 Q1310.45 61.0714 1310.45 49.9314 Q1310.45 38.7509 1315.96 32.4315 Q1321.51 26.1121 1331.27 26.1121 Z" fill="#000000" fill-rule="evenodd" fill-opacity="1" /><path clip-path="url(#clip990)" d="M1394.3 34.0924 L1394.3 9.54393 L1401.76 9.54393 L1401.76 72.576 L1394.3 72.576 L1394.3 65.7705 Q1391.95 69.8214 1388.35 71.8063 Q1384.78 73.7508 1379.76 73.7508 Q1371.54 73.7508 1366.35 67.1883 Q1361.21 60.6258 1361.21 49.9314 Q1361.21 39.2371 1366.35 32.6746 Q1371.54 26.1121 1379.76 26.1121 Q1384.78 26.1121 1388.35 28.0971 Q1391.95 30.0415 1394.3 34.0924 M1368.9 49.9314 Q1368.9 58.1548 1372.27 62.8538 Q1375.67 67.5124 1381.58 67.5124 Q1387.5 67.5124 1390.9 62.8538 Q1394.3 58.1548 1394.3 49.9314 Q1394.3 41.7081 1390.9 37.0496 Q1387.5 32.3505 1381.58 32.3505 Q1375.67 32.3505 1372.27 37.0496 Q1368.9 41.7081 1368.9 49.9314 Z" fill="#000000" fill-rule="evenodd" fill-opacity="1" /><path clip-path="url(#clip990)" d="M1455.92 48.0275 L1455.92 51.6733 L1421.65 51.6733 Q1422.13 59.3701 1426.26 63.421 Q1430.44 67.4314 1437.85 67.4314 Q1442.14 67.4314 1446.15 66.3781 Q1450.2 65.3249 1454.17 63.2184 L1454.17 70.267 Q1450.16 71.9684 1445.95 72.8596 Q1441.74 73.7508 1437.4 73.7508 Q1426.55 73.7508 1420.19 67.4314 Q1413.87 61.1119 1413.87 50.3365 Q1413.87 39.1965 1419.86 32.6746 Q1425.9 26.1121 1436.11 26.1121 Q1445.26 26.1121 1450.57 32.0264 Q1455.92 37.9003 1455.92 48.0275 M1448.46 45.84 Q1448.38 39.7232 1445.02 36.0774 Q1441.7 32.4315 1436.19 32.4315 Q1429.95 32.4315 1426.18 35.9558 Q1422.46 39.4801 1421.89 45.8805 L1448.46 45.84 Z" fill="#000000" fill-rule="evenodd" fill-opacity="1" /><path clip-path="url(#clip990)" d="M1497.07 28.5427 L1497.07 35.5912 Q1493.91 33.9709 1490.51 33.1607 Q1487.11 32.3505 1483.46 32.3505 Q1477.91 32.3505 1475.12 34.0519 Q1472.36 35.7533 1472.36 39.156 Q1472.36 41.7486 1474.35 43.2475 Q1476.33 44.7058 1482.33 46.0426 L1484.88 46.6097 Q1492.82 48.3111 1496.14 51.4303 Q1499.5 54.509 1499.5 60.0587 Q1499.5 66.3781 1494.48 70.0644 Q1489.5 73.7508 1480.75 73.7508 Q1477.1 73.7508 1473.13 73.0216 Q1469.2 72.3329 1464.83 70.9151 L1464.83 63.2184 Q1468.96 65.3654 1472.97 66.4591 Q1476.98 67.5124 1480.91 67.5124 Q1486.18 67.5124 1489.01 65.73 Q1491.85 63.9071 1491.85 60.6258 Q1491.85 57.5877 1489.78 55.9673 Q1487.76 54.3469 1480.83 52.8481 L1478.24 52.2405 Q1471.31 50.7821 1468.23 47.7845 Q1465.15 44.7463 1465.15 39.4801 Q1465.15 33.0797 1469.69 29.5959 Q1474.23 26.1121 1482.57 26.1121 Q1486.7 26.1121 1490.35 26.7198 Q1494 27.3274 1497.07 28.5427 Z" fill="#000000" fill-rule="evenodd" fill-opacity="1" /><path clip-path="url(#clip992)" d="M2887.58 1313.36 L2773.95 1302.94 L2652.86 1292.42 L2523.86 1280.65 L2386.44 1270.41 L2240.06 1257.46 L2084.19 1243.33 L1918.24 1229.38 L1741.69 1214.76 L1554.07 1200.65 L1355.14 1183.65 L1145.26 1164.2 L925.969 1140.33 L701.612 1097.54 L482.94 988.185 L402.243 903.309 L329.8 786.211 L270.64 600.134 L232.304 284.384 L232.304 167.05 L270.64 310.423 L329.8 521.661 L402.243 680.733 L482.94 801.127 L701.612 980.933 L925.969 1078.47 L1145.26 1123.59 L1355.14 1143.38 L1554.07 1156.05 L1741.69 1166.16 L1918.24 1175.14 L2084.19 1184.69 L2240.06 1194.01 L2386.44 1203.8 L2523.86 1213.42 L2652.86 1223.12 L2773.95 1232.75 L2887.58 1242.59  Z" fill="#377db8" fill-rule="evenodd" fill-opacity="0.35"/>
<polyline clip-path="url(#clip992)" style="stroke:#377db8; stroke-linecap:round; stroke-linejoin:round; stroke-width:0; stroke-opacity:1; fill:none" points="2887.58,1313.36 2773.95,1302.94 2652.86,1292.42 2523.86,1280.65 2386.44,1270.41 2240.06,1257.46 2084.19,1243.33 1918.24,1229.38 1741.69,1214.76 1554.07,1200.65 1355.14,1183.65 1145.26,1164.2 925.969,1140.33 701.612,1097.54 482.94,988.185 402.243,903.309 329.8,786.211 270.64,600.134 232.304,284.384 "/>
<path clip-path="url(#clip992)" d="M2887.58 1313.55 L2773.95 1303.18 L2652.86 1292.7 L2523.86 1281.14 L2386.44 1270.76 L2240.06 1257.86 L2084.19 1244.23 L1918.24 1230.45 L1741.69 1215.99 L1554.07 1203.01 L1355.14 1187.99 L1145.26 1173.91 L925.969 1158.57 L701.612 1141.65 L482.94 1112.66 L402.243 1080.51 L329.8 1018.14 L270.64 921.347 L232.304 786.48 L232.304 728.551 L270.64 793.145 L329.8 878.098 L402.243 953.793 L482.94 1007.81 L701.612 1098.27 L925.969 1130.62 L1145.26 1142.45 L1355.14 1150.89 L1554.07 1158.93 L1741.69 1167.69 L1918.24 1176.25 L2084.19 1185.35 L2240.06 1194.56 L2386.44 1204.31 L2523.86 1213.89 L2652.86 1223.55 L2773.95 1233.18 L2887.58 1243  Z" fill="#f781be" fill-rule="evenodd" fill-opacity="0.35"/>
<polyline clip-path="url(#clip992)" style="stroke:#f781be; stroke-linecap:round; stroke-linejoin:round; stroke-width:0; stroke-opacity:1; fill:none" points="2887.58,1313.55 2773.95,1303.18 2652.86,1292.7 2523.86,1281.14 2386.44,1270.76 2240.06,1257.86 2084.19,1244.23 1918.24,1230.45 1741.69,1215.99 1554.07,1203.01 1355.14,1187.99 1145.26,1173.91 925.969,1158.57 701.612,1141.65 482.94,1112.66 402.243,1080.51 329.8,1018.14 270.64,921.347 232.304,786.48 "/>
<polyline clip-path="url(#clip992)" style="stroke:#f781be; stroke-linecap:round; stroke-linejoin:round; stroke-width:12; stroke-opacity:1; fill:none" points="2887.58,1269.61 2773.95,1259.31 2652.86,1249.14 2523.86,1238.13 2386.44,1227.59 2240.06,1216.95 2084.19,1206.26 1918.24,1195.47 1741.69,1184.16 1554.07,1173.43 1355.14,1162.98 1145.26,1152.54 925.969,1141.11 701.612,1122.73 482.94,1061.14 402.243,1007.16 329.8,941.291 270.64,846.297 232.304,745.472 "/>
<path clip-path="url(#clip992)" d="M2887.56 1316.14 L2773.96 1308.09 L2652.84 1299.44 L2523.84 1289.86 L2386.43 1280.76 L2240.03 1269.85 L2084.19 1258.9 L1918.24 1247.18 L1741.68 1234.44 L1554.01 1221.35 L1355.11 1207.16 L1145.24 1191.83 L925.928 1176.34 L701.607 1159.94 L482.973 1140.36 L402.228 1123.5 L329.821 1071.49 L270.649 889.113 L232.302 391.502 L232.302 169.164 L270.649 440.76 L329.821 786.8 L402.228 985.822 L482.973 1082.03 L701.607 1137.17 L925.928 1147.3 L1145.24 1156.56 L1355.11 1165.87 L1554.01 1175.13 L1741.68 1185.37 L1918.24 1195.57 L2084.19 1205.88 L2240.03 1216.06 L2386.43 1225.93 L2523.84 1235.9 L2652.84 1245.49 L2773.96 1254.92 L2887.56 1264.53  Z" fill="#999999" fill-rule="evenodd" fill-opacity="0.35"/>
<polyline clip-path="url(#clip992)" style="stroke:#999999; stroke-linecap:round; stroke-linejoin:round; stroke-width:0; stroke-opacity:1; fill:none" points="2887.56,1316.14 2773.96,1308.09 2652.84,1299.44 2523.84,1289.86 2386.43,1280.76 2240.03,1269.85 2084.19,1258.9 1918.24,1247.18 1741.68,1234.44 1554.01,1221.35 1355.11,1207.16 1145.24,1191.83 925.928,1176.34 701.607,1159.94 482.973,1140.36 402.228,1123.5 329.821,1071.49 270.649,889.113 232.302,391.502 "/>
<polyline clip-path="url(#clip992)" style="stroke:#999999; stroke-linecap:round; stroke-linejoin:round; stroke-width:12; stroke-opacity:1; fill:none" points="2887.56,1291.03 2773.96,1282.58 2652.84,1272.53 2523.84,1263.03 2386.43,1252.85 2240.03,1242.56 2084.19,1232.06 1918.24,1220.87 1741.68,1209.17 1554.01,1197.02 1355.11,1184.87 1145.24,1172.42 925.928,1160.72 701.607,1147.08 482.973,1120.75 402.228,1077.18 329.821,960.988 270.649,682.992 232.302,231.015 "/>
<path clip-path="url(#clip992)" d="M2908.91 1291.53 L2792.98 1283.33 L2674.55 1273.79 L2546.44 1264.82 L2401.6 1254.87 L2255.65 1244.62 L2107.34 1234.92 L1928.61 1223.41 L1758.48 1212.35 L1568.94 1200.75 L1372.05 1189.51 L1178.31 1177.84 L940.91 1165.08 L719.137 1152.87 L504.791 1141.6 L413.22 1100.7 L346.737 1001 L278.258 746.903 L236.171 367.769 L236.171 362.995 L278.258 737.82 L346.737 993.388 L413.22 1094.63 L504.791 1141.25 L719.137 1152.55 L940.91 1164.34 L1178.31 1177.1 L1372.05 1188.5 L1568.94 1200.31 L1758.48 1212.07 L1928.61 1222.7 L2107.34 1234.23 L2255.65 1243.76 L2401.6 1254.52 L2546.44 1264.4 L2674.55 1272.93 L2792.98 1282.28 L2908.91 1290.85  Z" fill="#ff7e00" fill-rule="evenodd" fill-opacity="0.35"/>
<polyline clip-path="url(#clip992)" style="stroke:#ff7e00; stroke-linecap:round; stroke-linejoin:round; stroke-width:0; stroke-opacity:1; fill:none" points="2908.91,1291.53 2792.98,1283.33 2674.55,1273.79 2546.44,1264.82 2401.6,1254.87 2255.65,1244.62 2107.34,1234.92 1928.61,1223.41 1758.48,1212.35 1568.94,1200.75 1372.05,1189.51 1178.31,1177.84 940.91,1165.08 719.137,1152.87 504.791,1141.6 413.22,1100.7 346.737,1001 278.258,746.903 236.171,367.769 "/>
<polyline clip-path="url(#clip992)" style="stroke:#ff7e00; stroke-linecap:round; stroke-linejoin:round; stroke-width:12; stroke-opacity:1; fill:none" points="2908.91,1291.16 2792.98,1282.96 2674.55,1273.41 2546.44,1264.58 2401.6,1254.69 2255.65,1244.23 2107.34,1234.44 1928.61,1223.13 1758.48,1212.15 1568.94,1200.43 1372.05,1189.22 1178.31,1177.31 940.91,1164.65 719.137,1152.78 504.791,1141.51 413.22,1099.23 346.737,997.639 278.258,740.849 236.171,364.478 "/>
<path clip-path="url(#clip992)" d="M221.637 160.256 L249.782 469.016 L329.942 944.393 L453.949 1115.11 L618.351 1148.7 L807.676 1159.16 L1042.94 1172.21 L1261.31 1185.02 L1532.26 1200.58 L1800.7 1218.57 L2026.58 1233.09 L2321.54 1250.31 L2573.48 1273.28 L2796.8 1286.62 L3006.88 1305.11 L3239.72 1322.98 L3429.79 1336.88 L3429.79 1329.28 L3239.72 1317.12 L3006.88 1298.35 L2796.8 1280.85 L2573.48 1265.24 L2321.54 1247.45 L2026.58 1228.37 L1800.7 1214.19 L1532.26 1198.17 L1261.31 1183.28 L1042.94 1170.58 L807.676 1157.78 L618.351 1147.58 L453.949 1103.3 L329.942 924.227 L249.782 454.026 L221.637 160.256  Z" fill="#4dae49" fill-rule="evenodd" fill-opacity="0.35"/>
<polyline clip-path="url(#clip992)" style="stroke:#4dae49; stroke-linecap:round; stroke-linejoin:round; stroke-width:0; stroke-opacity:1; fill:none" points="221.637,160.256 249.782,469.016 329.942,944.393 453.949,1115.11 618.351,1148.7 807.676,1159.16 1042.94,1172.21 1261.31,1185.02 1532.26,1200.58 1800.7,1218.57 2026.58,1233.09 2321.54,1250.31 2573.48,1273.28 2796.8,1286.62 3006.88,1305.11 3239.72,1322.98 3429.79,1336.88 "/>
<polyline clip-path="url(#clip992)" style="stroke:#4dae49; stroke-linecap:round; stroke-linejoin:round; stroke-width:12; stroke-opacity:1; fill:none" points="221.637,160.256 249.782,460.204 329.942,936.121 453.949,1111.22 618.351,1148.26 807.676,1158.5 1042.94,1171.49 1261.31,1183.92 1532.26,1199.89 1800.7,1217.47 2026.58,1230.21 2321.54,1248.52 2573.48,1268.92 2796.8,1283.93 3006.88,1301.04 3239.72,1321.3 3429.79,1334.97 "/>
<path clip-path="url(#clip992)" d="M3994.97 1386.4 L2393.28 1256.6 L2363.38 1254.37 L2256.76 1246.85 L2108.75 1239.57 L2005.38 1232.04 L1884.78 1221.58 L1699.96 1212.28 L1619.01 1209.19 L1460.09 1196.95 L1316.57 1190.53 L1237.06 1182.69 L1086.04 1174.65 L1013.41 1170.21 L904.987 1166.3 L846.131 1161.53 L738.175 1156.84 L674.882 1153.36 L613.459 1150.44 L562.529 1145.7 L514.534 1143.18 L457.079 1141.51 L431.274 1137.5 L391.547 1137.57 L366.813 1128.45 L347.155 1109.94 L328.66 1104.13 L310.181 1097.29 L293.246 1058.94 L284.962 1042.06 L270.805 1012.24 L263.624 965.434 L254.562 899.396 L250.038 863.338 L242.377 778.034 L237.889 689.472 L238.033 657.587 L238.033 584.763 L237.889 596.676 L242.377 733.783 L250.038 805.022 L254.562 819.096 L263.624 906.548 L270.805 973.705 L284.962 970.703 L293.246 1007.18 L310.181 1058.99 L328.66 1079.93 L347.155 1101.08 L366.813 1114.58 L391.547 1121.05 L431.274 1132.25 L457.079 1136.26 L514.534 1141.77 L562.529 1144.06 L613.459 1145.69 L674.882 1149.71 L738.175 1153.48 L846.131 1157.06 L904.987 1162.93 L1013.41 1167.71 L1086.04 1167.6 L1237.06 1177.05 L1316.57 1184.65 L1460.09 1193.5 L1619.01 1201.53 L1699.96 1207.65 L1884.78 1216.38 L2005.38 1226.16 L2108.75 1232.71 L2256.76 1242.65 L2363.38 1251.1 L2393.28 1252.53 L3994.97 1386.4  Z" fill="#974ea2" fill-rule="evenodd" fill-opacity="0.35"/>
<polyline clip-path="url(#clip992)" style="stroke:#974ea2; stroke-linecap:round; stroke-linejoin:round; stroke-width:0; stroke-opacity:1; fill:none" points="3994.97,1386.4 2393.28,1256.6 2363.38,1254.37 2256.76,1246.85 2108.75,1239.57 2005.38,1232.04 1884.78,1221.58 1699.96,1212.28 1619.01,1209.19 1460.09,1196.95 1316.57,1190.53 1237.06,1182.69 1086.04,1174.65 1013.41,1170.21 904.987,1166.3 846.131,1161.53 738.175,1156.84 674.882,1153.36 613.459,1150.44 562.529,1145.7 514.534,1143.18 457.079,1141.51 431.274,1137.5 391.547,1137.57 366.813,1128.45 347.155,1109.94 328.66,1104.13 310.181,1097.29 293.246,1058.94 284.962,1042.06 270.805,1012.24 263.624,965.434 254.562,899.396 250.038,863.338 242.377,778.034 237.889,689.472 238.033,657.587 "/>
<polyline clip-path="url(#clip992)" style="stroke:#974ea2; stroke-linecap:round; stroke-linejoin:round; stroke-width:12; stroke-opacity:1; fill:none" points="3994.97,1386.4 2393.28,1254.55 2363.38,1252.56 2256.76,1245.26 2108.75,1239.18 2005.38,1227.73 1884.78,1220.08 1699.96,1208.84 1619.01,1203.99 1460.09,1194.27 1316.57,1185.41 1237.06,1181.73 1086.04,1172.44 1013.41,1169.15 904.987,1164.81 846.131,1159.78 738.175,1155.92 674.882,1152 613.459,1149.57 562.529,1144.56 514.534,1142.22 457.079,1139.61 431.274,1135.77 391.547,1131.57 366.813,1124.19 347.155,1106.5 328.66,1085.44 310.181,1069.74 293.246,1024.69 284.962,1013 270.805,985.684 263.624,932.038 254.562,864.977 250.038,815.573 242.377,759.807 237.889,656.238 238.033,609.926 "/>
<path clip-path="url(#clip992)" d="M3994.97 1386.4 L2403.41 1259.05 L2299.76 1251.78 L2148.96 1242.56 L1970.37 1228.78 L1773.7 1217.5 L1557.53 1204.1 L1351.47 1191.37 L1155.76 1179.25 L992.576 1171.13 L848.664 1164.68 L725.525 1155.57 L623.49 1149.37 L538.973 1144.63 L477.504 1141.58 L420.543 1138.32 L378.106 1131.03 L344.547 1114.61 L317.018 1067.36 L295.878 1059.27 L280.535 1004.97 L267.396 906.563 L257.484 866.173 L249.7 829.429 L243.789 746.744 L238.572 658.395 L234.683 604.413 L231.868 545.464 L229.839 497.399 L227.771 387.588 L226.443 327.925 L225.436 280.201 L224.557 211.696 L223.906 185.904 L223.413 173.751 L222.994 166.634 L222.701 164.123 L222.701 163.288 L222.994 165.308 L223.413 170.864 L223.906 180.154 L224.557 202.083 L225.436 248.157 L226.443 304.572 L227.771 372.379 L229.839 466.169 L231.868 526.806 L234.683 584.637 L238.572 643.272 L243.789 713.501 L249.7 787.956 L257.484 833.784 L267.396 881.533 L280.535 927.731 L295.878 995.412 L317.018 1007.48 L344.547 1086.22 L378.106 1113.1 L420.543 1134.48 L477.504 1139.93 L538.973 1143.47 L623.49 1148.34 L725.525 1152.97 L848.664 1159.49 L992.576 1165.89 L1155.76 1176.78 L1351.47 1186.22 L1557.53 1196.39 L1773.7 1211.41 L1970.37 1224.02 L2148.96 1234.71 L2299.76 1245.02 L2403.41 1249.73 L3994.97 1386.4  Z" fill="#e31a1c" fill-rule="evenodd" fill-opacity="0.35"/>
<polyline clip-path="url(#clip992)" style="stroke:#e31a1c; stroke-linecap:round; stroke-linejoin:round; stroke-width:0; stroke-opacity:1; fill:none" points="3994.97,1386.4 2403.41,1259.05 2299.76,1251.78 2148.96,1242.56 1970.37,1228.78 1773.7,1217.5 1557.53,1204.1 1351.47,1191.37 1155.76,1179.25 992.576,1171.13 848.664,1164.68 725.525,1155.57 623.49,1149.37 538.973,1144.63 477.504,1141.58 420.543,1138.32 378.106,1131.03 344.547,1114.61 317.018,1067.36 295.878,1059.27 280.535,1004.97 267.396,906.563 257.484,866.173 249.7,829.429 243.789,746.744 238.572,658.395 234.683,604.413 231.868,545.464 229.839,497.399 227.771,387.588 226.443,327.925 225.436,280.201 224.557,211.696 223.906,185.904 223.413,173.751 222.994,166.634 222.701,164.123 "/>
<polyline clip-path="url(#clip992)" style="stroke:#e31a1c; stroke-linecap:round; stroke-linejoin:round; stroke-width:12; stroke-opacity:1; fill:none" points="3994.97,1386.4 2403.41,1255.91 2299.76,1246.7 2148.96,1237.57 1970.37,1226.82 1773.7,1212.81 1557.53,1201.31 1351.47,1187.42 1155.76,1177.66 992.576,1167.37 848.664,1161.59 725.525,1154.68 623.49,1148.49 538.973,1143.91 477.504,1140.87 420.543,1137.09 378.106,1124.3 344.547,1100.19 317.018,1051.19 295.878,1013.19 280.535,955.089 267.396,896.797 257.484,855.313 249.7,797.646 243.789,719.112 238.572,653.239 234.683,597.043 231.868,533.384 229.839,477.447 227.771,381.623 226.443,319.742 225.436,261.88 224.557,208.068 223.906,183.812 223.413,172.562 222.994,166.101 222.701,163.758 "/>
<polyline clip-path="url(#clip992)" style="stroke:#377db8; stroke-linecap:round; stroke-linejoin:round; stroke-width:12; stroke-opacity:1; fill:none" points="2887.58,1269.28 2773.95,1258.98 2652.86,1248.77 2523.86,1237.7 2386.44,1227.19 2240.06,1216.48 2084.19,1205.76 1918.24,1194.04 1741.69,1182.5 1554.07,1169.84 1355.14,1156.54 1145.26,1139.4 925.969,1109.24 701.612,1037.41 482.94,886.707 402.243,787.693 329.8,643.192 270.64,442.841 232.304,198.203 "/>
</svg>
