<?xml version="1.0" encoding="utf-8"?>
<svg xmlns="http://www.w3.org/2000/svg" xmlns:xlink="http://www.w3.org/1999/xlink" width="600" height="400" viewBox="0 0 2400 1600">
<defs>
  <clipPath id="clip870">
    <rect x="0" y="0" width="2400" height="1600"/>
  </clipPath>
</defs>
<path clip-path="url(#clip870)" d="M0 1600 L2400 1600 L2400 0 L0 0  Z" fill="#ffffff" fill-rule="evenodd" fill-opacity="1"/>
<defs>
  <clipPath id="clip871">
    <rect x="480" y="0" width="1681" height="1600"/>
  </clipPath>
</defs>
<path clip-path="url(#clip870)" d="M249.542 1423.18 L2352.76 1423.18 L2352.76 123.472 L249.542 123.472  Z" fill="#ffffff" fill-rule="evenodd" fill-opacity="1"/>
<defs>
  <clipPath id="clip872">
    <rect x="249" y="123" width="2104" height="1301"/>
  </clipPath>
</defs>
<polyline clip-path="url(#clip870)" style="stroke:#000000; stroke-linecap:round; stroke-linejoin:round; stroke-width:4; stroke-opacity:1; fill:none" points="249.542,1423.18 2352.76,1423.18 "/>
<polyline clip-path="url(#clip870)" style="stroke:#000000; stroke-linecap:round; stroke-linejoin:round; stroke-width:4; stroke-opacity:1; fill:none" points="249.542,1423.18 249.542,1404.28 "/>
<polyline clip-path="url(#clip870)" style="stroke:#000000; stroke-linecap:round; stroke-linejoin:round; stroke-width:4; stroke-opacity:1; fill:none" points="868.134,1423.18 868.134,1404.28 "/>
<polyline clip-path="url(#clip870)" style="stroke:#000000; stroke-linecap:round; stroke-linejoin:round; stroke-width:4; stroke-opacity:1; fill:none" points="1486.73,1423.18 1486.73,1404.28 "/>
<polyline clip-path="url(#clip870)" style="stroke:#000000; stroke-linecap:round; stroke-linejoin:round; stroke-width:4; stroke-opacity:1; fill:none" points="2105.32,1423.18 2105.32,1404.28 "/>
<path clip-path="url(#clip870)" d="M249.542 1454.1 Q245.931 1454.1 244.102 1457.66 Q242.297 1461.2 242.297 1468.33 Q242.297 1475.44 244.102 1479.01 Q245.931 1482.55 249.542 1482.55 Q253.176 1482.55 254.982 1479.01 Q256.811 1475.44 256.811 1468.33 Q256.811 1461.2 254.982 1457.66 Q253.176 1454.1 249.542 1454.1 M249.542 1450.39 Q255.352 1450.39 258.408 1455 Q261.486 1459.58 261.486 1468.33 Q261.486 1477.06 258.408 1481.67 Q255.352 1486.25 249.542 1486.25 Q243.732 1486.25 240.653 1481.67 Q237.598 1477.06 237.598 1468.33 Q237.598 1459.58 240.653 1455 Q243.732 1450.39 249.542 1450.39 Z" fill="#000000" fill-rule="evenodd" fill-opacity="1" /><path clip-path="url(#clip870)" d="M842.834 1451.02 L861.19 1451.02 L861.19 1454.96 L847.116 1454.96 L847.116 1463.43 Q848.134 1463.08 849.153 1462.92 Q850.171 1462.73 851.19 1462.73 Q856.977 1462.73 860.357 1465.9 Q863.736 1469.08 863.736 1474.49 Q863.736 1480.07 860.264 1483.17 Q856.792 1486.25 850.472 1486.25 Q848.296 1486.25 846.028 1485.88 Q843.783 1485.51 841.375 1484.77 L841.375 1480.07 Q843.459 1481.2 845.681 1481.76 Q847.903 1482.32 850.38 1482.32 Q854.384 1482.32 856.722 1480.21 Q859.06 1478.1 859.06 1474.49 Q859.06 1470.88 856.722 1468.77 Q854.384 1466.67 850.38 1466.67 Q848.505 1466.67 846.63 1467.08 Q844.778 1467.5 842.834 1468.38 L842.834 1451.02 Z" fill="#000000" fill-rule="evenodd" fill-opacity="1" /><path clip-path="url(#clip870)" d="M882.949 1454.1 Q879.338 1454.1 877.509 1457.66 Q875.704 1461.2 875.704 1468.33 Q875.704 1475.44 877.509 1479.01 Q879.338 1482.55 882.949 1482.55 Q886.583 1482.55 888.389 1479.01 Q890.218 1475.44 890.218 1468.33 Q890.218 1461.2 888.389 1457.66 Q886.583 1454.1 882.949 1454.1 M882.949 1450.39 Q888.759 1450.39 891.815 1455 Q894.893 1459.58 894.893 1468.33 Q894.893 1477.06 891.815 1481.67 Q888.759 1486.25 882.949 1486.25 Q877.139 1486.25 874.06 1481.67 Q871.005 1477.06 871.005 1468.33 Q871.005 1459.58 874.06 1455 Q877.139 1450.39 882.949 1450.39 Z" fill="#000000" fill-rule="evenodd" fill-opacity="1" /><path clip-path="url(#clip870)" d="M1446.33 1481.64 L1453.97 1481.64 L1453.97 1455.28 L1445.66 1456.95 L1445.66 1452.69 L1453.93 1451.02 L1458.6 1451.02 L1458.6 1481.64 L1466.24 1481.64 L1466.24 1485.58 L1446.33 1485.58 L1446.33 1481.64 Z" fill="#000000" fill-rule="evenodd" fill-opacity="1" /><path clip-path="url(#clip870)" d="M1485.69 1454.1 Q1482.07 1454.1 1480.25 1457.66 Q1478.44 1461.2 1478.44 1468.33 Q1478.44 1475.44 1480.25 1479.01 Q1482.07 1482.55 1485.69 1482.55 Q1489.32 1482.55 1491.12 1479.01 Q1492.95 1475.44 1492.95 1468.33 Q1492.95 1461.2 1491.12 1457.66 Q1489.32 1454.1 1485.69 1454.1 M1485.69 1450.39 Q1491.5 1450.39 1494.55 1455 Q1497.63 1459.58 1497.63 1468.33 Q1497.63 1477.06 1494.55 1481.67 Q1491.5 1486.25 1485.69 1486.25 Q1479.87 1486.25 1476.8 1481.67 Q1473.74 1477.06 1473.74 1468.33 Q1473.74 1459.58 1476.8 1455 Q1479.87 1450.39 1485.69 1450.39 Z" fill="#000000" fill-rule="evenodd" fill-opacity="1" /><path clip-path="url(#clip870)" d="M1515.85 1454.1 Q1512.24 1454.1 1510.41 1457.66 Q1508.6 1461.2 1508.6 1468.33 Q1508.6 1475.44 1510.41 1479.01 Q1512.24 1482.55 1515.85 1482.55 Q1519.48 1482.55 1521.29 1479.01 Q1523.12 1475.44 1523.12 1468.33 Q1523.12 1461.2 1521.29 1457.66 Q1519.48 1454.1 1515.85 1454.1 M1515.85 1450.39 Q1521.66 1450.39 1524.71 1455 Q1527.79 1459.58 1527.79 1468.33 Q1527.79 1477.06 1524.71 1481.67 Q1521.66 1486.25 1515.85 1486.25 Q1510.04 1486.25 1506.96 1481.67 Q1503.9 1477.06 1503.9 1468.33 Q1503.9 1459.58 1506.96 1455 Q1510.04 1450.39 1515.85 1450.39 Z" fill="#000000" fill-rule="evenodd" fill-opacity="1" /><path clip-path="url(#clip870)" d="M2064.93 1481.64 L2072.56 1481.64 L2072.56 1455.28 L2064.25 1456.95 L2064.25 1452.69 L2072.52 1451.02 L2077.19 1451.02 L2077.19 1481.64 L2084.83 1481.64 L2084.83 1485.58 L2064.93 1485.58 L2064.93 1481.64 Z" fill="#000000" fill-rule="evenodd" fill-opacity="1" /><path clip-path="url(#clip870)" d="M2094.32 1451.02 L2112.68 1451.02 L2112.68 1454.96 L2098.61 1454.96 L2098.61 1463.43 Q2099.62 1463.08 2100.64 1462.92 Q2101.66 1462.73 2102.68 1462.73 Q2108.47 1462.73 2111.85 1465.9 Q2115.23 1469.08 2115.23 1474.49 Q2115.23 1480.07 2111.75 1483.17 Q2108.28 1486.25 2101.96 1486.25 Q2099.79 1486.25 2097.52 1485.88 Q2095.27 1485.51 2092.87 1484.77 L2092.87 1480.07 Q2094.95 1481.2 2097.17 1481.76 Q2099.39 1482.32 2101.87 1482.32 Q2105.87 1482.32 2108.21 1480.21 Q2110.55 1478.1 2110.55 1474.49 Q2110.55 1470.88 2108.21 1468.77 Q2105.87 1466.67 2101.87 1466.67 Q2099.99 1466.67 2098.12 1467.08 Q2096.27 1467.5 2094.32 1468.38 L2094.32 1451.02 Z" fill="#000000" fill-rule="evenodd" fill-opacity="1" /><path clip-path="url(#clip870)" d="M2134.44 1454.1 Q2130.83 1454.1 2129 1457.66 Q2127.19 1461.2 2127.19 1468.33 Q2127.19 1475.44 2129 1479.01 Q2130.83 1482.55 2134.44 1482.55 Q2138.07 1482.55 2139.88 1479.01 Q2141.71 1475.44 2141.71 1468.33 Q2141.71 1461.2 2139.88 1457.66 Q2138.07 1454.1 2134.44 1454.1 M2134.44 1450.39 Q2140.25 1450.39 2143.3 1455 Q2146.38 1459.58 2146.38 1468.33 Q2146.38 1477.06 2143.3 1481.67 Q2140.25 1486.25 2134.44 1486.25 Q2128.63 1486.25 2125.55 1481.67 Q2122.49 1477.06 2122.49 1468.33 Q2122.49 1459.58 2125.55 1455 Q2128.63 1450.39 2134.44 1450.39 Z" fill="#000000" fill-rule="evenodd" fill-opacity="1" /><path clip-path="url(#clip870)" d="M1066.49 1526.86 L1057.77 1550.51 L1075.25 1550.51 L1066.49 1526.86 M1062.86 1520.52 L1070.15 1520.52 L1088.26 1568.04 L1081.58 1568.04 L1077.25 1555.85 L1055.83 1555.85 L1051.5 1568.04 L1044.72 1568.04 L1062.86 1520.52 Z" fill="#000000" fill-rule="evenodd" fill-opacity="1" /><path clip-path="url(#clip870)" d="M1086.93 1532.4 L1093.13 1532.4 L1104.27 1562.31 L1115.41 1532.4 L1121.62 1532.4 L1108.25 1568.04 L1100.3 1568.04 L1086.93 1532.4 Z" fill="#000000" fill-rule="evenodd" fill-opacity="1" /><path clip-path="url(#clip870)" d="M1160.2 1548.76 L1160.2 1551.62 L1133.27 1551.62 Q1133.65 1557.67 1136.9 1560.85 Q1140.18 1564 1146 1564 Q1149.37 1564 1152.53 1563.17 Q1155.71 1562.35 1158.83 1560.69 L1158.83 1566.23 Q1155.68 1567.57 1152.37 1568.27 Q1149.06 1568.97 1145.65 1568.97 Q1137.12 1568.97 1132.12 1564 Q1127.16 1559.04 1127.16 1550.57 Q1127.16 1541.82 1131.87 1536.69 Q1136.61 1531.54 1144.63 1531.54 Q1151.83 1531.54 1155.99 1536.18 Q1160.2 1540.8 1160.2 1548.76 M1154.34 1547.04 Q1154.28 1542.23 1151.63 1539.37 Q1149.02 1536.5 1144.7 1536.5 Q1139.79 1536.5 1136.83 1539.27 Q1133.91 1542.04 1133.46 1547.07 L1154.34 1547.04 Z" fill="#000000" fill-rule="evenodd" fill-opacity="1" /><path clip-path="url(#clip870)" d="M1190.47 1537.87 Q1189.48 1537.3 1188.3 1537.04 Q1187.16 1536.76 1185.75 1536.76 Q1180.79 1536.76 1178.12 1540 Q1175.47 1543.22 1175.47 1549.27 L1175.47 1568.04 L1169.59 1568.04 L1169.59 1532.4 L1175.47 1532.4 L1175.47 1537.93 Q1177.32 1534.69 1180.28 1533.13 Q1183.24 1531.54 1187.47 1531.54 Q1188.08 1531.54 1188.81 1531.63 Q1189.54 1531.7 1190.43 1531.85 L1190.47 1537.87 Z" fill="#000000" fill-rule="evenodd" fill-opacity="1" /><path clip-path="url(#clip870)" d="M1212.81 1550.12 Q1205.71 1550.12 1202.97 1551.75 Q1200.24 1553.37 1200.24 1557.29 Q1200.24 1560.4 1202.27 1562.25 Q1204.34 1564.07 1207.88 1564.07 Q1212.75 1564.07 1215.67 1560.63 Q1218.63 1557.16 1218.63 1551.43 L1218.63 1550.12 L1212.81 1550.12 M1224.49 1547.71 L1224.49 1568.04 L1218.63 1568.04 L1218.63 1562.63 Q1216.63 1565.88 1213.64 1567.44 Q1210.64 1568.97 1206.32 1568.97 Q1200.84 1568.97 1197.59 1565.91 Q1194.38 1562.82 1194.38 1557.67 Q1194.38 1551.65 1198.39 1548.6 Q1202.43 1545.54 1210.42 1545.54 L1218.63 1545.54 L1218.63 1544.97 Q1218.63 1540.93 1215.96 1538.73 Q1213.32 1536.5 1208.51 1536.5 Q1205.46 1536.5 1202.56 1537.23 Q1199.66 1537.97 1196.99 1539.43 L1196.99 1534.02 Q1200.2 1532.78 1203.23 1532.17 Q1206.25 1531.54 1209.12 1531.54 Q1216.85 1531.54 1220.67 1535.55 Q1224.49 1539.56 1224.49 1547.71 Z" fill="#000000" fill-rule="evenodd" fill-opacity="1" /><path clip-path="url(#clip870)" d="M1260.01 1549.81 Q1260.01 1543.44 1257.37 1539.94 Q1254.76 1536.44 1250.02 1536.44 Q1245.31 1536.44 1242.66 1539.94 Q1240.05 1543.44 1240.05 1549.81 Q1240.05 1556.14 1242.66 1559.64 Q1245.31 1563.14 1250.02 1563.14 Q1254.76 1563.14 1257.37 1559.64 Q1260.01 1556.14 1260.01 1549.81 M1265.87 1563.62 Q1265.87 1572.72 1261.82 1577.15 Q1257.78 1581.6 1249.44 1581.6 Q1246.36 1581.6 1243.62 1581.13 Q1240.88 1580.68 1238.3 1579.72 L1238.3 1574.03 Q1240.88 1575.43 1243.4 1576.1 Q1245.91 1576.76 1248.52 1576.76 Q1254.28 1576.76 1257.15 1573.74 Q1260.01 1570.75 1260.01 1564.67 L1260.01 1561.77 Q1258.2 1564.92 1255.36 1566.48 Q1252.53 1568.04 1248.58 1568.04 Q1242.03 1568.04 1238.02 1563.05 Q1234.01 1558.05 1234.01 1549.81 Q1234.01 1541.53 1238.02 1536.53 Q1242.03 1531.54 1248.58 1531.54 Q1252.53 1531.54 1255.36 1533.1 Q1258.2 1534.66 1260.01 1537.81 L1260.01 1532.4 L1265.87 1532.4 L1265.87 1563.62 Z" fill="#000000" fill-rule="evenodd" fill-opacity="1" /><path clip-path="url(#clip870)" d="M1308.42 1548.76 L1308.42 1551.62 L1281.49 1551.62 Q1281.88 1557.67 1285.12 1560.85 Q1288.4 1564 1294.23 1564 Q1297.6 1564 1300.75 1563.17 Q1303.93 1562.35 1307.05 1560.69 L1307.05 1566.23 Q1303.9 1567.57 1300.59 1568.27 Q1297.28 1568.97 1293.88 1568.97 Q1285.35 1568.97 1280.35 1564 Q1275.38 1559.04 1275.38 1550.57 Q1275.38 1541.82 1280.09 1536.69 Q1284.84 1531.54 1292.86 1531.54 Q1300.05 1531.54 1304.22 1536.18 Q1308.42 1540.8 1308.42 1548.76 M1302.57 1547.04 Q1302.5 1542.23 1299.86 1539.37 Q1297.25 1536.5 1292.92 1536.5 Q1288.02 1536.5 1285.06 1539.27 Q1282.13 1542.04 1281.69 1547.07 L1302.57 1547.04 Z" fill="#000000" fill-rule="evenodd" fill-opacity="1" /><path clip-path="url(#clip870)" d="M1362.21 1537.81 L1362.21 1518.52 L1368.07 1518.52 L1368.07 1568.04 L1362.21 1568.04 L1362.21 1562.7 Q1360.37 1565.88 1357.53 1567.44 Q1354.73 1568.97 1350.79 1568.97 Q1344.32 1568.97 1340.25 1563.81 Q1336.21 1558.65 1336.21 1550.25 Q1336.21 1541.85 1340.25 1536.69 Q1344.32 1531.54 1350.79 1531.54 Q1354.73 1531.54 1357.53 1533.1 Q1360.37 1534.62 1362.21 1537.81 M1342.26 1550.25 Q1342.26 1556.71 1344.9 1560.4 Q1347.57 1564.07 1352.22 1564.07 Q1356.86 1564.07 1359.54 1560.4 Q1362.21 1556.71 1362.21 1550.25 Q1362.21 1543.79 1359.54 1540.13 Q1356.86 1536.44 1352.22 1536.44 Q1347.57 1536.44 1344.9 1540.13 Q1342.26 1543.79 1342.26 1550.25 Z" fill="#000000" fill-rule="evenodd" fill-opacity="1" /><path clip-path="url(#clip870)" d="M1410.62 1548.76 L1410.62 1551.62 L1383.7 1551.62 Q1384.08 1557.67 1387.32 1560.85 Q1390.6 1564 1396.43 1564 Q1399.8 1564 1402.95 1563.17 Q1406.14 1562.35 1409.25 1560.69 L1409.25 1566.23 Q1406.1 1567.57 1402.79 1568.27 Q1399.48 1568.97 1396.08 1568.97 Q1387.55 1568.97 1382.55 1564 Q1377.59 1559.04 1377.59 1550.57 Q1377.59 1541.82 1382.3 1536.69 Q1387.04 1531.54 1395.06 1531.54 Q1402.25 1531.54 1406.42 1536.18 Q1410.62 1540.8 1410.62 1548.76 M1404.77 1547.04 Q1404.7 1542.23 1402.06 1539.37 Q1399.45 1536.5 1395.12 1536.5 Q1390.22 1536.5 1387.26 1539.27 Q1384.33 1542.04 1383.89 1547.07 L1404.77 1547.04 Z" fill="#000000" fill-rule="evenodd" fill-opacity="1" /><path clip-path="url(#clip870)" d="M1443.69 1549.81 Q1443.69 1543.44 1441.05 1539.94 Q1438.44 1536.44 1433.7 1536.44 Q1428.99 1536.44 1426.35 1539.94 Q1423.74 1543.44 1423.74 1549.81 Q1423.74 1556.14 1426.35 1559.64 Q1428.99 1563.14 1433.7 1563.14 Q1438.44 1563.14 1441.05 1559.64 Q1443.69 1556.14 1443.69 1549.81 M1449.55 1563.62 Q1449.55 1572.72 1445.51 1577.15 Q1441.47 1581.6 1433.13 1581.6 Q1430.04 1581.6 1427.3 1581.13 Q1424.56 1580.68 1421.99 1579.72 L1421.99 1574.03 Q1424.56 1575.43 1427.08 1576.1 Q1429.59 1576.76 1432.2 1576.76 Q1437.96 1576.76 1440.83 1573.74 Q1443.69 1570.75 1443.69 1564.67 L1443.69 1561.77 Q1441.88 1564.92 1439.05 1566.48 Q1436.21 1568.04 1432.27 1568.04 Q1425.71 1568.04 1421.7 1563.05 Q1417.69 1558.05 1417.69 1549.81 Q1417.69 1541.53 1421.7 1536.53 Q1425.71 1531.54 1432.27 1531.54 Q1436.21 1531.54 1439.05 1533.1 Q1441.88 1534.66 1443.69 1537.81 L1443.69 1532.4 L1449.55 1532.4 L1449.55 1563.62 Z" fill="#000000" fill-rule="evenodd" fill-opacity="1" /><path clip-path="url(#clip870)" d="M1482.27 1537.87 Q1481.28 1537.3 1480.1 1537.04 Q1478.96 1536.76 1477.56 1536.76 Q1472.59 1536.76 1469.92 1540 Q1467.28 1543.22 1467.28 1549.27 L1467.28 1568.04 L1461.39 1568.04 L1461.39 1532.4 L1467.28 1532.4 L1467.28 1537.93 Q1469.12 1534.69 1472.08 1533.13 Q1475.04 1531.54 1479.28 1531.54 Q1479.88 1531.54 1480.61 1531.63 Q1481.35 1531.7 1482.24 1531.85 L1482.27 1537.87 Z" fill="#000000" fill-rule="evenodd" fill-opacity="1" /><path clip-path="url(#clip870)" d="M1517.47 1548.76 L1517.47 1551.62 L1490.54 1551.62 Q1490.93 1557.67 1494.17 1560.85 Q1497.45 1564 1503.28 1564 Q1506.65 1564 1509.8 1563.17 Q1512.98 1562.35 1516.1 1560.69 L1516.1 1566.23 Q1512.95 1567.57 1509.64 1568.27 Q1506.33 1568.97 1502.93 1568.97 Q1494.4 1568.97 1489.4 1564 Q1484.43 1559.04 1484.43 1550.57 Q1484.43 1541.82 1489.14 1536.69 Q1493.89 1531.54 1501.91 1531.54 Q1509.1 1531.54 1513.27 1536.18 Q1517.47 1540.8 1517.47 1548.76 M1511.62 1547.04 Q1511.55 1542.23 1508.91 1539.37 Q1506.3 1536.5 1501.97 1536.5 Q1497.07 1536.5 1494.11 1539.27 Q1491.18 1542.04 1490.74 1547.07 L1511.62 1547.04 Z" fill="#000000" fill-rule="evenodd" fill-opacity="1" /><path clip-path="url(#clip870)" d="M1557.58 1548.76 L1557.58 1551.62 L1530.65 1551.62 Q1531.03 1557.67 1534.28 1560.85 Q1537.56 1564 1543.38 1564 Q1546.75 1564 1549.9 1563.17 Q1553.09 1562.35 1556.21 1560.69 L1556.21 1566.23 Q1553.06 1567.57 1549.75 1568.27 Q1546.44 1568.97 1543.03 1568.97 Q1534.5 1568.97 1529.5 1564 Q1524.54 1559.04 1524.54 1550.57 Q1524.54 1541.82 1529.25 1536.69 Q1533.99 1531.54 1542.01 1531.54 Q1549.2 1531.54 1553.37 1536.18 Q1557.58 1540.8 1557.58 1548.76 M1551.72 1547.04 Q1551.66 1542.23 1549.01 1539.37 Q1546.4 1536.5 1542.08 1536.5 Q1537.17 1536.5 1534.21 1539.27 Q1531.29 1542.04 1530.84 1547.07 L1551.72 1547.04 Z" fill="#000000" fill-rule="evenodd" fill-opacity="1" /><polyline clip-path="url(#clip870)" style="stroke:#000000; stroke-linecap:round; stroke-linejoin:round; stroke-width:4; stroke-opacity:1; fill:none" points="249.542,1423.18 249.542,123.472 "/>
<polyline clip-path="url(#clip870)" style="stroke:#000000; stroke-linecap:round; stroke-linejoin:round; stroke-width:4; stroke-opacity:1; fill:none" points="249.542,1387.18 268.44,1387.18 "/>
<polyline clip-path="url(#clip870)" style="stroke:#000000; stroke-linecap:round; stroke-linejoin:round; stroke-width:4; stroke-opacity:1; fill:none" points="249.542,1080.45 268.44,1080.45 "/>
<polyline clip-path="url(#clip870)" style="stroke:#000000; stroke-linecap:round; stroke-linejoin:round; stroke-width:4; stroke-opacity:1; fill:none" points="249.542,773.718 268.44,773.718 "/>
<polyline clip-path="url(#clip870)" style="stroke:#000000; stroke-linecap:round; stroke-linejoin:round; stroke-width:4; stroke-opacity:1; fill:none" points="249.542,466.987 268.44,466.987 "/>
<polyline clip-path="url(#clip870)" style="stroke:#000000; stroke-linecap:round; stroke-linejoin:round; stroke-width:4; stroke-opacity:1; fill:none" points="249.542,160.256 268.44,160.256 "/>
<path clip-path="url(#clip870)" d="M126.205 1372.98 Q122.593 1372.98 120.765 1376.54 Q118.959 1380.09 118.959 1387.22 Q118.959 1394.32 120.765 1397.89 Q122.593 1401.43 126.205 1401.43 Q129.839 1401.43 131.644 1397.89 Q133.473 1394.32 133.473 1387.22 Q133.473 1380.09 131.644 1376.54 Q129.839 1372.98 126.205 1372.98 M126.205 1369.28 Q132.015 1369.28 135.07 1373.88 Q138.149 1378.47 138.149 1387.22 Q138.149 1395.94 135.07 1400.55 Q132.015 1405.13 126.205 1405.13 Q120.394 1405.13 117.316 1400.55 Q114.26 1395.94 114.26 1387.22 Q114.26 1378.47 117.316 1373.88 Q120.394 1369.28 126.205 1369.28 Z" fill="#000000" fill-rule="evenodd" fill-opacity="1" /><path clip-path="url(#clip870)" d="M146.366 1398.58 L151.251 1398.58 L151.251 1404.46 L146.366 1404.46 L146.366 1398.58 Z" fill="#000000" fill-rule="evenodd" fill-opacity="1" /><path clip-path="url(#clip870)" d="M171.436 1372.98 Q167.825 1372.98 165.996 1376.54 Q164.19 1380.09 164.19 1387.22 Q164.19 1394.32 165.996 1397.89 Q167.825 1401.43 171.436 1401.43 Q175.07 1401.43 176.876 1397.89 Q178.704 1394.32 178.704 1387.22 Q178.704 1380.09 176.876 1376.54 Q175.07 1372.98 171.436 1372.98 M171.436 1369.28 Q177.246 1369.28 180.301 1373.88 Q183.38 1378.47 183.38 1387.22 Q183.38 1395.94 180.301 1400.55 Q177.246 1405.13 171.436 1405.13 Q165.626 1405.13 162.547 1400.55 Q159.491 1395.94 159.491 1387.22 Q159.491 1378.47 162.547 1373.88 Q165.626 1369.28 171.436 1369.28 Z" fill="#000000" fill-rule="evenodd" fill-opacity="1" /><path clip-path="url(#clip870)" d="M201.598 1372.98 Q197.987 1372.98 196.158 1376.54 Q194.352 1380.09 194.352 1387.22 Q194.352 1394.32 196.158 1397.89 Q197.987 1401.43 201.598 1401.43 Q205.232 1401.43 207.037 1397.89 Q208.866 1394.32 208.866 1387.22 Q208.866 1380.09 207.037 1376.54 Q205.232 1372.98 201.598 1372.98 M201.598 1369.28 Q207.408 1369.28 210.463 1373.88 Q213.542 1378.47 213.542 1387.22 Q213.542 1395.94 210.463 1400.55 Q207.408 1405.13 201.598 1405.13 Q195.787 1405.13 192.709 1400.55 Q189.653 1395.94 189.653 1387.22 Q189.653 1378.47 192.709 1373.88 Q195.787 1369.28 201.598 1369.28 Z" fill="#000000" fill-rule="evenodd" fill-opacity="1" /><path clip-path="url(#clip870)" d="M127.2 1066.25 Q123.589 1066.25 121.76 1069.81 Q119.955 1073.35 119.955 1080.48 Q119.955 1087.59 121.76 1091.16 Q123.589 1094.7 127.2 1094.7 Q130.834 1094.7 132.64 1091.16 Q134.468 1087.59 134.468 1080.48 Q134.468 1073.35 132.64 1069.81 Q130.834 1066.25 127.2 1066.25 M127.2 1062.54 Q133.01 1062.54 136.066 1067.15 Q139.144 1071.73 139.144 1080.48 Q139.144 1089.21 136.066 1093.82 Q133.01 1098.4 127.2 1098.4 Q121.39 1098.4 118.311 1093.82 Q115.256 1089.21 115.256 1080.48 Q115.256 1071.73 118.311 1067.15 Q121.39 1062.54 127.2 1062.54 Z" fill="#000000" fill-rule="evenodd" fill-opacity="1" /><path clip-path="url(#clip870)" d="M147.362 1091.85 L152.246 1091.85 L152.246 1097.73 L147.362 1097.73 L147.362 1091.85 Z" fill="#000000" fill-rule="evenodd" fill-opacity="1" /><path clip-path="url(#clip870)" d="M166.459 1093.79 L182.778 1093.79 L182.778 1097.73 L160.834 1097.73 L160.834 1093.79 Q163.496 1091.04 168.079 1086.41 Q172.686 1081.76 173.866 1080.41 Q176.112 1077.89 176.991 1076.16 Q177.894 1074.4 177.894 1072.71 Q177.894 1069.95 175.95 1068.22 Q174.028 1066.48 170.927 1066.48 Q168.727 1066.48 166.274 1067.24 Q163.843 1068.01 161.065 1069.56 L161.065 1064.84 Q163.89 1063.7 166.343 1063.12 Q168.797 1062.54 170.834 1062.54 Q176.204 1062.54 179.399 1065.23 Q182.593 1067.91 182.593 1072.41 Q182.593 1074.54 181.783 1076.46 Q180.996 1078.35 178.889 1080.95 Q178.311 1081.62 175.209 1084.84 Q172.107 1088.03 166.459 1093.79 Z" fill="#000000" fill-rule="evenodd" fill-opacity="1" /><path clip-path="url(#clip870)" d="M192.639 1063.17 L210.996 1063.17 L210.996 1067.1 L196.922 1067.1 L196.922 1075.58 Q197.94 1075.23 198.959 1075.07 Q199.977 1074.88 200.996 1074.88 Q206.783 1074.88 210.162 1078.05 Q213.542 1081.22 213.542 1086.64 Q213.542 1092.22 210.07 1095.32 Q206.598 1098.4 200.278 1098.4 Q198.102 1098.4 195.834 1098.03 Q193.588 1097.66 191.181 1096.92 L191.181 1092.22 Q193.264 1093.35 195.487 1093.91 Q197.709 1094.47 200.186 1094.47 Q204.19 1094.47 206.528 1092.36 Q208.866 1090.25 208.866 1086.64 Q208.866 1083.03 206.528 1080.92 Q204.19 1078.82 200.186 1078.82 Q198.311 1078.82 196.436 1079.23 Q194.584 1079.65 192.639 1080.53 L192.639 1063.17 Z" fill="#000000" fill-rule="evenodd" fill-opacity="1" /><path clip-path="url(#clip870)" d="M126.205 759.517 Q122.593 759.517 120.765 763.082 Q118.959 766.623 118.959 773.753 Q118.959 780.859 120.765 784.424 Q122.593 787.966 126.205 787.966 Q129.839 787.966 131.644 784.424 Q133.473 780.859 133.473 773.753 Q133.473 766.623 131.644 763.082 Q129.839 759.517 126.205 759.517 M126.205 755.813 Q132.015 755.813 135.07 760.42 Q138.149 765.003 138.149 773.753 Q138.149 782.48 135.07 787.086 Q132.015 791.67 126.205 791.67 Q120.394 791.67 117.316 787.086 Q114.26 782.48 114.26 773.753 Q114.26 765.003 117.316 760.42 Q120.394 755.813 126.205 755.813 Z" fill="#000000" fill-rule="evenodd" fill-opacity="1" /><path clip-path="url(#clip870)" d="M146.366 785.119 L151.251 785.119 L151.251 790.998 L146.366 790.998 L146.366 785.119 Z" fill="#000000" fill-rule="evenodd" fill-opacity="1" /><path clip-path="url(#clip870)" d="M161.482 756.438 L179.839 756.438 L179.839 760.373 L165.765 760.373 L165.765 768.846 Q166.783 768.498 167.802 768.336 Q168.82 768.151 169.839 768.151 Q175.626 768.151 179.005 771.323 Q182.385 774.494 182.385 779.91 Q182.385 785.489 178.913 788.591 Q175.44 791.67 169.121 791.67 Q166.945 791.67 164.677 791.299 Q162.431 790.929 160.024 790.188 L160.024 785.489 Q162.107 786.623 164.329 787.179 Q166.552 787.734 169.028 787.734 Q173.033 787.734 175.371 785.628 Q177.709 783.522 177.709 779.91 Q177.709 776.299 175.371 774.193 Q173.033 772.086 169.028 772.086 Q167.153 772.086 165.278 772.503 Q163.427 772.92 161.482 773.799 L161.482 756.438 Z" fill="#000000" fill-rule="evenodd" fill-opacity="1" /><path clip-path="url(#clip870)" d="M201.598 759.517 Q197.987 759.517 196.158 763.082 Q194.352 766.623 194.352 773.753 Q194.352 780.859 196.158 784.424 Q197.987 787.966 201.598 787.966 Q205.232 787.966 207.037 784.424 Q208.866 780.859 208.866 773.753 Q208.866 766.623 207.037 763.082 Q205.232 759.517 201.598 759.517 M201.598 755.813 Q207.408 755.813 210.463 760.42 Q213.542 765.003 213.542 773.753 Q213.542 782.48 210.463 787.086 Q207.408 791.67 201.598 791.67 Q195.787 791.67 192.709 787.086 Q189.653 782.48 189.653 773.753 Q189.653 765.003 192.709 760.42 Q195.787 755.813 201.598 755.813 Z" fill="#000000" fill-rule="evenodd" fill-opacity="1" /><path clip-path="url(#clip870)" d="M127.2 452.786 Q123.589 452.786 121.76 456.351 Q119.955 459.892 119.955 467.022 Q119.955 474.128 121.76 477.693 Q123.589 481.235 127.2 481.235 Q130.834 481.235 132.64 477.693 Q134.468 474.128 134.468 467.022 Q134.468 459.892 132.64 456.351 Q130.834 452.786 127.2 452.786 M127.2 449.082 Q133.01 449.082 136.066 453.689 Q139.144 458.272 139.144 467.022 Q139.144 475.749 136.066 480.355 Q133.01 484.939 127.2 484.939 Q121.39 484.939 118.311 480.355 Q115.256 475.749 115.256 467.022 Q115.256 458.272 118.311 453.689 Q121.39 449.082 127.2 449.082 Z" fill="#000000" fill-rule="evenodd" fill-opacity="1" /><path clip-path="url(#clip870)" d="M147.362 478.388 L152.246 478.388 L152.246 484.267 L147.362 484.267 L147.362 478.388 Z" fill="#000000" fill-rule="evenodd" fill-opacity="1" /><path clip-path="url(#clip870)" d="M161.251 449.707 L183.473 449.707 L183.473 451.698 L170.927 484.267 L166.042 484.267 L177.848 453.642 L161.251 453.642 L161.251 449.707 Z" fill="#000000" fill-rule="evenodd" fill-opacity="1" /><path clip-path="url(#clip870)" d="M192.639 449.707 L210.996 449.707 L210.996 453.642 L196.922 453.642 L196.922 462.115 Q197.94 461.767 198.959 461.605 Q199.977 461.42 200.996 461.42 Q206.783 461.42 210.162 464.591 Q213.542 467.763 213.542 473.179 Q213.542 478.758 210.07 481.86 Q206.598 484.939 200.278 484.939 Q198.102 484.939 195.834 484.568 Q193.588 484.198 191.181 483.457 L191.181 478.758 Q193.264 479.892 195.487 480.448 Q197.709 481.003 200.186 481.003 Q204.19 481.003 206.528 478.897 Q208.866 476.791 208.866 473.179 Q208.866 469.568 206.528 467.462 Q204.19 465.355 200.186 465.355 Q198.311 465.355 196.436 465.772 Q194.584 466.189 192.639 467.068 L192.639 449.707 Z" fill="#000000" fill-rule="evenodd" fill-opacity="1" /><path clip-path="url(#clip870)" d="M117.015 173.601 L124.654 173.601 L124.654 147.236 L116.343 148.902 L116.343 144.643 L124.607 142.976 L129.283 142.976 L129.283 173.601 L136.922 173.601 L136.922 177.536 L117.015 177.536 L117.015 173.601 Z" fill="#000000" fill-rule="evenodd" fill-opacity="1" /><path clip-path="url(#clip870)" d="M146.366 171.657 L151.251 171.657 L151.251 177.536 L146.366 177.536 L146.366 171.657 Z" fill="#000000" fill-rule="evenodd" fill-opacity="1" /><path clip-path="url(#clip870)" d="M171.436 146.055 Q167.825 146.055 165.996 149.62 Q164.19 153.161 164.19 160.291 Q164.19 167.397 165.996 170.962 Q167.825 174.504 171.436 174.504 Q175.07 174.504 176.876 170.962 Q178.704 167.397 178.704 160.291 Q178.704 153.161 176.876 149.62 Q175.07 146.055 171.436 146.055 M171.436 142.351 Q177.246 142.351 180.301 146.958 Q183.38 151.541 183.38 160.291 Q183.38 169.018 180.301 173.624 Q177.246 178.208 171.436 178.208 Q165.626 178.208 162.547 173.624 Q159.491 169.018 159.491 160.291 Q159.491 151.541 162.547 146.958 Q165.626 142.351 171.436 142.351 Z" fill="#000000" fill-rule="evenodd" fill-opacity="1" /><path clip-path="url(#clip870)" d="M201.598 146.055 Q197.987 146.055 196.158 149.62 Q194.352 153.161 194.352 160.291 Q194.352 167.397 196.158 170.962 Q197.987 174.504 201.598 174.504 Q205.232 174.504 207.037 170.962 Q208.866 167.397 208.866 160.291 Q208.866 153.161 207.037 149.62 Q205.232 146.055 201.598 146.055 M201.598 142.351 Q207.408 142.351 210.463 146.958 Q213.542 151.541 213.542 160.291 Q213.542 169.018 210.463 173.624 Q207.408 178.208 201.598 178.208 Q195.787 178.208 192.709 173.624 Q189.653 169.018 189.653 160.291 Q189.653 151.541 192.709 146.958 Q195.787 142.351 201.598 142.351 Z" fill="#000000" fill-rule="evenodd" fill-opacity="1" /><path clip-path="url(#clip870)" d="M16.4842 1253.06 L16.4842 1212.86 L21.895 1212.86 L21.895 1229.73 L64.0042 1229.73 L64.0042 1236.19 L21.895 1236.19 L21.895 1253.06 L16.4842 1253.06 Z" fill="#000000" fill-rule="evenodd" fill-opacity="1" /><path clip-path="url(#clip870)" d="M44.7161 1187.49 L47.5806 1187.49 L47.5806 1214.42 Q53.6281 1214.04 56.8109 1210.79 Q59.9619 1207.51 59.9619 1201.69 Q59.9619 1198.32 59.1344 1195.17 Q58.3069 1191.98 56.6518 1188.86 L62.1899 1188.86 Q63.5267 1192.01 64.227 1195.32 Q64.9272 1198.63 64.9272 1202.04 Q64.9272 1210.57 59.9619 1215.57 Q54.9967 1220.53 46.5303 1220.53 Q37.7774 1220.53 32.6531 1215.82 Q27.4968 1211.08 27.4968 1203.06 Q27.4968 1195.87 32.1438 1191.7 Q36.7589 1187.49 44.7161 1187.49 M42.9973 1193.35 Q38.1912 1193.41 35.3266 1196.06 Q32.4621 1198.67 32.4621 1203 Q32.4621 1207.9 35.2312 1210.86 Q38.0002 1213.79 43.0292 1214.23 L42.9973 1193.35 Z" fill="#000000" fill-rule="evenodd" fill-opacity="1" /><path clip-path="url(#clip870)" d="M35.1993 1150.13 Q31.2526 1147.93 29.3747 1144.88 Q27.4968 1141.82 27.4968 1137.68 Q27.4968 1132.11 31.4117 1129.09 Q35.2948 1126.07 42.4881 1126.07 L64.0042 1126.07 L64.0042 1131.95 L42.679 1131.95 Q37.5546 1131.95 35.072 1133.77 Q32.5894 1135.58 32.5894 1139.31 Q32.5894 1143.86 35.6131 1146.5 Q38.6368 1149.14 43.8567 1149.14 L64.0042 1149.14 L64.0042 1155.03 L42.679 1155.03 Q37.5228 1155.03 35.072 1156.84 Q32.5894 1158.66 32.5894 1162.45 Q32.5894 1166.93 35.6449 1169.58 Q38.6686 1172.22 43.8567 1172.22 L64.0042 1172.22 L64.0042 1178.11 L28.3562 1178.11 L28.3562 1172.22 L33.8944 1172.22 Q30.616 1170.21 29.0564 1167.41 Q27.4968 1164.61 27.4968 1160.76 Q27.4968 1156.88 29.4702 1154.17 Q31.4436 1151.43 35.1993 1150.13 Z" fill="#000000" fill-rule="evenodd" fill-opacity="1" /><path clip-path="url(#clip870)" d="M58.657 1108.72 L77.5631 1108.72 L77.5631 1114.61 L28.3562 1114.61 L28.3562 1108.72 L33.7671 1108.72 Q30.5842 1106.87 29.0564 1104.07 Q27.4968 1101.24 27.4968 1097.32 Q27.4968 1090.83 32.6531 1086.79 Q37.8093 1082.72 46.212 1082.72 Q54.6147 1082.72 59.771 1086.79 Q64.9272 1090.83 64.9272 1097.32 Q64.9272 1101.24 63.3994 1104.07 Q61.8398 1106.87 58.657 1108.72 M46.212 1088.79 Q39.7508 1088.79 36.0905 1091.47 Q32.3984 1094.11 32.3984 1098.76 Q32.3984 1103.4 36.0905 1106.08 Q39.7508 1108.72 46.212 1108.72 Q52.6732 1108.72 56.3653 1106.08 Q60.0256 1103.4 60.0256 1098.76 Q60.0256 1094.11 56.3653 1091.47 Q52.6732 1088.79 46.212 1088.79 Z" fill="#000000" fill-rule="evenodd" fill-opacity="1" /><path clip-path="url(#clip870)" d="M32.4621 1059.19 Q32.4621 1063.9 36.1542 1066.64 Q39.8145 1069.38 46.212 1069.38 Q52.6095 1069.38 56.3017 1066.67 Q59.9619 1063.94 59.9619 1059.19 Q59.9619 1054.52 56.2698 1051.78 Q52.5777 1049.04 46.212 1049.04 Q39.8781 1049.04 36.186 1051.78 Q32.4621 1054.52 32.4621 1059.19 M27.4968 1059.19 Q27.4968 1051.56 32.4621 1047.19 Q37.4273 1042.83 46.212 1042.83 Q54.9649 1042.83 59.9619 1047.19 Q64.9272 1051.56 64.9272 1059.19 Q64.9272 1066.86 59.9619 1071.23 Q54.9649 1075.55 46.212 1075.55 Q37.4273 1075.55 32.4621 1071.23 Q27.4968 1066.86 27.4968 1059.19 Z" fill="#000000" fill-rule="evenodd" fill-opacity="1" /><path clip-path="url(#clip870)" d="M33.8307 1012.47 Q33.2578 1013.46 33.0032 1014.63 Q32.7167 1015.78 32.7167 1017.18 Q32.7167 1022.15 35.9632 1024.82 Q39.1779 1027.46 45.2253 1027.46 L64.0042 1027.46 L64.0042 1033.35 L28.3562 1033.35 L28.3562 1027.46 L33.8944 1027.46 Q30.6479 1025.61 29.0883 1022.65 Q27.4968 1019.69 27.4968 1015.46 Q27.4968 1014.86 27.5923 1014.12 Q27.656 1013.39 27.8151 1012.5 L33.8307 1012.47 Z" fill="#000000" fill-rule="evenodd" fill-opacity="1" /><path clip-path="url(#clip870)" d="M46.0847 990.126 Q46.0847 997.224 47.7079 999.961 Q49.3312 1002.7 53.2461 1002.7 Q56.3653 1002.7 58.2114 1000.66 Q60.0256 998.592 60.0256 995.059 Q60.0256 990.19 56.5881 987.261 Q53.1188 984.301 47.3897 984.301 L46.0847 984.301 L46.0847 990.126 M43.6657 978.445 L64.0042 978.445 L64.0042 984.301 L58.5933 984.301 Q61.8398 986.307 63.3994 989.298 Q64.9272 992.29 64.9272 996.619 Q64.9272 1002.09 61.8716 1005.34 Q58.7843 1008.55 53.6281 1008.55 Q47.6125 1008.55 44.5569 1004.54 Q41.5014 1000.5 41.5014 992.513 L41.5014 984.301 L40.9285 984.301 Q36.8862 984.301 34.6901 986.975 Q32.4621 989.617 32.4621 994.423 Q32.4621 997.478 33.1941 1000.37 Q33.9262 1003.27 35.3903 1005.94 L29.9795 1005.94 Q28.7381 1002.73 28.1334 999.706 Q27.4968 996.683 27.4968 993.818 Q27.4968 986.084 31.5072 982.264 Q35.5176 978.445 43.6657 978.445 Z" fill="#000000" fill-rule="evenodd" fill-opacity="1" /><path clip-path="url(#clip870)" d="M14.479 966.382 L14.479 960.526 L64.0042 960.526 L64.0042 966.382 L14.479 966.382 Z" fill="#000000" fill-rule="evenodd" fill-opacity="1" /><path clip-path="url(#clip870)" d="M18.0438 898.81 L24.314 898.81 Q22.5634 902.47 21.704 905.717 Q20.8447 908.963 20.8447 911.987 Q20.8447 917.239 22.8817 920.103 Q24.9187 922.936 28.6745 922.936 Q31.8255 922.936 33.4488 921.058 Q35.0402 919.148 36.0269 913.865 L36.8226 909.982 Q38.1912 902.789 41.6605 899.383 Q45.098 895.945 50.8908 895.945 Q57.7976 895.945 61.3624 900.592 Q64.9272 905.208 64.9272 914.151 Q64.9272 917.525 64.1633 921.345 Q63.3994 925.132 61.9035 929.206 L55.2831 929.206 Q57.4793 925.291 58.5933 921.536 Q59.7073 917.78 59.7073 914.151 Q59.7073 908.645 57.543 905.653 Q55.3786 902.661 51.3682 902.661 Q47.8671 902.661 45.8937 904.826 Q43.9204 906.958 42.9337 911.86 L42.1698 915.775 Q40.7375 922.968 37.682 926.183 Q34.6264 929.397 29.1837 929.397 Q22.8817 929.397 19.2532 924.973 Q15.6248 920.517 15.6248 912.719 Q15.6248 909.377 16.2295 905.908 Q16.8343 902.438 18.0438 898.81 Z" fill="#000000" fill-rule="evenodd" fill-opacity="1" /><path clip-path="url(#clip870)" d="M35.1993 858.42 Q31.2526 856.223 29.3747 853.168 Q27.4968 850.112 27.4968 845.975 Q27.4968 840.405 31.4117 837.381 Q35.2948 834.357 42.4881 834.357 L64.0042 834.357 L64.0042 840.245 L42.679 840.245 Q37.5546 840.245 35.072 842.06 Q32.5894 843.874 32.5894 847.598 Q32.5894 852.149 35.6131 854.791 Q38.6368 857.433 43.8567 857.433 L64.0042 857.433 L64.0042 863.321 L42.679 863.321 Q37.5228 863.321 35.072 865.135 Q32.5894 866.95 32.5894 870.737 Q32.5894 875.225 35.6449 877.867 Q38.6686 880.509 43.8567 880.509 L64.0042 880.509 L64.0042 886.397 L28.3562 886.397 L28.3562 880.509 L33.8944 880.509 Q30.616 878.503 29.0564 875.702 Q27.4968 872.902 27.4968 869.05 Q27.4968 865.167 29.4702 862.462 Q31.4436 859.725 35.1993 858.42 Z" fill="#000000" fill-rule="evenodd" fill-opacity="1" /><path clip-path="url(#clip870)" d="M46.0847 806.475 Q46.0847 813.573 47.7079 816.31 Q49.3312 819.048 53.2461 819.048 Q56.3653 819.048 58.2114 817.011 Q60.0256 814.942 60.0256 811.409 Q60.0256 806.539 56.5881 803.611 Q53.1188 800.651 47.3897 800.651 L46.0847 800.651 L46.0847 806.475 M43.6657 794.794 L64.0042 794.794 L64.0042 800.651 L58.5933 800.651 Q61.8398 802.656 63.3994 805.648 Q64.9272 808.64 64.9272 812.968 Q64.9272 818.443 61.8716 821.689 Q58.7843 824.904 53.6281 824.904 Q47.6125 824.904 44.5569 820.894 Q41.5014 816.852 41.5014 808.863 L41.5014 800.651 L40.9285 800.651 Q36.8862 800.651 34.6901 803.324 Q32.4621 805.966 32.4621 810.772 Q32.4621 813.828 33.1941 816.724 Q33.9262 819.621 35.3903 822.294 L29.9795 822.294 Q28.7381 819.08 28.1334 816.056 Q27.4968 813.032 27.4968 810.168 Q27.4968 802.433 31.5072 798.614 Q35.5176 794.794 43.6657 794.794 Z" fill="#000000" fill-rule="evenodd" fill-opacity="1" /><path clip-path="url(#clip870)" d="M14.479 782.731 L14.479 776.875 L64.0042 776.875 L64.0042 782.731 L14.479 782.731 Z" fill="#000000" fill-rule="evenodd" fill-opacity="1" /><path clip-path="url(#clip870)" d="M14.479 764.621 L14.479 758.764 L64.0042 758.764 L64.0042 764.621 L14.479 764.621 Z" fill="#000000" fill-rule="evenodd" fill-opacity="1" /><path clip-path="url(#clip870)" d="M16.4842 729.769 L16.4842 723.276 L56.6518 713.281 L16.4842 703.319 L16.4842 696.094 L56.6518 686.1 L16.4842 676.138 L16.4842 669.613 L64.0042 681.548 L64.0042 689.633 L22.7544 699.659 L64.0042 709.78 L64.0042 717.865 L16.4842 729.769 Z" fill="#000000" fill-rule="evenodd" fill-opacity="1" /><path clip-path="url(#clip870)" d="M32.4621 651.343 Q32.4621 656.054 36.1542 658.791 Q39.8145 661.528 46.212 661.528 Q52.6095 661.528 56.3017 658.823 Q59.9619 656.086 59.9619 651.343 Q59.9619 646.664 56.2698 643.927 Q52.5777 641.19 46.212 641.19 Q39.8781 641.19 36.186 643.927 Q32.4621 646.664 32.4621 651.343 M27.4968 651.343 Q27.4968 643.704 32.4621 639.344 Q37.4273 634.983 46.212 634.983 Q54.9649 634.983 59.9619 639.344 Q64.9272 643.704 64.9272 651.343 Q64.9272 659.014 59.9619 663.374 Q54.9649 667.703 46.212 667.703 Q37.4273 667.703 32.4621 663.374 Q27.4968 659.014 27.4968 651.343 Z" fill="#000000" fill-rule="evenodd" fill-opacity="1" /><path clip-path="url(#clip870)" d="M33.8307 604.619 Q33.2578 605.606 33.0032 606.783 Q32.7167 607.929 32.7167 609.329 Q32.7167 614.295 35.9632 616.968 Q39.1779 619.61 45.2253 619.61 L64.0042 619.61 L64.0042 625.498 L28.3562 625.498 L28.3562 619.61 L33.8944 619.61 Q30.6479 617.764 29.0883 614.804 Q27.4968 611.844 27.4968 607.611 Q27.4968 607.006 27.5923 606.274 Q27.656 605.542 27.8151 604.651 L33.8307 604.619 Z" fill="#000000" fill-rule="evenodd" fill-opacity="1" /><path clip-path="url(#clip870)" d="M14.479 598.476 L14.479 592.619 L64.0042 592.619 L64.0042 598.476 L14.479 598.476 Z" fill="#000000" fill-rule="evenodd" fill-opacity="1" /><path clip-path="url(#clip870)" d="M33.7671 556.908 L14.479 556.908 L14.479 551.051 L64.0042 551.051 L64.0042 556.908 L58.657 556.908 Q61.8398 558.754 63.3994 561.587 Q64.9272 564.388 64.9272 568.334 Q64.9272 574.796 59.771 578.87 Q54.6147 582.912 46.212 582.912 Q37.8093 582.912 32.6531 578.87 Q27.4968 574.796 27.4968 568.334 Q27.4968 564.388 29.0564 561.587 Q30.5842 558.754 33.7671 556.908 M46.212 576.864 Q52.6732 576.864 56.3653 574.223 Q60.0256 571.549 60.0256 566.902 Q60.0256 562.255 56.3653 559.581 Q52.6732 556.908 46.212 556.908 Q39.7508 556.908 36.0905 559.581 Q32.3984 562.255 32.3984 566.902 Q32.3984 571.549 36.0905 574.223 Q39.7508 576.864 46.212 576.864 Z" fill="#000000" fill-rule="evenodd" fill-opacity="1" /><path clip-path="url(#clip870)" d="M42.4881 509.356 L64.0042 509.356 L64.0042 515.212 L42.679 515.212 Q37.6183 515.212 35.1038 517.186 Q32.5894 519.159 32.5894 523.106 Q32.5894 527.848 35.6131 530.586 Q38.6368 533.323 43.8567 533.323 L64.0042 533.323 L64.0042 539.211 L28.3562 539.211 L28.3562 533.323 L33.8944 533.323 Q30.6797 531.222 29.0883 528.39 Q27.4968 525.525 27.4968 521.801 Q27.4968 515.658 31.3163 512.507 Q35.1038 509.356 42.4881 509.356 Z" fill="#000000" fill-rule="evenodd" fill-opacity="1" /><path clip-path="url(#clip870)" d="M44.7161 467.183 L47.5806 467.183 L47.5806 494.11 Q53.6281 493.728 56.8109 490.482 Q59.9619 487.203 59.9619 481.379 Q59.9619 478.005 59.1344 474.854 Q58.3069 471.671 56.6518 468.552 L62.1899 468.552 Q63.5267 471.703 64.227 475.013 Q64.9272 478.323 64.9272 481.729 Q64.9272 490.259 59.9619 495.256 Q54.9967 500.221 46.5303 500.221 Q37.7774 500.221 32.6531 495.511 Q27.4968 490.768 27.4968 482.747 Q27.4968 475.554 32.1438 471.385 Q36.7589 467.183 44.7161 467.183 M42.9973 473.04 Q38.1912 473.103 35.3266 475.745 Q32.4621 478.355 32.4621 482.684 Q32.4621 487.585 35.2312 490.545 Q38.0002 493.474 43.0292 493.919 L42.9973 473.04 Z" fill="#000000" fill-rule="evenodd" fill-opacity="1" /><path clip-path="url(#clip870)" d="M29.4065 434.845 L34.9447 434.845 Q33.6716 437.328 33.035 440.002 Q32.3984 442.675 32.3984 445.54 Q32.3984 449.9 33.7352 452.097 Q35.072 454.261 37.7456 454.261 Q39.7826 454.261 40.9603 452.701 Q42.1061 451.142 43.1565 446.431 L43.6021 444.426 Q44.9389 438.187 47.3897 435.578 Q49.8086 432.936 54.1691 432.936 Q59.1344 432.936 62.0308 436.882 Q64.9272 440.797 64.9272 447.672 Q64.9272 450.537 64.3543 453.656 Q63.8132 456.743 62.6992 460.181 L56.6518 460.181 Q58.3387 456.934 59.198 453.783 Q60.0256 450.632 60.0256 447.545 Q60.0256 443.407 58.6251 441.179 Q57.1929 438.951 54.6147 438.951 Q52.2276 438.951 50.9545 440.575 Q49.6813 442.166 48.5037 447.609 L48.0262 449.646 Q46.8804 455.088 44.5251 457.507 Q42.138 459.926 38.0002 459.926 Q32.9713 459.926 30.2341 456.362 Q27.4968 452.797 27.4968 446.24 Q27.4968 442.994 27.9743 440.129 Q28.4517 437.264 29.4065 434.845 Z" fill="#000000" fill-rule="evenodd" fill-opacity="1" /><path clip-path="url(#clip870)" d="M29.4065 400.884 L34.9447 400.884 Q33.6716 403.367 33.035 406.041 Q32.3984 408.714 32.3984 411.579 Q32.3984 415.939 33.7352 418.135 Q35.072 420.3 37.7456 420.3 Q39.7826 420.3 40.9603 418.74 Q42.1061 417.181 43.1565 412.47 L43.6021 410.465 Q44.9389 404.226 47.3897 401.616 Q49.8086 398.975 54.1691 398.975 Q59.1344 398.975 62.0308 402.921 Q64.9272 406.836 64.9272 413.711 Q64.9272 416.576 64.3543 419.695 Q63.8132 422.782 62.6992 426.22 L56.6518 426.22 Q58.3387 422.973 59.198 419.822 Q60.0256 416.671 60.0256 413.584 Q60.0256 409.446 58.6251 407.218 Q57.1929 404.99 54.6147 404.99 Q52.2276 404.99 50.9545 406.614 Q49.6813 408.205 48.5037 413.648 L48.0262 415.685 Q46.8804 421.127 44.5251 423.546 Q42.138 425.965 38.0002 425.965 Q32.9713 425.965 30.2341 422.4 Q27.4968 418.836 27.4968 412.279 Q27.4968 409.033 27.9743 406.168 Q28.4517 403.303 29.4065 400.884 Z" fill="#000000" fill-rule="evenodd" fill-opacity="1" /><path clip-path="url(#clip870)" d="M18.0438 340.187 L24.314 340.187 Q22.5634 343.848 21.704 347.094 Q20.8447 350.341 20.8447 353.364 Q20.8447 358.616 22.8817 361.481 Q24.9187 364.313 28.6745 364.313 Q31.8255 364.313 33.4488 362.436 Q35.0402 360.526 36.0269 355.242 L36.8226 351.359 Q38.1912 344.166 41.6605 340.76 Q45.098 337.323 50.8908 337.323 Q57.7976 337.323 61.3624 341.97 Q64.9272 346.585 64.9272 355.529 Q64.9272 358.903 64.1633 362.722 Q63.3994 366.51 61.9035 370.584 L55.2831 370.584 Q57.4793 366.669 58.5933 362.913 Q59.7073 359.157 59.7073 355.529 Q59.7073 350.022 57.543 347.031 Q55.3786 344.039 51.3682 344.039 Q47.8671 344.039 45.8937 346.203 Q43.9204 348.335 42.9337 353.237 L42.1698 357.152 Q40.7375 364.345 37.682 367.56 Q34.6264 370.775 29.1837 370.775 Q22.8817 370.775 19.2532 366.35 Q15.6248 361.894 15.6248 354.096 Q15.6248 350.754 16.2295 347.285 Q16.8343 343.816 18.0438 340.187 Z" fill="#000000" fill-rule="evenodd" fill-opacity="1" /><path clip-path="url(#clip870)" d="M41.3104 320.867 L58.7206 320.867 L58.7206 310.555 Q58.7206 305.367 56.5881 302.884 Q54.4238 300.37 49.9996 300.37 Q45.5436 300.37 43.4429 302.884 Q41.3104 305.367 41.3104 310.555 L41.3104 320.867 M21.7677 320.867 L36.0905 320.867 L36.0905 311.351 Q36.0905 306.64 34.34 304.348 Q32.5576 302.025 28.9291 302.025 Q25.3325 302.025 23.5501 304.348 Q21.7677 306.64 21.7677 311.351 L21.7677 320.867 M16.4842 327.297 L16.4842 310.873 Q16.4842 303.521 19.5397 299.542 Q22.5952 295.564 28.2289 295.564 Q32.5894 295.564 35.1675 297.601 Q37.7456 299.638 38.3822 303.585 Q39.4007 298.842 42.6472 296.232 Q45.8619 293.59 50.6998 293.59 Q57.0655 293.59 60.5348 297.919 Q64.0042 302.248 64.0042 310.237 L64.0042 327.297 L16.4842 327.297 Z" fill="#000000" fill-rule="evenodd" fill-opacity="1" /><path clip-path="url(#clip870)" d="M1116.18 39.9662 Q1122.06 41.222 1125.34 45.1919 Q1128.66 49.1618 1128.66 54.9951 Q1128.66 63.9476 1122.5 68.8492 Q1116.35 73.7508 1105 73.7508 Q1101.2 73.7508 1097.15 72.9811 Q1093.14 72.2519 1088.84 70.7531 L1088.84 62.8538 Q1092.24 64.8388 1096.29 65.8515 Q1100.35 66.8642 1104.76 66.8642 Q1112.46 66.8642 1116.47 63.826 Q1120.52 60.7879 1120.52 54.9951 Q1120.52 49.6479 1116.75 46.6502 Q1113.02 43.612 1106.34 43.612 L1099.29 43.612 L1099.29 36.8875 L1106.67 36.8875 Q1112.7 36.8875 1115.9 34.4975 Q1119.1 32.067 1119.1 27.5299 Q1119.1 22.8714 1115.78 20.4004 Q1112.5 17.8888 1106.34 17.8888 Q1102.98 17.8888 1099.13 18.618 Q1095.28 19.3471 1090.66 20.8865 L1090.66 13.5948 Q1095.32 12.2985 1099.37 11.6504 Q1103.46 11.0023 1107.07 11.0023 Q1116.39 11.0023 1121.82 15.2557 Q1127.24 19.4686 1127.24 26.6793 Q1127.24 31.7024 1124.37 35.1862 Q1121.49 38.6294 1116.18 39.9662 Z" fill="#000000" fill-rule="evenodd" fill-opacity="1" /><path clip-path="url(#clip870)" d="M1161.68 17.4837 Q1155.36 17.4837 1152.16 23.7221 Q1149 29.92 1149 42.3968 Q1149 54.833 1152.16 61.0714 Q1155.36 67.2693 1161.68 67.2693 Q1168.04 67.2693 1171.2 61.0714 Q1174.4 54.833 1174.4 42.3968 Q1174.4 29.92 1171.2 23.7221 Q1168.04 17.4837 1161.68 17.4837 M1161.68 11.0023 Q1171.84 11.0023 1177.19 19.0636 Q1182.58 27.0843 1182.58 42.3968 Q1182.58 57.6687 1177.19 65.73 Q1171.84 73.7508 1161.68 73.7508 Q1151.51 73.7508 1146.12 65.73 Q1140.77 57.6687 1140.77 42.3968 Q1140.77 27.0843 1146.12 19.0636 Q1151.51 11.0023 1161.68 11.0023 Z" fill="#000000" fill-rule="evenodd" fill-opacity="1" /><path clip-path="url(#clip870)" d="M1204.01 65.6895 L1232.57 65.6895 L1232.57 72.576 L1194.16 72.576 L1194.16 65.6895 Q1198.82 60.8689 1206.84 52.7671 Q1214.91 44.6248 1216.97 42.2752 Q1220.9 37.8598 1222.44 34.8216 Q1224.02 31.7429 1224.02 28.7857 Q1224.02 23.9651 1220.62 20.927 Q1217.25 17.8888 1211.83 17.8888 Q1207.98 17.8888 1203.68 19.2256 Q1199.43 20.5624 1194.57 23.2765 L1194.57 15.0127 Q1199.51 13.0277 1203.81 12.015 Q1208.1 11.0023 1211.66 11.0023 Q1221.06 11.0023 1226.65 15.7013 Q1232.24 20.4004 1232.24 28.2591 Q1232.24 31.9859 1230.83 35.3482 Q1229.45 38.6699 1225.76 43.2069 Q1224.75 44.3817 1219.32 50.0125 Q1213.89 55.6027 1204.01 65.6895 Z" fill="#000000" fill-rule="evenodd" fill-opacity="1" /><path clip-path="url(#clip870)" d="M1312.78 45.1919 L1312.78 72.576 L1305.32 72.576 L1305.32 45.4349 Q1305.32 38.994 1302.81 35.7938 Q1300.3 32.5936 1295.28 32.5936 Q1289.24 32.5936 1285.76 36.4419 Q1282.27 40.2903 1282.27 46.9338 L1282.27 72.576 L1274.78 72.576 L1274.78 27.2059 L1282.27 27.2059 L1282.27 34.2544 Q1284.95 30.163 1288.55 28.1376 Q1292.2 26.1121 1296.94 26.1121 Q1304.75 26.1121 1308.76 30.9732 Q1312.78 35.7938 1312.78 45.1919 Z" fill="#000000" fill-rule="evenodd" fill-opacity="1" /><path clip-path="url(#clip870)" d="M1345.22 32.4315 Q1339.23 32.4315 1335.74 37.1306 Q1332.26 41.7891 1332.26 49.9314 Q1332.26 58.0738 1335.7 62.7728 Q1339.19 67.4314 1345.22 67.4314 Q1351.18 67.4314 1354.66 62.7323 Q1358.15 58.0333 1358.15 49.9314 Q1358.15 41.8701 1354.66 37.1711 Q1351.18 32.4315 1345.22 32.4315 M1345.22 26.1121 Q1354.94 26.1121 1360.49 32.4315 Q1366.04 38.7509 1366.04 49.9314 Q1366.04 61.0714 1360.49 67.4314 Q1354.94 73.7508 1345.22 73.7508 Q1335.46 73.7508 1329.91 67.4314 Q1324.4 61.0714 1324.4 49.9314 Q1324.4 38.7509 1329.91 32.4315 Q1335.46 26.1121 1345.22 26.1121 Z" fill="#000000" fill-rule="evenodd" fill-opacity="1" /><path clip-path="url(#clip870)" d="M1408.25 34.0924 L1408.25 9.54393 L1415.71 9.54393 L1415.71 72.576 L1408.25 72.576 L1408.25 65.7705 Q1405.91 69.8214 1402.3 71.8063 Q1398.74 73.7508 1393.71 73.7508 Q1385.49 73.7508 1380.3 67.1883 Q1375.16 60.6258 1375.16 49.9314 Q1375.16 39.2371 1380.3 32.6746 Q1385.49 26.1121 1393.71 26.1121 Q1398.74 26.1121 1402.3 28.0971 Q1405.91 30.0415 1408.25 34.0924 M1382.86 49.9314 Q1382.86 58.1548 1386.22 62.8538 Q1389.62 67.5124 1395.54 67.5124 Q1401.45 67.5124 1404.85 62.8538 Q1408.25 58.1548 1408.25 49.9314 Q1408.25 41.7081 1404.85 37.0496 Q1401.45 32.3505 1395.54 32.3505 Q1389.62 32.3505 1386.22 37.0496 Q1382.86 41.7081 1382.86 49.9314 Z" fill="#000000" fill-rule="evenodd" fill-opacity="1" /><path clip-path="url(#clip870)" d="M1469.87 48.0275 L1469.87 51.6733 L1435.6 51.6733 Q1436.08 59.3701 1440.22 63.421 Q1444.39 67.4314 1451.8 67.4314 Q1456.1 67.4314 1460.11 66.3781 Q1464.16 65.3249 1468.13 63.2184 L1468.13 70.267 Q1464.12 71.9684 1459.9 72.8596 Q1455.69 73.7508 1451.36 73.7508 Q1440.5 73.7508 1434.14 67.4314 Q1427.82 61.1119 1427.82 50.3365 Q1427.82 39.1965 1433.82 32.6746 Q1439.85 26.1121 1450.06 26.1121 Q1459.22 26.1121 1464.52 32.0264 Q1469.87 37.9003 1469.87 48.0275 M1462.42 45.84 Q1462.33 39.7232 1458.97 36.0774 Q1455.65 32.4315 1450.14 32.4315 Q1443.9 32.4315 1440.14 35.9558 Q1436.41 39.4801 1435.84 45.8805 L1462.42 45.84 Z" fill="#000000" fill-rule="evenodd" fill-opacity="1" /><path clip-path="url(#clip870)" d="M1511.03 28.5427 L1511.03 35.5912 Q1507.87 33.9709 1504.46 33.1607 Q1501.06 32.3505 1497.42 32.3505 Q1491.87 32.3505 1489.07 34.0519 Q1486.32 35.7533 1486.32 39.156 Q1486.32 41.7486 1488.3 43.2475 Q1490.29 44.7058 1496.28 46.0426 L1498.83 46.6097 Q1506.77 48.3111 1510.09 51.4303 Q1513.46 54.509 1513.46 60.0587 Q1513.46 66.3781 1508.43 70.0644 Q1503.45 73.7508 1494.7 73.7508 Q1491.06 73.7508 1487.09 73.0216 Q1483.16 72.3329 1478.78 70.9151 L1478.78 63.2184 Q1482.91 65.3654 1486.92 66.4591 Q1490.93 67.5124 1494.86 67.5124 Q1500.13 67.5124 1502.97 65.73 Q1505.8 63.9071 1505.8 60.6258 Q1505.8 57.5877 1503.73 55.9673 Q1501.71 54.3469 1494.78 52.8481 L1492.19 52.2405 Q1485.26 50.7821 1482.18 47.7845 Q1479.11 44.7463 1479.11 39.4801 Q1479.11 33.0797 1483.64 29.5959 Q1488.18 26.1121 1496.52 26.1121 Q1500.66 26.1121 1504.3 26.7198 Q1507.95 27.3274 1511.03 28.5427 Z" fill="#000000" fill-rule="evenodd" fill-opacity="1" /><path clip-path="url(#clip872)" d="M2880.57 737.723 L2768.44 771.478 L2648.93 805.228 L2521.62 839.419 L2386 873.214 L2241.53 905.922 L2087.71 938.864 L1923.93 972.542 L1749.69 1007.26 L1564.53 1041.4 L1368.21 1076.58 L1161.07 1110.98 L944.651 1150.66 L723.232 1199.53 L507.423 1254.15 L427.783 1280.16 L356.289 1305.76 L297.903 1331.83 L260.07 1342.68 L260.07 1333.72 L297.903 1292.16 L356.289 1254.34 L427.783 1219.49 L507.423 1186.46 L723.232 1120.59 L944.651 1063.27 L1161.07 1008.74 L1368.21 960.072 L1564.53 915.308 L1749.69 868.257 L1923.93 825.513 L2087.71 784.785 L2241.53 742.764 L2386 697.473 L2521.62 657.406 L2648.93 617.639 L2768.44 577.711 L2880.57 542.682  Z" fill="#377db8" fill-rule="evenodd" fill-opacity="0.35"/>
<polyline clip-path="url(#clip872)" style="stroke:#377db8; stroke-linecap:round; stroke-linejoin:round; stroke-width:0; stroke-opacity:1; fill:none" points="2880.57,737.723 2768.44,771.478 2648.93,805.228 2521.62,839.419 2386,873.214 2241.53,905.922 2087.71,938.864 1923.93,972.542 1749.69,1007.26 1564.53,1041.4 1368.21,1076.58 1161.07,1110.98 944.651,1150.66 723.232,1199.53 507.423,1254.15 427.783,1280.16 356.289,1305.76 297.903,1331.83 260.07,1342.68 "/>
<path clip-path="url(#clip872)" d="M2880.57 850.001 L2768.44 894.165 L2648.93 939.046 L2521.62 982.681 L2386 1025.84 L2241.53 1070.01 L2087.71 1111.94 L1923.93 1152.36 L1749.69 1191.01 L1564.53 1228.64 L1368.21 1264.65 L1161.07 1297.07 L944.651 1326.71 L723.232 1353.53 L507.423 1374.29 L427.783 1379.95 L356.289 1383.63 L297.903 1385.62 L260.07 1386.4 L260.07 1385.72 L297.903 1381.23 L356.289 1371.32 L427.783 1356.57 L507.423 1338.31 L723.232 1285.64 L944.651 1228.34 L1161.07 1169.99 L1368.21 1111.19 L1564.53 1055.19 L1749.69 1000.29 L1923.93 947.689 L2087.71 900.44 L2241.53 850.381 L2386 799.259 L2521.62 752.035 L2648.93 706.632 L2768.44 660.713 L2880.57 616.986  Z" fill="#f781be" fill-rule="evenodd" fill-opacity="0.35"/>
<polyline clip-path="url(#clip872)" style="stroke:#f781be; stroke-linecap:round; stroke-linejoin:round; stroke-width:0; stroke-opacity:1; fill:none" points="2880.57,850.001 2768.44,894.165 2648.93,939.046 2521.62,982.681 2386,1025.84 2241.53,1070.01 2087.71,1111.94 1923.93,1152.36 1749.69,1191.01 1564.53,1228.64 1368.21,1264.65 1161.07,1297.07 944.651,1326.71 723.232,1353.53 507.423,1374.29 427.783,1379.95 356.289,1383.63 297.903,1385.62 260.07,1386.4 "/>
<polyline clip-path="url(#clip872)" style="stroke:#f781be; stroke-linecap:round; stroke-linejoin:round; stroke-width:12; stroke-opacity:1; fill:none" points="2880.57,745.349 2768.44,790.903 2648.93,833.222 2521.62,881.227 2386,927.182 2241.53,971.592 2087.71,1016.12 1923.93,1062.3 1749.69,1107.82 1564.53,1152.15 1368.21,1197.85 1161.07,1243.25 944.651,1286.07 723.232,1326.75 507.423,1361.63 427.783,1372.17 356.289,1379.72 297.903,1384.28 260.07,1386.19 "/>
<path clip-path="url(#clip872)" d="M2880.56 792.196 L2768.45 830.789 L2648.91 871.072 L2521.6 909.927 L2385.99 946.922 L2241.5 983.772 L2087.7 1020.27 L1923.93 1055.46 L1749.68 1091.56 L1564.47 1126.08 L1368.17 1159.44 L1161.05 1189.81 L944.611 1215.29 L723.227 1230.34 L507.456 1239.41 L427.768 1249.11 L356.309 1270.98 L297.912 1320.14 L260.068 1343.03 L260.068 1326.33 L297.912 1263.15 L356.309 1240.44 L427.768 1229.21 L507.456 1219.11 L723.227 1181.35 L944.611 1131.5 L1161.05 1076.95 L1368.17 1023.3 L1564.47 970.837 L1749.68 918.934 L1923.93 868.816 L2087.7 818.393 L2241.5 770.611 L2385.99 723.451 L2521.6 679.923 L2648.91 635.795 L2768.45 593.99 L2880.56 553.743  Z" fill="#999999" fill-rule="evenodd" fill-opacity="0.35"/>
<polyline clip-path="url(#clip872)" style="stroke:#999999; stroke-linecap:round; stroke-linejoin:round; stroke-width:0; stroke-opacity:1; fill:none" points="2880.56,792.196 2768.45,830.789 2648.91,871.072 2521.6,909.927 2385.99,946.922 2241.5,983.772 2087.7,1020.27 1923.93,1055.46 1749.68,1091.56 1564.47,1126.08 1368.17,1159.44 1161.05,1189.81 944.611,1215.29 723.227,1230.34 507.456,1239.41 427.768,1249.11 356.309,1270.98 297.912,1320.14 260.068,1343.03 "/>
<polyline clip-path="url(#clip872)" style="stroke:#999999; stroke-linecap:round; stroke-linejoin:round; stroke-width:12; stroke-opacity:1; fill:none" points="2880.56,673.11 2768.45,713.418 2648.91,755.497 2521.6,797.394 2385.99,841.632 2241.5,884.772 2087.7,927.579 1923.93,972.658 1749.68,1015.33 1564.47,1057.67 1368.17,1101.26 1161.05,1141.23 944.611,1181.85 723.227,1214.01 507.456,1230.71 427.768,1238.97 356.309,1252.71 297.912,1289.09 260.068,1340.05 "/>
<path clip-path="url(#clip872)" d="M2901.62 521.763 L2787.22 546.926 L2670.33 571.772 L2543.9 593.426 L2400.96 616.096 L2256.92 641.137 L2110.55 664.425 L1934.16 690.564 L1766.26 714.885 L1579.2 741.548 L1384.89 769.107 L1193.69 797.361 L959.397 833.157 L740.527 873.193 L528.988 930.667 L438.617 1015.55 L373.004 1128.28 L305.421 1275.86 L263.886 1337.95 L263.886 1336.92 L305.421 1272.53 L373.004 1122.64 L438.617 1004.87 L528.988 929.242 L740.527 871.66 L959.397 830.107 L1193.69 795.835 L1384.89 767.018 L1579.2 740.488 L1766.26 712.91 L1934.16 688.892 L2110.55 662.518 L2256.92 639.673 L2400.96 614.991 L2543.9 591.674 L2670.33 568.212 L2787.22 543.75 L2901.62 520.436  Z" fill="#ff7e00" fill-rule="evenodd" fill-opacity="0.35"/>
<polyline clip-path="url(#clip872)" style="stroke:#ff7e00; stroke-linecap:round; stroke-linejoin:round; stroke-width:0; stroke-opacity:1; fill:none" points="2901.62,521.763 2787.22,546.926 2670.33,571.772 2543.9,593.426 2400.96,616.096 2256.92,641.137 2110.55,664.425 1934.16,690.564 1766.26,714.885 1579.2,741.548 1384.89,769.107 1193.69,797.361 959.397,833.157 740.527,873.193 528.988,930.667 438.617,1015.55 373.004,1128.28 305.421,1275.86 263.886,1337.95 "/>
<polyline clip-path="url(#clip872)" style="stroke:#ff7e00; stroke-linecap:round; stroke-linejoin:round; stroke-width:12; stroke-opacity:1; fill:none" points="2901.62,521.102 2787.22,545.132 2670.33,570.154 2543.9,592.51 2400.96,615.581 2256.92,640.845 2110.55,663.596 1934.16,689.932 1766.26,714.226 1579.2,741.317 1384.89,768.113 1193.69,796.627 959.397,831.544 740.527,872.246 528.988,929.578 438.617,1008.79 373.004,1126.58 305.421,1275.13 263.886,1337.54 "/>
<path clip-path="url(#clip872)" d="M249.542 1341.74 L277.318 1332.53 L356.429 1163.1 L478.812 960.676 L641.062 866.735 L827.907 824.685 L1060.09 784.278 L1275.6 748.905 L1543 712.036 L1807.93 672.647 L2030.85 636.669 L2321.94 590.633 L2570.59 545.173 L2790.99 503.285 L2998.32 456.506 L3228.11 401.351 L3415.68 363.248 L3415.68 338.613 L3228.11 381.907 L2998.32 437.645 L2790.99 489.409 L2570.59 526.249 L2321.94 584.199 L2030.85 627.027 L1807.93 664.331 L1543 707.221 L1275.6 746.571 L1060.09 783.067 L827.907 823.336 L641.062 866.057 L478.812 949.326 L356.429 1151.91 L277.318 1330.63 L249.542 1341.74  Z" fill="#4dae49" fill-rule="evenodd" fill-opacity="0.35"/>
<polyline clip-path="url(#clip872)" style="stroke:#4dae49; stroke-linecap:round; stroke-linejoin:round; stroke-width:0; stroke-opacity:1; fill:none" points="249.542,1341.74 277.318,1332.53 356.429,1163.1 478.812,960.676 641.062,866.735 827.907,824.685 1060.09,784.278 1275.6,748.905 1543,712.036 1807.93,672.647 2030.85,636.669 2321.94,590.633 2570.59,545.173 2790.99,503.285 2998.32,456.506 3228.11,401.351 3415.68,363.248 "/>
<polyline clip-path="url(#clip872)" style="stroke:#4dae49; stroke-linecap:round; stroke-linejoin:round; stroke-width:12; stroke-opacity:1; fill:none" points="249.542,1341.74 277.318,1331.92 356.429,1158.6 478.812,952.848 641.062,866.474 827.907,824.269 1060.09,783.738 1275.6,748.217 1543,708.101 1807.93,666.132 2030.85,633.255 2321.94,588.595 2570.59,536.958 2790.99,495.719 2998.32,448.994 3228.11,390.811 3415.68,345.65 "/>
<path clip-path="url(#clip872)" d="M3973.47 160.256 L2392.75 563.902 L2363.24 569.709 L2258.02 591.242 L2111.95 615.643 L2009.93 634.551 L1890.9 660.567 L1708.5 685.144 L1628.62 703.987 L1471.78 727.27 L1330.14 754.935 L1251.67 776.956 L1102.63 805.543 L1030.94 818.223 L923.945 843.612 L865.859 870.577 L759.316 896.575 L696.852 921.681 L636.233 945.351 L585.971 970.475 L538.604 992.755 L481.901 1011.34 L456.434 1035.37 L417.227 1056.98 L392.817 1068.18 L373.416 1090.58 L355.164 1105.04 L336.927 1118.74 L320.214 1151.55 L312.038 1155.44 L298.066 1151.87 L290.979 1185.35 L282.036 1210.81 L277.571 1221.51 L270.011 1236.82 L265.581 1277.83 L265.723 1277.13 L265.723 1256.29 L265.581 1243.49 L270.011 1215.74 L277.571 1189.81 L282.036 1181.81 L290.979 1148.85 L298.066 1126 L312.038 1121.61 L320.214 1113.2 L336.927 1090.38 L355.164 1082.12 L373.416 1075.28 L392.817 1053.45 L417.227 1037.48 L456.434 1021.71 L481.901 1004.27 L538.604 987.93 L585.971 963.701 L636.233 935.248 L696.852 914.849 L759.316 889.772 L865.859 862.24 L923.945 837.051 L1030.94 815.991 L1102.63 792.906 L1251.67 768.062 L1330.14 742.933 L1471.78 719.402 L1628.62 689.841 L1708.5 674.573 L1890.9 650.142 L2009.93 622.553 L2111.95 601.14 L2258.02 581.682 L2363.24 561.771 L2392.75 554.662 L3973.47 160.256  Z" fill="#974ea2" fill-rule="evenodd" fill-opacity="0.35"/>
<polyline clip-path="url(#clip872)" style="stroke:#974ea2; stroke-linecap:round; stroke-linejoin:round; stroke-width:0; stroke-opacity:1; fill:none" points="3973.47,160.256 2392.75,563.902 2363.24,569.709 2258.02,591.242 2111.95,615.643 2009.93,634.551 1890.9,660.567 1708.5,685.144 1628.62,703.987 1471.78,727.27 1330.14,754.935 1251.67,776.956 1102.63,805.543 1030.94,818.223 923.945,843.612 865.859,870.577 759.316,896.575 696.852,921.681 636.233,945.351 585.971,970.475 538.604,992.755 481.901,1011.34 456.434,1035.37 417.227,1056.98 392.817,1068.18 373.416,1090.58 355.164,1105.04 336.927,1118.74 320.214,1151.55 312.038,1155.44 298.066,1151.87 290.979,1185.35 282.036,1210.81 277.571,1221.51 270.011,1236.82 265.581,1277.83 265.723,1277.13 "/>
<polyline clip-path="url(#clip872)" style="stroke:#974ea2; stroke-linecap:round; stroke-linejoin:round; stroke-width:12; stroke-opacity:1; fill:none" points="3973.47,160.256 2392.75,559.486 2363.24,566.594 2258.02,585.936 2111.95,603.17 2009.93,630.93 1890.9,653.595 1708.5,681.169 1628.62,698.688 1471.78,725.543 1330.14,752.733 1251.67,769.563 1102.63,797.194 1030.94,817.371 923.945,841.615 865.859,863.54 759.316,892.091 696.852,917.52 636.233,938.676 585.971,966.222 538.604,988.378 481.901,1005.66 456.434,1025.98 417.227,1043.66 392.817,1066.71 373.416,1078.72 355.164,1095.5 336.927,1108.63 320.214,1137.99 312.038,1143.36 298.066,1140.02 290.979,1166.21 282.036,1196.13 277.571,1210.5 270.011,1225.12 265.581,1258.95 265.723,1272.44 "/>
<path clip-path="url(#clip872)" d="M3973.47 160.256 L2402.75 728.411 L2300.45 749.621 L2151.63 785.917 L1975.37 824.277 L1781.28 870.738 L1567.94 926.392 L1364.58 974.556 L1171.44 1022.7 L1010.39 1069.57 L868.358 1113.67 L746.832 1151.4 L646.133 1185.45 L562.722 1211.87 L502.059 1231.99 L445.844 1247.14 L403.963 1260.41 L370.843 1269.25 L343.674 1287.12 L322.811 1280.28 L307.669 1285.77 L294.702 1283.55 L284.919 1282.55 L277.238 1280.49 L271.404 1287.51 L266.255 1293.73 L262.417 1298.27 L259.639 1304.51 L257.636 1311.46 L255.596 1324 L254.285 1331.66 L253.291 1337.89 L252.423 1342.23 L251.782 1343.62 L251.295 1343.9 L250.881 1343.75 L250.592 1343.52 L250.592 1343.41 L250.881 1343.7 L251.295 1343.63 L251.782 1343.18 L252.423 1341.08 L253.291 1334.04 L254.285 1328.9 L255.596 1321.74 L257.636 1305.39 L259.639 1299.47 L262.417 1294.02 L266.255 1289.41 L271.404 1279.33 L277.238 1268.29 L284.919 1273.87 L294.702 1278.88 L307.669 1262.47 L322.811 1261 L343.674 1268.96 L370.843 1260.8 L403.963 1254.84 L445.844 1244.95 L502.059 1230.48 L562.722 1210.52 L646.133 1183.47 L746.832 1149.57 L868.358 1109.89 L1010.39 1067.26 L1171.44 1020.28 L1364.58 966.729 L1567.94 913.618 L1781.28 863.402 L1975.37 817.457 L2151.63 771.657 L2300.45 737.483 L2402.75 712.458 L3973.47 160.256  Z" fill="#e31a1c" fill-rule="evenodd" fill-opacity="0.35"/>
<polyline clip-path="url(#clip872)" style="stroke:#e31a1c; stroke-linecap:round; stroke-linejoin:round; stroke-width:0; stroke-opacity:1; fill:none" points="3973.47,160.256 2402.75,728.411 2300.45,749.621 2151.63,785.917 1975.37,824.277 1781.28,870.738 1567.94,926.392 1364.58,974.556 1171.44,1022.7 1010.39,1069.57 868.358,1113.67 746.832,1151.4 646.133,1185.45 562.722,1211.87 502.059,1231.99 445.844,1247.14 403.963,1260.41 370.843,1269.25 343.674,1287.12 322.811,1280.28 307.669,1285.77 294.702,1283.55 284.919,1282.55 277.238,1280.49 271.404,1287.51 266.255,1293.73 262.417,1298.27 259.639,1304.51 257.636,1311.46 255.596,1324 254.285,1331.66 253.291,1337.89 252.423,1342.23 251.782,1343.62 251.295,1343.9 250.881,1343.75 250.592,1343.52 "/>
<polyline clip-path="url(#clip872)" style="stroke:#e31a1c; stroke-linecap:round; stroke-linejoin:round; stroke-width:12; stroke-opacity:1; fill:none" points="3973.47,160.256 2402.75,718.383 2300.45,746.496 2151.63,779.804 1975.37,821.514 1781.28,867.766 1567.94,918.883 1364.58,971.088 1171.44,1021.69 1010.39,1067.99 868.358,1112.32 746.832,1149.99 646.133,1184.96 562.722,1211.06 502.059,1231.19 445.844,1245.91 403.963,1256.69 370.843,1265.95 343.674,1275.25 322.811,1273.94 307.669,1278.39 294.702,1281.29 284.919,1275.84 277.238,1277.93 271.404,1284.84 266.255,1290.85 262.417,1295.5 259.639,1302.99 257.636,1309.47 255.596,1323.07 254.285,1330.09 253.291,1336.17 252.423,1341.71 251.782,1343.34 251.295,1343.68 250.881,1343.73 250.592,1343.45 "/>
<polyline clip-path="url(#clip872)" style="stroke:#377db8; stroke-linecap:round; stroke-linejoin:round; stroke-width:12; stroke-opacity:1; fill:none" points="2880.57,659.063 2768.44,693.977 2648.93,730.276 2521.62,766.9 2386,801.69 2241.53,841.263 2087.71,878.576 1923.93,915.111 1749.69,951.404 1564.53,988.803 1368.21,1027.31 1161.07,1068.65 944.651,1114.92 723.232,1167.87 507.423,1228.61 427.783,1256.53 356.289,1285.34 297.903,1317.08 260.07,1341.62 "/>
</svg>
